<?xml version="1.0" standalone="no"?>
<!DOCTYPE svg PUBLIC "-//W3C//DTD SVG 1.1//EN" "http://www.w3.org/Graphics/SVG/1.1/DTD/svg11.dtd" >
<svg xmlns="http://www.w3.org/2000/svg" xmlns:xlink="http://www.w3.org/1999/xlink" version="1.1">
<metadata>
Created by FontForge 20190801 at Fri Jan  1 00:19:32 1904
 By Mark Brand
Copyright 1990-1993 Bitstream Inc.  All rights reserved.
</metadata>
<defs>
<font id="Geometric706BT-BlackB" horiz-adv-x="1024" >
  <font-face 
    font-family="Geometr706 Md BT"
    font-weight="700"
    font-stretch="normal"
    units-per-em="2048"
    panose-1="2 11 8 2 2 2 3 2 2 4"
    ascent="1638"
    descent="-410"
    x-height="1100"
    cap-height="1565"
    bbox="-342 -485 2783 2175"
    underline-thickness="236"
    underline-position="-333"
    unicode-range="U+0020-F002"
  />
<missing-glyph horiz-adv-x="1229" 
d="M102 -362v1806h1024v-1806h-1024zM217 -248h795v1577h-795v-1577z" />
    <glyph glyph-name=".notdef" horiz-adv-x="1229" 
d="M102 -362v1806h1024v-1806h-1024zM217 -248h795v1577h-795v-1577z" />
    <glyph glyph-name=".null" horiz-adv-x="0" 
 />
    <glyph glyph-name="nonmarkingreturn" horiz-adv-x="633" 
 />
    <glyph glyph-name="space" unicode=" " horiz-adv-x="633" 
 />
    <glyph glyph-name="exclam" unicode="!" horiz-adv-x="635" 
d="M139 522v1043h357v-1043h-357zM518 170q0 -83 -58.5 -142t-142.5 -59t-142 58.5t-58 142.5t59 143.5t141 59.5q81 0 141 -60.5t60 -142.5z" />
    <glyph glyph-name="quotedbl" unicode="&#x22;" horiz-adv-x="713" 
d="M416 1438h223v-561h-223v561zM76 1438h219v-561h-219v561z" />
    <glyph glyph-name="numbersign" unicode="#" horiz-adv-x="1575" 
d="M707 842l-82 -232h245l82 232h-245zM684 1466h250l-139 -393h235l141 393h250l-139 -393h270l-86 -231h-268l-80 -230h277l-84 -231h-275l-141 -393h-250l139 393h-235l-141 -393h-250l139 393h-274l86 231h270l82 230h-283l86 231h279z" />
    <glyph glyph-name="dollar" unicode="$" horiz-adv-x="1266" 
d="M459 464q3 -73 54.5 -116t135.5 -43t133 38t49 101q0 55 -47.5 94.5t-197.5 94.5q-16 6 -48 17q-175 62 -262 124q-75 56 -115 141t-40 191q0 181 116 305.5t308 147.5v221h209v-221q197 -34 298.5 -149.5t104.5 -309.5h-342q-2 83 -49 130.5t-127 47.5q-78 0 -124 -38.5
t-46 -102.5q0 -94 227 -175q43 -15 66 -24q13 -5 40 -15q203 -74 285 -163q51 -54 77 -124t26 -153q0 -190 -116 -316t-320 -157v-225h-209v221q-201 23 -315.5 143.5t-120.5 315.5z" />
    <glyph glyph-name="percent" unicode="%" horiz-adv-x="2015" 
d="M1274 1591h223l-756 -1618h-223zM1458 512v-190q0 -71 27.5 -109.5t77.5 -38.5t78 39t28 109v190q0 69 -28 108t-78 39q-49 0 -77 -39t-28 -108zM1196 512q0 165 96 256.5t271 91.5q174 0 271 -91.5t97 -256.5v-190q0 -165 -97 -257t-271 -92q-175 0 -271 91.5t-96 257.5
v190zM86 1243q0 165 96 256.5t271 91.5q174 0 270 -91.5t96 -256.5v-190q0 -165 -96 -256.5t-270 -91.5q-175 0 -271 91.5t-96 256.5v190zM348 1243v-190q0 -70 27.5 -109t77.5 -39q49 0 76.5 39t27.5 109v190q0 70 -27 108t-77 38q-49 0 -77 -38.5t-28 -107.5z" />
    <glyph glyph-name="ampersand" unicode="&#x26;" horiz-adv-x="1583" 
d="M698 1081q69 43 103.5 86.5t34.5 87.5q0 47 -32.5 77t-82.5 30t-81.5 -30t-31.5 -79q0 -37 19.5 -75t70.5 -97zM827 391l-229 287q-78 -42 -117 -94t-39 -117q0 -77 49 -127.5t123 -50.5q48 0 101.5 25.5t111.5 76.5zM1026 147q-97 -86 -211.5 -130t-243.5 -44
q-216 0 -353.5 131.5t-137.5 335.5q0 154 87.5 273t258.5 198q-68 76 -99.5 151.5t-31.5 160.5q0 164 119.5 266t316.5 102q175 0 288.5 -97.5t113.5 -246.5q0 -115 -64 -210.5t-195 -176.5l213 -248l242 219l225 -233l-270 -238l293 -360h-438z" />
    <glyph glyph-name="quotesingle" unicode="'" horiz-adv-x="371" 
d="M76 1438h219v-561h-219v561z" />
    <glyph glyph-name="parenleft" unicode="(" horiz-adv-x="872" 
d="M788 1407q-149 -208 -218.5 -405.5t-69.5 -413.5q0 -217 70 -417t218 -404l-245 -189q-177 247 -267 501.5t-90 508.5t90 508t267 499z" />
    <glyph glyph-name="parenright" unicode=")" horiz-adv-x="872" 
d="M84 -236q149 208 219 406.5t70 415.5t-70 416.5t-219 404.5l246 188q177 -246 266.5 -500.5t89.5 -508.5t-90 -508.5t-266 -499.5z" />
    <glyph glyph-name="asterisk" unicode="*" 
d="M512 1081l-152 -338l-200 146l272 250l-366 39l75 237l322 -182l-78 362h254l-78 -362l322 182l75 -237l-366 -39l272 -250l-200 -146z" />
    <glyph glyph-name="plus" unicode="+" horiz-adv-x="1706" 
d="M735 1221h238v-494h479v-231h-479v-496h-238v496h-481v231h481v494z" />
    <glyph glyph-name="comma" unicode="," horiz-adv-x="633" 
d="M201 401l329 -69l-163 -617l-275 56z" />
    <glyph glyph-name="hyphen" unicode="-" horiz-adv-x="645" 
d="M76 434v322h493v-322h-493z" />
    <glyph glyph-name="period" unicode="." horiz-adv-x="633" 
d="M518 170q0 -83 -58.5 -142t-142.5 -59t-142 58.5t-58 142.5t59 143.5t141 59.5q81 0 141 -60.5t60 -142.5z" />
    <glyph glyph-name="slash" unicode="/" horiz-adv-x="569" 
d="M-47 -190l448 1785h215l-448 -1785h-215z" />
    <glyph glyph-name="zero" unicode="0" horiz-adv-x="1266" 
d="M473 1059v-553q0 -104 42 -161.5t118 -57.5t118 57t42 162v553q0 105 -42 162t-118 57t-118 -57.5t-42 -161.5zM1151 492q0 -246 -136 -382.5t-382 -136.5t-382 136.5t-136 382.5v581q0 246 136 382t382 136t382 -136t136 -382v-581z" />
    <glyph glyph-name="one" unicode="1" horiz-adv-x="1266" 
d="M547 0v1090l-299 -140v338l624 303h33v-1591h-358z" />
    <glyph glyph-name="two" unicode="2" horiz-adv-x="1266" 
d="M86 0v45l633 887q54 74 71 111.5t17 72.5q0 71 -46.5 115.5t-121.5 44.5q-85 0 -129.5 -54t-44.5 -155v-14h-359q2 254 142 396t391 142q236 0 383 -128.5t147 -334.5q0 -87 -29.5 -171t-88.5 -162l-336 -453h440v-342h-1069z" />
    <glyph glyph-name="three" unicode="3" horiz-adv-x="1266" 
d="M455 467q6 -86 47.5 -132t113.5 -46q77 0 122.5 57.5t45.5 155.5q0 84 -46.5 135t-123.5 51q-38 0 -71 -14.5t-64 -44.5l-252 188l379 424h-452v324h997v-49l-418 -539q200 -17 307 -135.5t107 -321.5q0 -248 -144 -397.5t-382 -149.5q-239 0 -383 134t-148 359z" />
    <glyph glyph-name="four" unicode="4" horiz-adv-x="1266" 
d="M383 627h301v434q0 39 3.5 80.5t10.5 90.5zM670 0v326h-580v301l477 938h453v-938h135v-301h-135v-326h-350z" />
    <glyph glyph-name="five" unicode="5" horiz-adv-x="1266" 
d="M428 469q31 -81 81.5 -121.5t121.5 -40.5q79 0 127.5 55t48.5 146q0 87 -48 140.5t-126 53.5q-54 0 -90 -22t-58 -68h-309v953h889v-324h-565v-278q43 20 91 30.5t103 10.5q215 0 346 -134.5t131 -355.5q0 -240 -151.5 -390.5t-392.5 -150.5q-194 0 -325 92t-189 267z
" />
    <glyph glyph-name="six" unicode="6" horiz-adv-x="1266" 
d="M625 678q-76 0 -124 -54t-48 -141q0 -86 48.5 -141t123.5 -55q76 0 124 54t48 142q0 89 -47.5 142t-124.5 53zM651 954q7 0 21.5 1t21.5 1q217 0 341 -126t124 -347q0 -231 -146.5 -370.5t-391.5 -139.5q-240 0 -385.5 142t-145.5 374q0 111 40 222t140 268l377 586h420z
" />
    <glyph glyph-name="seven" unicode="7" horiz-adv-x="1266" 
d="M178 0l533 1241h-553v324h1048v-45l-633 -1520h-395z" />
    <glyph glyph-name="eight" unicode="8" horiz-adv-x="1266" 
d="M635 944q81 0 129.5 50t48.5 134q0 85 -48 133t-132 48q-81 0 -131.5 -50t-50.5 -129q0 -82 51 -134t133 -52zM635 281q84 0 136 57.5t52 150.5q0 87 -53 141t-137 54t-135.5 -56t-51.5 -149q0 -91 51.5 -144.5t137.5 -53.5zM291 827q-81 48 -123.5 129t-42.5 189
q0 202 138 325t370 123q227 0 367.5 -125t140.5 -325q0 -108 -42.5 -189t-123.5 -129q97 -49 148 -139t51 -213q0 -229 -145.5 -362.5t-395.5 -133.5t-395.5 134.5t-145.5 363.5q0 123 51 213t148 139z" />
    <glyph glyph-name="nine" unicode="9" horiz-adv-x="1266" 
d="M614 610q-7 0 -21 -1t-22 -1q-217 0 -342 126.5t-125 346.5q0 231 148 370.5t393 139.5q239 0 384 -141.5t145 -374.5q0 -111 -40 -223t-139 -266l-379 -586h-417zM641 887q76 0 124 54t48 140q0 87 -48.5 142t-123.5 55q-76 0 -124 -54.5t-48 -142.5t47 -141t125 -53z
" />
    <glyph glyph-name="colon" unicode=":" horiz-adv-x="635" 
d="M518 924q0 -83 -58.5 -142t-142.5 -59t-142 58t-58 143q0 83 59 142.5t141 59.5q81 0 141 -60.5t60 -141.5zM518 170q0 -83 -58.5 -142t-142.5 -59t-142 58.5t-58 142.5t59 143.5t141 59.5q81 0 141 -60.5t60 -142.5z" />
    <glyph glyph-name="semicolon" unicode=";" horiz-adv-x="635" 
d="M522 924q0 -83 -58.5 -142t-141.5 -59q-85 0 -143 58t-58 143q0 83 59 142.5t142 59.5q81 0 140.5 -60.5t59.5 -141.5zM190 401l330 -69l-164 -617l-274 56z" />
    <glyph glyph-name="less" unicode="&#x3c;" horiz-adv-x="1706" 
d="M1442 1214v-253l-854 -351l854 -348v-254l-1178 486v233z" />
    <glyph glyph-name="equal" unicode="=" horiz-adv-x="1706" 
d="M254 502h1198v-230h-1198v230zM254 950h1198v-231h-1198v231z" />
    <glyph glyph-name="greater" unicode="&#x3e;" horiz-adv-x="1706" 
d="M264 1214l1178 -487v-233l-1178 -486v254l854 348l-854 351v253z" />
    <glyph glyph-name="question" unicode="?" horiz-adv-x="1090" 
d="M281 170q0 83 59.5 143t142.5 60q84 0 142.5 -59t58.5 -144q0 -83 -59 -142t-142 -59q-81 0 -141.5 60t-60.5 141zM299 555v107q0 69 24 123.5t78 107.5q35 34 101 89q143 120 143 202q0 53 -33.5 83.5t-93.5 30.5q-62 0 -96.5 -38.5t-34.5 -108.5v-6h-346v24
q0 197 130.5 311.5t356.5 114.5q222 0 356 -115t134 -302q0 -115 -52 -205t-171 -178q-16 -12 -45 -31q-93 -59 -93 -148v-61h-358z" />
    <glyph glyph-name="at" unicode="@" horiz-adv-x="2048" 
d="M1161 262q-56 -82 -126.5 -120t-168.5 -38q-163 0 -247 87.5t-84 257.5q0 241 141.5 404t349.5 163q77 0 134 -30.5t95 -92.5l52 92h206l-153 -610q0 -2 -1 -6q-3 -18 -3 -27q0 -30 16 -44.5t47 -14.5q137 0 240.5 143.5t103.5 335.5q0 239 -179.5 390t-467.5 151
q-148 0 -274 -36.5t-230 -109.5q-155 -110 -239 -274.5t-84 -356.5q0 -302 203 -481.5t544 -179.5q164 0 316 47.5t280 138.5l97 -135q-156 -117 -329 -175t-364 -58q-192 0 -354.5 49t-288.5 145q-157 122 -234 281.5t-77 361.5q0 169 53 320.5t156 277.5
q148 183 359.5 278t467.5 95q170 0 320 -46t260 -132q136 -107 203 -243t67 -306q0 -167 -65.5 -307t-190.5 -240q-69 -56 -154 -85.5t-176 -29.5q-106 0 -161 40t-60 120zM1198 696q-9 76 -50 116t-110 40q-103 0 -181.5 -121.5t-78.5 -286.5q0 -83 35 -128.5t98 -45.5
q84 0 148 59t88 158z" />
    <glyph glyph-name="A" unicode="A" horiz-adv-x="1569" 
d="M6 0l537 1565h485l537 -1565h-416l-64 227h-602l-63 -227h-414zM573 522h422l-211 725z" />
    <glyph glyph-name="B" unicode="B" horiz-adv-x="1341" 
d="M176 0v1565h572q215 0 340.5 -113.5t125.5 -306.5q0 -116 -52.5 -202.5t-153.5 -135.5q116 -36 178.5 -126t62.5 -222q0 -225 -135.5 -342t-394.5 -117h-543zM539 915h94q101 0 154 48t53 139q0 100 -54.5 143t-185.5 43h-61v-373zM539 295h127q90 0 143 53t53 144
q0 95 -58.5 144.5t-170.5 49.5h-94v-391z" />
    <glyph glyph-name="C" unicode="C" horiz-adv-x="1583" 
d="M1249 1102q-65 72 -145.5 107.5t-175.5 35.5q-189 0 -309.5 -129.5t-120.5 -333.5t120.5 -333.5t309.5 -129.5q101 0 182.5 39t140.5 115l258 -262q-115 -120 -264.5 -181t-329.5 -61q-173 0 -321 58.5t-262 173.5q-114 112 -173 260t-59 321q0 174 59 323t173 261
q113 114 260.5 171.5t322.5 57.5q176 0 325 -59.5t263 -175.5z" />
    <glyph glyph-name="D" unicode="D" horiz-adv-x="1593" 
d="M569 317h119q188 0 298 126t110 341q0 221 -110.5 344t-307.5 123h-109v-934zM176 0v1569h481q165 0 280 -25t200 -78q175 -111 265.5 -284t90.5 -398q0 -217 -92 -389t-273 -291q-78 -51 -196.5 -77.5t-274.5 -26.5h-481z" />
    <glyph glyph-name="E" unicode="E" horiz-adv-x="1214" 
d="M176 0v1565h877v-303h-484v-320h484v-303h-484v-322h484v-317h-877z" />
    <glyph glyph-name="F" unicode="F" horiz-adv-x="1176" 
d="M176 0v1565h877v-303h-484v-320h484v-303h-484v-639h-393z" />
    <glyph glyph-name="G" unicode="G" horiz-adv-x="1810" 
d="M1257 1067q-58 87 -144.5 132.5t-194.5 45.5q-185 0 -302.5 -129.5t-117.5 -333.5t117.5 -333.5t302.5 -129.5q143 0 249 70t156 199h-405v299h811q0 -12 3 -44.5t3 -49.5q0 -121 -30 -238t-77 -190q-129 -201 -303.5 -298.5t-406.5 -97.5q-173 0 -322 59t-264 173
q-114 112 -173 260t-59 321q0 174 59 322t173 262q113 113 261.5 171t324.5 58q191 0 348 -69t280 -207z" />
    <glyph glyph-name="H" unicode="H" horiz-adv-x="1636" 
d="M174 0v1565h393v-613h500v613h393v-1565h-393v635h-500v-635h-393z" />
    <glyph glyph-name="I" unicode="I" horiz-adv-x="750" 
d="M176 0v1565h397v-1565h-397z" />
    <glyph glyph-name="J" unicode="J" horiz-adv-x="977" 
d="M86 307h92q155 0 220 68.5t65 232.5v639h-352v318h745v-981q0 -305 -145.5 -460t-431.5 -155h-193v338z" />
    <glyph glyph-name="K" unicode="K" horiz-adv-x="1436" 
d="M176 0v1565h393v-711l392 711h436l-451 -734l469 -831h-430l-416 743v-743h-393z" />
    <glyph glyph-name="L" unicode="L" horiz-adv-x="1010" 
d="M176 0v1565h393v-1248h396v-317h-789z" />
    <glyph glyph-name="M" unicode="M" horiz-adv-x="2087" 
d="M1550 0v795q0 56 8 142.5t23 188.5q-33 -100 -108 -254l-6 -13l-427 -888l-422 887q-5 12 -18 39q-65 134 -96 229q16 -110 24.5 -195.5t8.5 -135.5v-795h-361v1565h483l383 -858l404 858h465v-1565h-361z" />
    <glyph glyph-name="N" unicode="N" horiz-adv-x="1753" 
d="M176 0v1565h408l503 -789q41 -64 76 -129.5t64 -132.5q-19 84 -28 164t-9 160v727h387v-1565h-387l-535 799q-29 44 -63 107t-70 141q22 -68 32.5 -140t10.5 -149v-758h-389z" />
    <glyph glyph-name="O" unicode="O" horiz-adv-x="1835" 
d="M918 319q184 0 301.5 129.5t117.5 333.5t-117.5 333.5t-301.5 129.5q-185 0 -302.5 -129.5t-117.5 -333.5q0 -203 118 -333t302 -130zM918 1595q176 0 323 -58t262 -173q114 -112 173 -260t59 -322q0 -173 -59 -320t-173 -261t-262.5 -173t-322.5 -59t-323.5 59
t-262.5 173q-114 114 -173 261t-59 320t58.5 321t171.5 261q114 114 262.5 172.5t325.5 58.5z" />
    <glyph glyph-name="P" unicode="P" horiz-adv-x="1337" 
d="M176 0v1565h547q248 0 394.5 -141.5t146.5 -381.5q0 -260 -142.5 -396t-416.5 -136h-136v-510h-393zM569 827h60q114 0 175.5 57t61.5 163q0 108 -60 160.5t-185 52.5h-52v-433z" />
    <glyph glyph-name="Q" unicode="Q" horiz-adv-x="1835" 
d="M1311 61q-91 -46 -187.5 -69t-205.5 -23q-174 0 -324 59t-262 171q-114 113 -173 261.5t-59 321.5q0 174 59 322t173 262q112 112 261.5 170.5t324.5 58.5t323.5 -58t261.5 -171q114 -114 173 -262t59 -322q0 -143 -41 -267.5t-123 -233.5l125 -123l-228 -250zM1026 336
l-59 59l227 242l90 -86q27 56 40 114t13 117q0 204 -118.5 333.5t-303.5 129.5q-184 0 -300.5 -129t-116.5 -334q0 -207 119 -335t311 -128q24 0 48.5 4.5t49.5 12.5z" />
    <glyph glyph-name="R" unicode="R" horiz-adv-x="1446" 
d="M676 1260h-107v-433h117q113 0 174.5 57t61.5 163q0 108 -60.5 160.5t-185.5 52.5zM176 0v1565h574q263 0 417 -136t154 -366q0 -181 -93 -294t-253 -128l409 -641h-473l-342 666v-666h-393z" />
    <glyph glyph-name="S" unicode="S" horiz-adv-x="1323" 
d="M467 454q3 -77 55.5 -122t141.5 -45q88 0 139 38.5t51 104.5q0 58 -49.5 99t-206.5 98q-15 5 -47 16q-182 63 -272 131q-79 59 -120.5 147.5t-41.5 198.5q0 212 146 343.5t384 131.5q263 0 403.5 -124t143.5 -356l-356 -1q-2 87 -50 135.5t-133 48.5q-81 0 -129.5 -40
t-48.5 -107q0 -96 232 -180q47 -17 73 -27q14 -5 43 -16q212 -78 297 -170q53 -57 79 -128.5t26 -158.5q0 -228 -157.5 -366t-420.5 -138q-247 0 -392.5 130.5t-152.5 357.5z" />
    <glyph glyph-name="T" unicode="T" horiz-adv-x="1139" 
d="M373 0v1247h-353v318h1098v-318h-352v-1247h-393z" />
    <glyph glyph-name="U" unicode="U" horiz-adv-x="1608" 
d="M561 1565v-867q0 -203 57 -293t185 -90q129 0 186.5 89.5t57.5 293.5v867h393v-1004q0 -278 -169 -435t-468 -157t-468 157.5t-169 434.5v1004h395z" />
    <glyph glyph-name="V" unicode="V" horiz-adv-x="1389" 
d="M506 0l-488 1565h420l211 -834q15 -56 29.5 -131.5t28.5 -163.5q12 94 25 165.5t28 129.5l217 834h395l-487 -1565h-379z" />
    <glyph glyph-name="W" unicode="W" horiz-adv-x="2048" 
d="M420 0l-416 1565h399l166 -842q3 -14 16.5 -107l22.5 -155q5 68 13 131t20 121l178 852h410l178 -852q12 -59 20 -121.5t13 -130.5q9 63 22.5 155t16.5 107l166 842h399l-416 -1565h-385l-182 878q-5 22 -13.5 75t-25.5 175q-11 -71 -22 -133.5t-21 -115.5l-172 -879
h-387z" />
    <glyph glyph-name="X" unicode="X" horiz-adv-x="1450" 
d="M12 0l473 840l-417 725h450l158 -318q22 -42 35 -78.5t18 -70.5q6 31 17 64t28 69l162 334h444l-422 -725l472 -840h-457l-221 455q-15 30 -24 59.5t-13 60.5q-6 -34 -16.5 -66.5t-26.5 -66.5l-213 -442h-447z" />
    <glyph glyph-name="Y" unicode="Y" horiz-adv-x="1319" 
d="M461 0v705l-496 860h443l202 -428q13 -25 25.5 -55.5t23.5 -63.5q14 39 26 69.5t21 48.5l203 429h443l-496 -860v-705h-395z" />
    <glyph glyph-name="Z" unicode="Z" horiz-adv-x="1384" 
d="M47 0l660 1260h-592v305h1179l-657 -1248h600v-317h-1190z" />
    <glyph glyph-name="bracketleft" unicode="[" horiz-adv-x="825" 
d="M756 1565v-228h-236v-1517h236v-228h-549v1973h549z" />
    <glyph glyph-name="backslash" unicode="\" horiz-adv-x="569" 
d="M168 1595l448 -1785h-215l-448 1785h215z" />
    <glyph glyph-name="bracketright" unicode="]" horiz-adv-x="825" 
d="M70 -408v228h235v1517h-235v228h548v-1973h-548z" />
    <glyph glyph-name="asciicircum" unicode="^" horiz-adv-x="2048" 
d="M879 1462h288l465 -563h-264l-344 342l-346 -342h-264z" />
    <glyph glyph-name="underscore" unicode="_" 
d="M0 -244h1024v-239h-1024v239z" />
    <glyph glyph-name="grave" unicode="`" 
d="M207 1581h287l192 -371h-154z" />
    <glyph glyph-name="a" unicode="a" horiz-adv-x="1399" 
d="M670 254q98 0 165.5 84.5t67.5 212.5t-67.5 212.5t-165.5 84.5q-100 0 -166 -83.5t-66 -213.5q0 -129 66.5 -213t165.5 -84zM893 0v150q-31 -81 -107 -124.5t-186 -43.5q-108 0 -205 42t-172 121q-72 77 -109.5 180.5t-37.5 225.5q0 127 33.5 225.5t103.5 175.5
q75 82 172 125t205 43q109 0 188.5 -41.5t124.5 -122.5v144h344v-1100h-354z" />
    <glyph glyph-name="b" unicode="b" horiz-adv-x="1399" 
d="M506 1565v-615q31 81 107 124.5t186 43.5q107 0 203 -42t172 -122q73 -77 111 -180t38 -223q0 -128 -34 -227t-103 -177q-75 -81 -172 -124t-203 -43q-114 0 -199 47t-116 127v-154h-344v1565h354zM729 846q-99 0 -165 -83t-66 -212q0 -130 66.5 -214.5t164.5 -84.5
q99 0 165.5 84.5t66.5 214.5t-66 212.5t-166 82.5z" />
    <glyph glyph-name="c" unicode="c" horiz-adv-x="1176" 
d="M1124 162q-95 -97 -206.5 -143t-249.5 -46q-265 0 -428.5 159t-163.5 417t163.5 417.5t428.5 159.5q131 0 238 -40t196 -121l-213 -236q-41 47 -92.5 71.5t-106.5 24.5q-108 0 -180 -78t-72 -198t71.5 -197.5t180.5 -77.5q66 0 122 33t93 92z" />
    <glyph glyph-name="d" unicode="d" horiz-adv-x="1399" 
d="M670 254q98 0 165.5 84.5t67.5 212.5t-67.5 212.5t-165.5 84.5q-100 0 -166 -83.5t-66 -213.5q0 -129 66.5 -213t165.5 -84zM893 0v150q-31 -81 -107 -124.5t-186 -43.5q-108 0 -205 42t-172 121q-72 77 -109.5 180.5t-37.5 225.5q0 127 33.5 225.5t103.5 175.5
q75 82 172 125t205 43q109 0 188.5 -41.5t124.5 -122.5v609h344v-1565h-354z" />
    <glyph glyph-name="e" unicode="e" horiz-adv-x="1352" 
d="M444 637h469q-13 106 -76 164.5t-163 58.5q-97 0 -159.5 -60.5t-70.5 -162.5zM1249 299q-69 -155 -217 -240.5t-348 -85.5q-274 0 -441 157t-167 413q0 261 164 422t432 161q285 0 444.5 -166.5t159.5 -463.5v-27l-827 -1q9 -102 72.5 -160t166.5 -58q75 0 130.5 30
t84.5 87z" />
    <glyph glyph-name="f" unicode="f" horiz-adv-x="743" 
d="M186 0v813h-125v287h125v123q0 173 111 264.5t321 91.5h80v-309h-24q-68 0 -98.5 -26.5t-30.5 -86.5v-57h153v-287h-153v-813h-359z" />
    <glyph glyph-name="g" unicode="g" horiz-adv-x="1399" 
d="M670 254q98 0 165.5 84.5t67.5 212.5t-67.5 212.5t-165.5 84.5q-100 0 -166 -83.5t-66 -213.5q0 -129 66.5 -213t165.5 -84zM1247 115q0 -256 -159.5 -396.5t-450.5 -140.5q-165 0 -300 43.5t-255 134.5l164 219q74 -71 163 -109t181 -38q144 0 227.5 79t83.5 214
q0 6 -1 18.5t-1 18.5q-40 -88 -115 -132t-184 -44q-107 0 -204.5 42t-172.5 121q-72 77 -109.5 180.5t-37.5 225.5q0 127 33.5 225.5t103.5 175.5q75 82 172 125t205 43q109 0 188.5 -41.5t124.5 -122.5v144h344v-985z" />
    <glyph glyph-name="h" unicode="h" horiz-adv-x="1294" 
d="M152 0v1565h358v-633q57 92 137.5 139t181.5 47q154 0 240 -97t86 -271v-750h-358v645q0 90 -33.5 132t-104.5 42q-75 0 -112 -51t-37 -154v-614h-358z" />
    <glyph glyph-name="i" unicode="i" horiz-adv-x="664" 
d="M135 1384q0 81 57 138t138 57t137.5 -56.5t56.5 -138.5q0 -80 -57 -137t-137 -57q-79 0 -137 58t-58 136zM152 0v1100h358v-1100h-358z" />
    <glyph glyph-name="j" unicode="j" horiz-adv-x="692" 
d="M174 1384q0 81 57 138t138 57t137.5 -56.5t56.5 -138.5q0 -80 -57 -137t-137 -57q-79 0 -137 58t-58 136zM549 4q0 -212 -107 -319t-317 -107q-20 0 -30.5 0.5t-20.5 1.5v309h8q60 0 84 25.5t24 89.5v1096h359v-1096z" />
    <glyph glyph-name="k" unicode="k" horiz-adv-x="1294" 
d="M152 0v1565h358v-924l268 459h412l-369 -508l412 -592h-430l-293 512v-512h-358z" />
    <glyph glyph-name="l" unicode="l" horiz-adv-x="664" 
d="M152 0v1565h358v-1565h-358z" />
    <glyph glyph-name="m" unicode="m" horiz-adv-x="1929" 
d="M152 0v1100h342v-168q64 94 144.5 140t178.5 46q94 0 169 -41.5t126 -122.5q58 79 148 121.5t196 42.5q160 0 248 -96t88 -272v-750h-358v645q0 89 -34.5 131.5t-105.5 42.5q-77 0 -113 -49t-36 -156v-614h-348v645q0 90 -33.5 132t-104.5 42q-76 0 -112.5 -49.5
t-36.5 -155.5v-614h-358z" />
    <glyph glyph-name="n" unicode="n" horiz-adv-x="1294" 
d="M152 0v1100h342v-168q65 96 146.5 141t188.5 45q154 0 240 -97t86 -271v-750h-358v645q0 90 -33.5 132t-104.5 42q-73 0 -111 -52t-38 -153v-614h-358z" />
    <glyph glyph-name="o" unicode="o" horiz-adv-x="1305" 
d="M651 -27q-257 0 -416 159.5t-159 416.5q0 258 158.5 417.5t416.5 159.5q257 0 416.5 -160t159.5 -417q0 -255 -160 -415.5t-416 -160.5zM651 274q96 0 154.5 75t58.5 200q0 126 -58 201t-155 75q-94 0 -153.5 -76.5t-59.5 -199.5q0 -124 59 -199.5t154 -75.5z" />
    <glyph glyph-name="p" unicode="p" horiz-adv-x="1399" 
d="M506 1100v-150q31 81 107 124.5t186 43.5q107 0 203 -42t172 -122q73 -77 111 -180t38 -223q0 -128 -34 -227t-103 -177q-75 -81 -172 -124t-203 -43q-114 0 -199 47t-116 127v-562h-344v1508h354zM729 846q-99 0 -165 -83t-66 -212q0 -130 66.5 -214.5t164.5 -84.5
q99 0 165.5 84.5t66.5 214.5t-66 212.5t-166 82.5z" />
    <glyph glyph-name="q" unicode="q" horiz-adv-x="1399" 
d="M893 -408v558q-31 -81 -107 -124.5t-186 -43.5q-108 0 -205 42t-172 121q-72 77 -109.5 180.5t-37.5 225.5q0 127 33.5 225.5t103.5 175.5q75 82 172 125t205 43q107 0 186.5 -41.5t126.5 -122.5v144h344v-1508h-354zM670 254q98 0 165.5 84.5t67.5 212.5t-67.5 212.5
t-165.5 84.5q-100 0 -166 -83.5t-66 -213.5q0 -129 66.5 -213t165.5 -84z" />
    <glyph glyph-name="r" unicode="r" horiz-adv-x="891" 
d="M152 0v1100h348v-201q46 113 118.5 167t178.5 54q17 0 25 -0.5t16 -1.5v-379q-39 8 -64 11.5t-43 3.5q-120 0 -170.5 -72t-50.5 -250v-432h-358z" />
    <glyph glyph-name="s" unicode="s" horiz-adv-x="1049" 
d="M410 330v-11q0 -52 29 -80t83 -28q46 0 75.5 23.5t29.5 60.5q0 62 -148 120q-11 4 -18 7q-10 4 -31 12q-117 45 -182 88q-57 37 -89 102t-32 144q0 166 104.5 262t286.5 96q183 0 291 -90.5t113 -246.5l-291 -1q-4 52 -30.5 79.5t-72.5 27.5q-49 0 -77.5 -21.5
t-28.5 -58.5q0 -61 149 -114q48 -17 76 -27q166 -64 230.5 -139t64.5 -197q0 -171 -110.5 -268t-307.5 -97q-199 0 -305.5 90t-114.5 267h306z" />
    <glyph glyph-name="t" unicode="t" horiz-adv-x="807" 
d="M688 0h-147q-208 0 -278 51t-70 187v575h-121v287h121v280h358v-280h137v-287h-137v-436q0 -39 16 -56.5t51 -17.5h70v-303z" />
    <glyph glyph-name="u" unicode="u" horiz-adv-x="1280" 
d="M500 1100v-658q0 -86 35.5 -131t103.5 -45q69 0 105 45t36 131v658h359v-694q0 -205 -131.5 -319t-368.5 -114t-367.5 113.5t-130.5 319.5v694h359z" />
    <glyph glyph-name="v" unicode="v" horiz-adv-x="1100" 
d="M354 0l-385 1100h369l160 -576q18 -64 31.5 -134t21.5 -148q9 86 21.5 154.5t29.5 127.5l160 576h368l-385 -1100h-391z" />
    <glyph glyph-name="w" unicode="w" horiz-adv-x="1821" 
d="M1087 0l-133 528q-2 9 -6 26q-34 133 -43 220q-10 -97 -45 -239l-2 -7l-135 -528h-379l-362 1100h383l139 -572q13 -57 23.5 -114.5t17.5 -113.5q8 68 17.5 124.5t21.5 103.5l139 572h364l138 -572q18 -77 28 -130.5t15 -97.5q5 45 14.5 98t28.5 130l135 572h385
l-363 -1100h-381z" />
    <glyph glyph-name="x" unicode="x" horiz-adv-x="1157" 
d="M25 0l354 563l-336 537h391l107 -197q8 -14 17 -36.5t24 -65.5q10 30 20.5 55t22.5 47l104 197h406l-344 -551l356 -549h-397l-121 211q-11 19 -22 45.5t-21 56.5q-11 -33 -20.5 -57t-20.5 -45l-111 -211h-409z" />
    <glyph glyph-name="y" unicode="y" horiz-adv-x="1186" 
d="M403 -20l-393 1120h391l140 -498q19 -69 32.5 -143t20.5 -151q14 101 27.5 178t23.5 116l139 498h379l-516 -1508h-375z" />
    <glyph glyph-name="z" unicode="z" horiz-adv-x="1114" 
d="M1051 1100l-461 -813h411v-287h-960l455 813h-400v287h955z" />
    <glyph glyph-name="braceleft" unicode="{" 
d="M893 1477v-242q-7 0 -21 1t-20 1q-98 0 -132 -35.5t-34 -146.5v-240q0 -140 -46 -200t-165 -85q120 -24 165.5 -82.5t45.5 -199.5v-242q0 -110 33.5 -145t130.5 -35q7 0 21.5 1t21.5 1v-242q-15 0 -42 -1t-40 -1q-108 0 -179.5 12t-119.5 37q-59 32 -82.5 88.5
t-23.5 192.5v256q0 133 -49.5 187.5t-168.5 54.5q-4 0 -17 -1t-19 -1v241q6 0 18 -1t18 -1q118 0 168 55.5t50 188.5v254q0 136 24 193.5t82 89.5q48 25 120.5 37t180.5 12q12 0 38.5 -1t41.5 -1z" />
    <glyph glyph-name="bar" unicode="|" 
d="M393 1565h240v-2048h-240v2048z" />
    <glyph glyph-name="braceright" unicode="}" 
d="M133 1477q15 0 41.5 1t38.5 1q108 0 180 -12t121 -37q58 -32 82.5 -89.5t24.5 -193.5v-254q0 -134 49 -189t168 -55q6 0 18 1t18 1v-241q-6 0 -18 1t-18 1q-119 0 -168 -55t-49 -187v-256q0 -137 -24.5 -194.5t-82.5 -88.5q-45 -24 -113.5 -35.5t-177.5 -11.5
q-14 0 -44 1t-46 1v242q9 0 23 -1t20 -1q97 0 130.5 34.5t33.5 145.5v242q0 140 46 199t165 83q-120 25 -165.5 84t-45.5 201v240q0 111 -33.5 146.5t-126.5 35.5q-7 0 -22.5 -1t-24.5 -1v242z" />
    <glyph glyph-name="asciitilde" unicode="~" horiz-adv-x="1706" 
d="M1530 819v-254q-101 -69 -194 -103t-183 -34q-45 0 -89 7.5t-83 21.5q-13 4 -38 13q-255 89 -382 89q-84 0 -175.5 -37.5t-207.5 -120.5v254q112 73 207.5 108.5t179.5 35.5q63 0 126.5 -12t169.5 -46q16 -5 51 -17q159 -56 247 -56q84 0 173.5 36t197.5 115z" />
    <glyph glyph-name="Adieresis" unicode="&#xc4;" horiz-adv-x="1569" 
d="M6 0l537 1565h485l537 -1565h-416l-64 227h-602l-63 -227h-414zM573 522h422l-211 725zM835 1893q0 57 42.5 99t101.5 42t101 -41.5t42 -99.5q0 -63 -41 -104.5t-102 -41.5t-102.5 42.5t-41.5 103.5zM444 1893q0 57 43.5 99t101.5 42q60 0 101 -41t41 -100
q0 -63 -40 -104.5t-102 -41.5q-60 0 -102.5 42.5t-42.5 103.5z" />
    <glyph glyph-name="Aring" unicode="&#xc5;" horiz-adv-x="1569" 
d="M512 1903q0 113 79.5 192.5t192.5 79.5q114 0 193.5 -79.5t79.5 -192.5q0 -114 -79.5 -193.5t-193.5 -79.5t-193 79t-79 194zM670 1903q0 -49 33 -82t81 -33t81.5 33.5t33.5 81.5q0 47 -33.5 80.5t-81.5 33.5q-47 0 -80.5 -33.5t-33.5 -80.5zM6 0l537 1565h485l537 -1565
h-416l-64 227h-602l-63 -227h-414zM573 522h422l-211 725z" />
    <glyph glyph-name="Ccedilla" unicode="&#xc7;" horiz-adv-x="1583" 
d="M1249 1102q-65 72 -145.5 107.5t-175.5 35.5q-189 0 -309.5 -129.5t-120.5 -333.5t120.5 -333.5t309.5 -129.5q101 0 182.5 39t140.5 115l258 -262q-115 -120 -264.5 -181t-329.5 -61q-173 0 -321 58.5t-262 173.5q-114 112 -173 260t-59 321q0 174 59 323t173 261
q113 114 260.5 171.5t322.5 57.5q176 0 325 -59.5t263 -175.5zM659 -438v137q80 -22 149.5 -33.5t121.5 -11.5q43 0 64.5 17.5t21.5 54.5q0 32 -28.5 47.5t-90.5 15.5q-21 0 -33 -0.5t-22 -1.5v213h114v-84h19q111 0 170 -49.5t59 -142.5q0 -100 -66 -154.5t-188 -54.5
q-58 0 -130 11.5t-161 35.5z" />
    <glyph glyph-name="Eacute" unicode="&#xc9;" horiz-adv-x="1214" 
d="M176 0v1565h877v-303h-484v-320h484v-303h-484v-322h484v-317h-877zM934 2077l-325 -371h-154l192 371h287z" />
    <glyph glyph-name="Ntilde" unicode="&#xd1;" horiz-adv-x="1753" 
d="M176 0v1565h408l503 -789q41 -64 76 -129.5t64 -132.5q-19 84 -28 164t-9 160v727h387v-1565h-387l-535 799q-29 44 -63 107t-70 141q22 -68 32.5 -140t10.5 -149v-758h-389zM1209 2032q-30 -132 -82.5 -193t-136.5 -61q-19 0 -37.5 3t-38.5 9l-92 27q-23 6 -40 9t-28 3
q-33 0 -54.5 -18.5t-35.5 -59.5h-119q28 126 80.5 186t134.5 60q19 0 42 -3.5t48 -10.5l95 -29q12 -4 26 -6t31 -2q33 0 55 22t33 64h119z" />
    <glyph glyph-name="Odieresis" unicode="&#xd6;" horiz-adv-x="1835" 
d="M918 319q184 0 301.5 129.5t117.5 333.5t-117.5 333.5t-301.5 129.5q-185 0 -302.5 -129.5t-117.5 -333.5q0 -203 118 -333t302 -130zM918 1595q176 0 323 -58t262 -173q114 -112 173 -260t59 -322q0 -173 -59 -320t-173 -261t-262.5 -173t-322.5 -59t-323.5 59
t-262.5 173q-114 114 -173 261t-59 320t58.5 321t171.5 261q114 114 262.5 172.5t325.5 58.5zM969 1893q0 57 42.5 99t101.5 42t101 -41.5t42 -99.5q0 -63 -41 -104.5t-102 -41.5t-102.5 42.5t-41.5 103.5zM578 1893q0 57 43.5 99t101.5 42q60 0 101 -41t41 -100
q0 -63 -40 -104.5t-102 -41.5q-60 0 -102.5 42.5t-42.5 103.5z" />
    <glyph glyph-name="Udieresis" unicode="&#xdc;" horiz-adv-x="1608" 
d="M561 1565v-867q0 -203 57 -293t185 -90q129 0 186.5 89.5t57.5 293.5v867h393v-1004q0 -278 -169 -435t-468 -157t-468 157.5t-169 434.5v1004h395zM856 1893q0 57 42.5 99t101.5 42t101 -41.5t42 -99.5q0 -63 -41 -104.5t-102 -41.5t-102.5 42.5t-41.5 103.5zM465 1893
q0 57 43.5 99t101.5 42q60 0 101 -41t41 -100q0 -63 -40 -104.5t-102 -41.5q-60 0 -102.5 42.5t-42.5 103.5z" />
    <glyph glyph-name="aacute" unicode="&#xe1;" horiz-adv-x="1399" 
d="M670 254q98 0 165.5 84.5t67.5 212.5t-67.5 212.5t-165.5 84.5q-100 0 -166 -83.5t-66 -213.5q0 -129 66.5 -213t165.5 -84zM893 0v150q-31 -81 -107 -124.5t-186 -43.5q-108 0 -205 42t-172 121q-72 77 -109.5 180.5t-37.5 225.5q0 127 33.5 225.5t103.5 175.5
q75 82 172 125t205 43q109 0 188.5 -41.5t124.5 -122.5v144h344v-1100h-354zM1044 1581l-325 -371h-154l192 371h287z" />
    <glyph glyph-name="agrave" unicode="&#xe0;" horiz-adv-x="1399" 
d="M670 254q98 0 165.5 84.5t67.5 212.5t-67.5 212.5t-165.5 84.5q-100 0 -166 -83.5t-66 -213.5q0 -129 66.5 -213t165.5 -84zM893 0v150q-31 -81 -107 -124.5t-186 -43.5q-108 0 -205 42t-172 121q-72 77 -109.5 180.5t-37.5 225.5q0 127 33.5 225.5t103.5 175.5
q75 82 172 125t205 43q109 0 188.5 -41.5t124.5 -122.5v144h344v-1100h-354zM434 1581h287l192 -371h-154z" />
    <glyph glyph-name="acircumflex" unicode="&#xe2;" horiz-adv-x="1399" 
d="M670 254q98 0 165.5 84.5t67.5 212.5t-67.5 212.5t-165.5 84.5q-100 0 -166 -83.5t-66 -213.5q0 -129 66.5 -213t165.5 -84zM893 0v150q-31 -81 -107 -124.5t-186 -43.5q-108 0 -205 42t-172 121q-72 77 -109.5 180.5t-37.5 225.5q0 127 33.5 225.5t103.5 175.5
q75 82 172 125t205 43q109 0 188.5 -41.5t124.5 -122.5v144h344v-1100h-354zM417 1210l193 371h256l192 -371h-153l-166 199l-168 -199h-154z" />
    <glyph glyph-name="adieresis" unicode="&#xe4;" horiz-adv-x="1399" 
d="M670 254q98 0 165.5 84.5t67.5 212.5t-67.5 212.5t-165.5 84.5q-100 0 -166 -83.5t-66 -213.5q0 -129 66.5 -213t165.5 -84zM893 0v150q-31 -81 -107 -124.5t-186 -43.5q-108 0 -205 42t-172 121q-72 77 -109.5 180.5t-37.5 225.5q0 127 33.5 225.5t103.5 175.5
q75 82 172 125t205 43q109 0 188.5 -41.5t124.5 -122.5v144h344v-1100h-354zM790 1397q0 57 42.5 99t101.5 42t101 -41.5t42 -99.5q0 -63 -41 -104.5t-102 -41.5t-102.5 42.5t-41.5 103.5zM399 1397q0 57 43.5 99t101.5 42q60 0 101 -41t41 -100q0 -63 -40 -104.5
t-102 -41.5q-60 0 -102.5 42.5t-42.5 103.5z" />
    <glyph glyph-name="atilde" unicode="&#xe3;" horiz-adv-x="1399" 
d="M670 254q98 0 165.5 84.5t67.5 212.5t-67.5 212.5t-165.5 84.5q-100 0 -166 -83.5t-66 -213.5q0 -129 66.5 -213t165.5 -84zM893 0v150q-31 -81 -107 -124.5t-186 -43.5q-108 0 -205 42t-172 121q-72 77 -109.5 180.5t-37.5 225.5q0 127 33.5 225.5t103.5 175.5
q75 82 172 125t205 43q109 0 188.5 -41.5t124.5 -122.5v144h344v-1100h-354zM1071 1536q-30 -132 -82.5 -193t-136.5 -61q-19 0 -37.5 3t-38.5 9l-92 27q-23 6 -40 9t-28 3q-33 0 -54.5 -18.5t-35.5 -59.5h-119q28 126 80.5 186t134.5 60q19 0 42 -3.5t48 -10.5l95 -29
q12 -4 26 -6t31 -2q33 0 55 22t33 64h119z" />
    <glyph glyph-name="aring" unicode="&#xe5;" horiz-adv-x="1399" 
d="M614 1456q0 -48 33 -81.5t82 -33.5q48 0 81.5 34t33.5 81q0 48 -33.5 81.5t-81.5 33.5t-81.5 -33.5t-33.5 -81.5zM457 1456q0 114 79 193.5t193 79.5t193 -79.5t79 -193.5t-79 -193t-193 -79t-193 79t-79 193zM670 254q98 0 165.5 84.5t67.5 212.5t-67.5 212.5
t-165.5 84.5q-100 0 -166 -83.5t-66 -213.5q0 -129 66.5 -213t165.5 -84zM893 0v150q-31 -81 -107 -124.5t-186 -43.5q-108 0 -205 42t-172 121q-72 77 -109.5 180.5t-37.5 225.5q0 127 33.5 225.5t103.5 175.5q75 82 172 125t205 43q109 0 188.5 -41.5t124.5 -122.5v144
h344v-1100h-354z" />
    <glyph glyph-name="ccedilla" unicode="&#xe7;" horiz-adv-x="1176" 
d="M1124 162q-95 -97 -206.5 -143t-249.5 -46q-265 0 -428.5 159t-163.5 417t163.5 417.5t428.5 159.5q131 0 238 -40t196 -121l-213 -236q-41 47 -92.5 71.5t-106.5 24.5q-108 0 -180 -78t-72 -198t71.5 -197.5t180.5 -77.5q66 0 122 33t93 92zM403 -438v137
q80 -22 149.5 -33.5t121.5 -11.5q43 0 64.5 17.5t21.5 54.5q0 32 -28.5 47.5t-90.5 15.5q-21 0 -33 -0.5t-22 -1.5v213h114v-84h19q111 0 170 -49.5t59 -142.5q0 -100 -66 -154.5t-188 -54.5q-58 0 -130 11.5t-161 35.5z" />
    <glyph glyph-name="eacute" unicode="&#xe9;" horiz-adv-x="1352" 
d="M444 637h469q-13 106 -76 164.5t-163 58.5q-97 0 -159.5 -60.5t-70.5 -162.5zM1249 299q-69 -155 -217 -240.5t-348 -85.5q-274 0 -441 157t-167 413q0 261 164 422t432 161q285 0 444.5 -166.5t159.5 -463.5v-27l-827 -1q9 -102 72.5 -160t166.5 -58q75 0 130.5 30
t84.5 87zM981 1581l-325 -371h-154l192 371h287z" />
    <glyph glyph-name="egrave" unicode="&#xe8;" horiz-adv-x="1352" 
d="M444 637h469q-13 106 -76 164.5t-163 58.5q-97 0 -159.5 -60.5t-70.5 -162.5zM1249 299q-69 -155 -217 -240.5t-348 -85.5q-274 0 -441 157t-167 413q0 261 164 422t432 161q285 0 444.5 -166.5t159.5 -463.5v-27l-827 -1q9 -102 72.5 -160t166.5 -58q75 0 130.5 30
t84.5 87zM371 1581h287l192 -371h-154z" />
    <glyph glyph-name="ecircumflex" unicode="&#xea;" horiz-adv-x="1352" 
d="M444 637h469q-13 106 -76 164.5t-163 58.5q-97 0 -159.5 -60.5t-70.5 -162.5zM1249 299q-69 -155 -217 -240.5t-348 -85.5q-274 0 -441 157t-167 413q0 261 164 422t432 161q285 0 444.5 -166.5t159.5 -463.5v-27l-827 -1q9 -102 72.5 -160t166.5 -58q75 0 130.5 30
t84.5 87zM354 1210l193 371h256l192 -371h-153l-166 199l-168 -199h-154z" />
    <glyph glyph-name="edieresis" unicode="&#xeb;" horiz-adv-x="1352" 
d="M444 637h469q-13 106 -76 164.5t-163 58.5q-97 0 -159.5 -60.5t-70.5 -162.5zM1249 299q-69 -155 -217 -240.5t-348 -85.5q-274 0 -441 157t-167 413q0 261 164 422t432 161q285 0 444.5 -166.5t159.5 -463.5v-27l-827 -1q9 -102 72.5 -160t166.5 -58q75 0 130.5 30
t84.5 87zM727 1397q0 57 42.5 99t101.5 42t101 -41.5t42 -99.5q0 -63 -41 -104.5t-102 -41.5t-102.5 42.5t-41.5 103.5zM336 1397q0 57 43.5 99t101.5 42q60 0 101 -41t41 -100q0 -63 -40 -104.5t-102 -41.5q-60 0 -102.5 42.5t-42.5 103.5z" />
    <glyph glyph-name="iacute" unicode="&#xed;" horiz-adv-x="664" 
d="M152 0v1100h358v-1100h-358zM637 1581l-325 -371h-154l192 371h287z" />
    <glyph glyph-name="igrave" unicode="&#xec;" horiz-adv-x="664" 
d="M152 0v1100h358v-1100h-358zM27 1581h287l192 -371h-154z" />
    <glyph glyph-name="icircumflex" unicode="&#xee;" horiz-adv-x="664" 
d="M152 0v1100h358v-1100h-358zM10 1210l193 371h256l192 -371h-153l-166 199l-168 -199h-154z" />
    <glyph glyph-name="idieresis" unicode="&#xef;" horiz-adv-x="664" 
d="M152 0v1100h358v-1100h-358zM383 1397q0 57 42.5 99t101.5 42t101 -41.5t42 -99.5q0 -63 -41 -104.5t-102 -41.5t-102.5 42.5t-41.5 103.5zM-8 1397q0 57 43.5 99t101.5 42q60 0 101 -41t41 -100q0 -63 -40 -104.5t-102 -41.5q-60 0 -102.5 42.5t-42.5 103.5z" />
    <glyph glyph-name="ntilde" unicode="&#xf1;" horiz-adv-x="1294" 
d="M152 0v1100h342v-168q65 96 146.5 141t188.5 45q154 0 240 -97t86 -271v-750h-358v645q0 90 -33.5 132t-104.5 42q-73 0 -111 -52t-38 -153v-614h-358zM979 1536q-30 -132 -82.5 -193t-136.5 -61q-19 0 -37.5 3t-38.5 9l-92 27q-23 6 -40 9t-28 3q-33 0 -54.5 -18.5
t-35.5 -59.5h-119q28 126 80.5 186t134.5 60q19 0 42 -3.5t48 -10.5l95 -29q12 -4 26 -6t31 -2q33 0 55 22t33 64h119z" />
    <glyph glyph-name="oacute" unicode="&#xf3;" horiz-adv-x="1305" 
d="M651 -27q-257 0 -416 159.5t-159 416.5q0 258 158.5 417.5t416.5 159.5q257 0 416.5 -160t159.5 -417q0 -255 -160 -415.5t-416 -160.5zM651 274q96 0 154.5 75t58.5 200q0 126 -58 201t-155 75q-94 0 -153.5 -76.5t-59.5 -199.5q0 -124 59 -199.5t154 -75.5zM958 1581
l-325 -371h-154l192 371h287z" />
    <glyph glyph-name="ograve" unicode="&#xf2;" horiz-adv-x="1305" 
d="M651 -27q-257 0 -416 159.5t-159 416.5q0 258 158.5 417.5t416.5 159.5q257 0 416.5 -160t159.5 -417q0 -255 -160 -415.5t-416 -160.5zM651 274q96 0 154.5 75t58.5 200q0 126 -58 201t-155 75q-94 0 -153.5 -76.5t-59.5 -199.5q0 -124 59 -199.5t154 -75.5zM348 1581
h287l192 -371h-154z" />
    <glyph glyph-name="ocircumflex" unicode="&#xf4;" horiz-adv-x="1305" 
d="M651 -27q-257 0 -416 159.5t-159 416.5q0 258 158.5 417.5t416.5 159.5q257 0 416.5 -160t159.5 -417q0 -255 -160 -415.5t-416 -160.5zM651 274q96 0 154.5 75t58.5 200q0 126 -58 201t-155 75q-94 0 -153.5 -76.5t-59.5 -199.5q0 -124 59 -199.5t154 -75.5zM331 1210
l193 371h256l192 -371h-153l-166 199l-168 -199h-154z" />
    <glyph glyph-name="odieresis" unicode="&#xf6;" horiz-adv-x="1305" 
d="M651 -27q-257 0 -416 159.5t-159 416.5q0 258 158.5 417.5t416.5 159.5q257 0 416.5 -160t159.5 -417q0 -255 -160 -415.5t-416 -160.5zM651 274q96 0 154.5 75t58.5 200q0 126 -58 201t-155 75q-94 0 -153.5 -76.5t-59.5 -199.5q0 -124 59 -199.5t154 -75.5zM704 1397
q0 57 42.5 99t101.5 42t101 -41.5t42 -99.5q0 -63 -41 -104.5t-102 -41.5t-102.5 42.5t-41.5 103.5zM313 1397q0 57 43.5 99t101.5 42q60 0 101 -41t41 -100q0 -63 -40 -104.5t-102 -41.5q-60 0 -102.5 42.5t-42.5 103.5z" />
    <glyph glyph-name="otilde" unicode="&#xf5;" horiz-adv-x="1305" 
d="M651 -27q-257 0 -416 159.5t-159 416.5q0 258 158.5 417.5t416.5 159.5q257 0 416.5 -160t159.5 -417q0 -255 -160 -415.5t-416 -160.5zM651 274q96 0 154.5 75t58.5 200q0 126 -58 201t-155 75q-94 0 -153.5 -76.5t-59.5 -199.5q0 -124 59 -199.5t154 -75.5zM985 1536
q-30 -132 -82.5 -193t-136.5 -61q-19 0 -37.5 3t-38.5 9l-92 27q-23 6 -40 9t-28 3q-33 0 -54.5 -18.5t-35.5 -59.5h-119q28 126 80.5 186t134.5 60q19 0 42 -3.5t48 -10.5l95 -29q12 -4 26 -6t31 -2q33 0 55 22t33 64h119z" />
    <glyph glyph-name="uacute" unicode="&#xfa;" horiz-adv-x="1280" 
d="M500 1100v-658q0 -86 35.5 -131t103.5 -45q69 0 105 45t36 131v658h359v-694q0 -205 -131.5 -319t-368.5 -114t-367.5 113.5t-130.5 319.5v694h359zM946 1581l-325 -371h-154l192 371h287z" />
    <glyph glyph-name="ugrave" unicode="&#xf9;" horiz-adv-x="1280" 
d="M500 1100v-658q0 -86 35.5 -131t103.5 -45q69 0 105 45t36 131v658h359v-694q0 -205 -131.5 -319t-368.5 -114t-367.5 113.5t-130.5 319.5v694h359zM336 1581h287l192 -371h-154z" />
    <glyph glyph-name="ucircumflex" unicode="&#xfb;" horiz-adv-x="1280" 
d="M500 1100v-658q0 -86 35.5 -131t103.5 -45q69 0 105 45t36 131v658h359v-694q0 -205 -131.5 -319t-368.5 -114t-367.5 113.5t-130.5 319.5v694h359zM319 1210l193 371h256l192 -371h-153l-166 199l-168 -199h-154z" />
    <glyph glyph-name="udieresis" unicode="&#xfc;" horiz-adv-x="1280" 
d="M500 1100v-658q0 -86 35.5 -131t103.5 -45q69 0 105 45t36 131v658h359v-694q0 -205 -131.5 -319t-368.5 -114t-367.5 113.5t-130.5 319.5v694h359zM692 1397q0 57 42.5 99t101.5 42t101 -41.5t42 -99.5q0 -63 -41 -104.5t-102 -41.5t-102.5 42.5t-41.5 103.5zM301 1397
q0 57 43.5 99t101.5 42q60 0 101 -41t41 -100q0 -63 -40 -104.5t-102 -41.5q-60 0 -102.5 42.5t-42.5 103.5z" />
    <glyph glyph-name="dagger" unicode="&#x2020;" 
d="M459 -133q-8 311 -30 526.5t-58 339.5q24 55 46.5 138t47.5 210l-350 -100l2 281l348 -95l-96 428h286l-96 -428l348 95l2 -281l-350 100q25 -127 47.5 -210t46.5 -138q-35 -110 -58 -328t-32 -538h-104z" />
    <glyph glyph-name="degree" unicode="&#xb0;" horiz-adv-x="674" 
d="M338 1321q-69 0 -117.5 -48t-48.5 -116q0 -70 48 -118t118 -48q68 0 116 49t48 117t-48 116t-116 48zM338 1466q129 0 220 -91t91 -220q0 -128 -91.5 -219.5t-221.5 -91.5q-129 0 -219 90.5t-90 220.5q0 131 90.5 221t220.5 90z" />
    <glyph glyph-name="cent" unicode="&#xa2;" horiz-adv-x="1266" 
d="M1165 393q-80 -80 -170.5 -125t-195.5 -57v-238h-219v246q-213 37 -338 189t-125 374t122.5 371.5t340.5 192.5v245h219v-237q100 -12 184.5 -51t159.5 -107l-213 -235q-41 46 -92.5 71t-106.5 25q-108 0 -179 -78t-71 -199q0 -120 71 -197t179 -77q66 0 122 32.5
t93 92.5z" />
    <glyph glyph-name="sterling" unicode="&#xa3;" horiz-adv-x="1266" 
d="M90 238q142 66 206 143t64 178q0 13 -5 52q-2 13 -3 20h-284v217h178q-50 71 -74.5 140.5t-24.5 139.5q0 205 148 334t385 129q251 0 391 -142t141 -396h-340v18q0 113 -51 173.5t-145 60.5q-82 0 -133 -50t-51 -129q0 -61 72 -187q33 -58 50 -91h428v-217h-360
q-2 -122 -44.5 -211t-123.5 -141q51 17 97 25.5t87 8.5q46 0 120.5 -13t103.5 -13q56 0 115 20.5t128 65.5l105 -289q-83 -56 -168.5 -84.5t-171.5 -28.5q-67 0 -210.5 33t-219.5 33q-63 0 -127 -16.5t-137 -51.5z" />
    <glyph glyph-name="section" unicode="&#xa7;" 
d="M735 381q42 -56 61 -107t19 -104q0 -141 -86 -223t-235 -82q-105 0 -195.5 51t-175.5 158l188 149q68 -83 100 -107t66 -24q38 0 61 21.5t23 56.5q0 29 -26.5 71t-79.5 97l-199 201q-109 111 -145.5 182t-36.5 153q0 96 54 162t153 90q-38 59 -55 107.5t-17 95.5
q0 120 87 193t230 73q103 0 185 -46t157 -146l-184 -137q-46 56 -83.5 83t-70.5 27q-31 0 -49 -18t-18 -49q0 -44 134 -181q5 -5 7 -8l152 -153q123 -128 156.5 -192.5t33.5 -135.5q0 -99 -55 -166.5t-156 -91.5zM621 559q30 0 51.5 19t21.5 45q0 28 -27 68.5t-89 107.5
q-76 78 -123.5 114.5t-73.5 36.5q-29 0 -48.5 -19t-19.5 -48q0 -28 27 -68t94 -110q76 -79 118.5 -112.5t68.5 -33.5z" />
    <glyph glyph-name="bullet" unicode="&#x2022;" horiz-adv-x="1208" 
d="M307 762q0 123 87 209t210 86q122 0 208.5 -86.5t86.5 -208.5t-87.5 -209.5t-209.5 -87.5q-123 0 -209 87t-86 210z" />
    <glyph glyph-name="paragraph" unicode="&#xb6;" 
d="M997 1479v-123h-106v-1356h-176v1356h-150v-1356h-174v784q-164 6 -263 101t-99 245q0 158 106 253.5t283 95.5h579z" />
    <glyph glyph-name="germandbls" unicode="&#xdf;" horiz-adv-x="1346" 
d="M174 0v813h-98v287h98v78q0 189 125 295t348 106q228 0 365 -108t137 -285q0 -123 -57 -192.5t-170 -86.5q155 -11 242 -125.5t87 -308.5q0 -232 -128.5 -366t-352.5 -134q-44 0 -84.5 7t-77.5 20l45 295q23 -6 41.5 -9t32.5 -3q76 0 120 58t44 161q0 102 -56.5 165.5
t-146.5 63.5h-35v289h31q52 0 86.5 39t34.5 100t-40.5 101t-100.5 40q-67 0 -103.5 -40.5t-36.5 -114.5v-1145h-350z" />
    <glyph glyph-name="registered" unicode="&#xae;" horiz-adv-x="1706" 
d="M762 1022v-219h80q74 0 110.5 26.5t36.5 79.5q0 59 -38 86t-122 27h-67zM537 1163h329q174 0 264.5 -60t90.5 -177q0 -81 -46 -139t-128 -82l182 -361h-248l-154 326h-65v-326h-225v819zM854 1350q-124 0 -232 -44t-194 -128q-90 -90 -137 -203t-47 -238q0 -121 44 -229
t130 -195q87 -90 199 -138t235 -48q121 0 232.5 45.5t199.5 130.5t134 196.5t46 237.5q0 124 -44 233.5t-128 194.5q-89 91 -200.5 138t-237.5 47zM852 1485q156 0 294 -57.5t245 -167.5q101 -104 154.5 -238t53.5 -285q0 -155 -56.5 -291t-164.5 -239q-109 -105 -245 -161
t-281 -56q-151 0 -287 58t-243 169q-105 108 -160.5 241.5t-55.5 278.5q0 151 59 290t169 247q105 104 237 157.5t281 53.5z" />
    <glyph glyph-name="copyright" unicode="&#xa9;" horiz-adv-x="1706" 
d="M1221 891h-213q-7 67 -47.5 104t-108.5 37q-83 0 -129.5 -77t-46.5 -216q0 -140 47.5 -212t138.5 -72q67 0 106.5 40.5t45.5 114.5h215q-6 -143 -107.5 -230t-263.5 -87q-190 0 -301 117.5t-111 320.5q0 207 111 329t299 122q157 0 257 -80t108 -211zM854 1350
q-126 0 -235 -45.5t-195 -133.5q-88 -89 -135 -201t-47 -233q0 -119 47 -230.5t135 -199.5q87 -87 198 -133.5t232 -46.5t234 47t202 135q86 84 130 193t44 235q0 125 -45 235.5t-131 196.5q-88 89 -198.5 135t-235.5 46zM852 1485q154 0 289.5 -56t242.5 -163
q106 -106 160.5 -240.5t54.5 -288.5q0 -153 -54 -287t-159 -237q-109 -108 -247 -165.5t-287 -57.5q-148 0 -283.5 57t-242.5 164t-163.5 241.5t-56.5 284.5q0 148 57.5 285t164.5 246q105 106 238 161.5t286 55.5z" />
    <glyph glyph-name="trademark" unicode="&#x2122;" horiz-adv-x="1706" 
d="M797 1464h223l113 -303l114 303h221v-551h-155v390l-146 -390h-65l-150 390v-390h-155v551zM188 1464h502v-127h-164v-424h-174v424h-164v127z" />
    <glyph glyph-name="acute" unicode="&#xb4;" 
d="M817 1581l-325 -371h-154l192 371h287z" />
    <glyph glyph-name="dieresis" unicode="&#xa8;" 
d="M563 1397q0 57 42.5 99t101.5 42t101 -41.5t42 -99.5q0 -63 -41 -104.5t-102 -41.5t-102.5 42.5t-41.5 103.5zM172 1397q0 57 43.5 99t101.5 42q60 0 101 -41t41 -100q0 -63 -40 -104.5t-102 -41.5q-60 0 -102.5 42.5t-42.5 103.5z" />
    <glyph glyph-name="notequal" unicode="&#x2260;" horiz-adv-x="1706" 
d="M1194 1251l168 -137l-135 -168h225v-221h-377l-180 -227h557v-222h-704l-246 -307l-170 137l135 170h-213v222h360l183 227h-543v221h694z" />
    <glyph glyph-name="AE" unicode="&#xc6;" horiz-adv-x="1997" 
d="M1835 1565v-303h-483v-320h483v-303h-483v-322h483v-317h-840v227h-512l-100 -227h-377l692 1565h1137zM614 522h381v852z" />
    <glyph glyph-name="Oslash" unicode="&#xd8;" horiz-adv-x="1835" 
d="M254 -8l121 180q-138 119 -206.5 271.5t-68.5 338.5q0 174 59 322t173 262q112 112 261.5 170.5t324.5 58.5q96 0 185 -21.5t175 -66.5l125 185l176 -119l-121 -180q138 -120 207.5 -273t69.5 -338q0 -114 -27 -220t-80 -197q-108 -190 -293 -293t-417 -103
q-98 0 -187.5 22t-175.5 66l-125 -184zM1251 1085l-501 -739q30 -13 66 -20t77 -7q202 0 322 126t120 337q0 88 -20.5 163.5t-63.5 139.5zM582 479l503 743q-38 12 -77 17.5t-80 5.5q-194 0 -312 -127t-118 -336q0 -88 20.5 -162.5t63.5 -140.5z" />
    <glyph glyph-name="infinity" unicode="&#x221e;" horiz-adv-x="1706" 
d="M956 561q43 -67 102 -101t132 -34q90 0 146.5 50.5t56.5 129.5q0 77 -51.5 127.5t-127.5 50.5q-72 0 -131.5 -50.5t-126.5 -172.5zM752 657q-43 67 -101 100.5t-133 33.5q-90 0 -146.5 -50t-56.5 -129q0 -77 51 -127.5t128 -50.5q71 0 132 52.5t126 170.5zM856 442
q-68 -130 -147.5 -193t-176.5 -63q-139 0 -238 121.5t-99 300.5q0 188 87.5 305t227.5 117q90 0 166.5 -56.5t175.5 -199.5q71 132 150 195t174 63q140 0 238.5 -121t98.5 -301q0 -189 -87.5 -306.5t-227.5 -117.5q-91 0 -166 55t-176 201z" />
    <glyph glyph-name="plusminus" unicode="&#xb1;" horiz-adv-x="1706" 
d="M254 213h1198v-231h-1198v231zM735 1241h238v-319h479v-232h-479v-319h-238v319h-481v232h481v319z" />
    <glyph glyph-name="lessequal" unicode="&#x2264;" horiz-adv-x="1706" 
d="M256 213h1196v-229h-1196v229zM1450 1257v-239l-776 -240l776 -239v-240l-1194 379v201z" />
    <glyph glyph-name="greaterequal" unicode="&#x2265;" horiz-adv-x="1706" 
d="M256 213h1196v-229h-1196v229zM258 1257l1192 -378v-201l-1192 -379v240l776 239l-776 240v239z" />
    <glyph glyph-name="yen" unicode="&#xa5;" horiz-adv-x="1266" 
d="M1311 1565l-240 -414h221v-170h-319l-107 -184h426v-170h-477v-627h-366v627h-478v170h424l-108 184h-316v170h217l-235 414h387l293 -611l293 611h385z" />
    <glyph glyph-name="mu" unicode="&#xb5;" horiz-adv-x="1315" 
d="M193 1090h358l-80 -529q-6 -41 -9 -77.5t-3 -65.5q0 -85 35.5 -127.5t107.5 -42.5q88 0 138.5 68.5t74.5 220.5l88 553h357l-175 -1090h-321l18 125q-40 -75 -89.5 -108t-119.5 -33q-59 0 -106.5 31t-77.5 89l-82 -532h-352z" />
    <glyph glyph-name="partialdiff" unicode="&#x2202;" horiz-adv-x="1114" 
d="M766 684q21 113 32 206t11 150q0 87 -29.5 148t-68.5 61q-35 0 -132 -93t-180 -93q-48 0 -80 33.5t-32 83.5q0 69 93 125.5t220 56.5q210 0 332.5 -161t122.5 -441q0 -344 -162.5 -564.5t-417.5 -220.5q-182 0 -299 116.5t-117 299.5q0 203 119.5 336t298.5 133
q101 0 170.5 -42.5t118.5 -133.5zM698 532q0 114 -36.5 176t-104.5 62q-96 0 -160.5 -136.5t-64.5 -346.5q0 -116 36.5 -176t106.5 -60q97 0 160 135.5t63 345.5z" />
    <glyph glyph-name="summation" unicode="&#x2211;" horiz-adv-x="1520" 
d="M72 1473h1335v-302h-838l596 -608l-587 -651h895v-305h-1424v184l684 756l-661 665v261z" />
    <glyph glyph-name="product" unicode="&#x220f;" horiz-adv-x="1645" 
d="M145 1473h1348v-1866h-399v1532h-549v-1532h-400v1866z" />
    <glyph glyph-name="pi" unicode="&#x3c0;" horiz-adv-x="1530" 
d="M1538 1090l-39 -232h-178l-135 -858h-357l134 858h-232l-135 -858h-354l133 858h-27q-42 0 -70.5 -35.5t-35.5 -97.5h-236q33 209 124.5 287t311.5 78h1096z" />
    <glyph glyph-name="integral" unicode="&#x222b;" horiz-adv-x="1249" 
d="M362 -248q99 0 119 667q3 101 4 154q17 523 130.5 753t349.5 230q105 0 170 -53t65 -137q0 -64 -41 -103.5t-106 -39.5q-64 0 -96.5 38.5t-32.5 112.5q0 38 -7.5 49t-25.5 11q-101 0 -124 -667q-2 -60 -3 -91q-11 -329 -30.5 -472.5t-57.5 -244.5q-62 -166 -159.5 -249
t-229.5 -83q-107 0 -171.5 52t-64.5 139q0 65 42 104t112 39q60 0 92.5 -36t32.5 -103q0 -12 -2 -23v-4q-1 -23 7 -32.5t27 -10.5z" />
    <glyph glyph-name="ordfeminine" unicode="&#xaa;" horiz-adv-x="1049" 
d="M502 973q74 0 125 58.5t51 148.5q0 89 -51 149t-125 60t-123 -59t-49 -150t49 -149t123 -58zM678 795v104q-30 -57 -88.5 -87t-138.5 -30q-83 0 -155 29.5t-128 85.5q-54 54 -82.5 126.5t-28.5 156.5q0 89 25 158t78 124q56 57 129 87t153 30q82 0 142 -29t94 -86v101
h258v-770h-258z" />
    <glyph glyph-name="ordmasculine" unicode="&#xba;" horiz-adv-x="979" 
d="M489 776q-193 0 -312.5 112t-119.5 292t119.5 291.5t312.5 111.5q192 0 311.5 -112t119.5 -291q0 -180 -119.5 -292t-311.5 -112zM489 987q73 0 116.5 52.5t43.5 140.5q0 87 -43.5 139.5t-116.5 52.5q-70 0 -114.5 -53t-44.5 -139q0 -88 43.5 -140.5t115.5 -52.5z" />
    <glyph glyph-name="Omega" unicode="&#x3a9;" horiz-adv-x="1645" 
d="M1266 307h333v-307h-636v352q92 82 142 196.5t50 246.5q0 182 -90 288.5t-244 106.5q-153 0 -243.5 -107.5t-90.5 -289.5q0 -132 50 -246.5t143 -194.5v-352h-635v307h332q-132 95 -200 229.5t-68 299.5q0 303 195.5 489t516.5 186q323 0 518 -185t195 -490
q0 -165 -68 -299.5t-200 -229.5z" />
    <glyph glyph-name="ae" unicode="&#xe6;" horiz-adv-x="2114" 
d="M1208 637h469q-14 106 -76.5 164.5t-162.5 58.5q-98 0 -160 -60.5t-70 -162.5zM674 254q100 0 167.5 84t67.5 213q0 130 -67 213.5t-168 83.5t-168.5 -83.5t-67.5 -213.5q0 -129 67.5 -213t168.5 -84zM893 0v150q-31 -81 -107 -124.5t-186 -43.5q-108 0 -205 42t-172 121
q-72 77 -109.5 180.5t-37.5 225.5q0 127 33.5 225.5t103.5 175.5q75 82 172 125t205 43t188 -41.5t125 -122.5v144h295v-144q45 80 125 122t186 42q157 0 282 -88.5t204 -257.5q22 -48 33.5 -121.5t11.5 -163.5v-20l-830 -1q10 -102 74.5 -160t167.5 -58q75 0 130.5 30
t84.5 87l346 -68q-67 -148 -204 -232.5t-308 -84.5q-109 0 -184.5 43.5t-106.5 124.5v-150h-317z" />
    <glyph glyph-name="oslash" unicode="&#xf8;" horiz-adv-x="1305" 
d="M256 127q-91 82 -135.5 186t-44.5 236q0 258 158.5 417.5t416.5 159.5q62 0 122 -14.5t122 -44.5l106 164l150 -101l-104 -159q91 -82 135.5 -186t44.5 -236q0 -257 -159.5 -416.5t-416.5 -159.5q-63 0 -123.5 14.5t-119.5 43.5l-107 -162l-149 100zM864 713l-307 -457
q13 -6 27.5 -9t36.5 -3q127 0 196.5 83.5t69.5 237.5q0 44 -5.5 80t-17.5 68zM436 385l309 456q-20 8 -39.5 11.5t-39.5 3.5q-111 0 -180.5 -85.5t-69.5 -223.5q0 -36 4.5 -74.5t15.5 -87.5z" />
    <glyph glyph-name="questiondown" unicode="&#xbf;" horiz-adv-x="1090" 
d="M793 1010v-107q0 -71 -23.5 -125t-77.5 -106q-35 -34 -100 -89q-143 -120 -143 -202q0 -54 32.5 -84.5t91.5 -30.5q62 0 97 39t35 109v6h346v-25q0 -197 -130.5 -311.5t-357.5 -114.5q-222 0 -355.5 114.5t-133.5 301.5q0 115 53 206t172 179q16 12 45 30q90 58 90 146
v64h359zM811 1395q0 -83 -59 -143t-142 -60q-84 0 -143 59t-59 144q0 83 59.5 141.5t142.5 58.5q82 0 141.5 -59.5t59.5 -140.5z" />
    <glyph glyph-name="exclamdown" unicode="&#xa1;" horiz-adv-x="635" 
d="M139 0v1042h357v-1042h-357zM518 1395q0 -83 -59 -143t-142 -60q-84 0 -142 59t-58 144q0 83 59 141.5t141 58.5t141.5 -59.5t59.5 -140.5z" />
    <glyph glyph-name="logicalnot" unicode="&#xac;" horiz-adv-x="1706" 
d="M254 866h1198v-501h-229v274h-969v227z" />
    <glyph glyph-name="radical" unicode="&#x221a;" horiz-adv-x="1366" 
d="M1155 1714h215v-149h-96l-590 -1606h-119l-307 846l-145 -55l-37 129l360 127l223 -635z" />
    <glyph glyph-name="florin" unicode="&#x192;" horiz-adv-x="1266" 
d="M494 1092q58 267 161 383t279 116q44 0 98.5 -7t124.5 -21l-61 -283q-32 6 -55 9t-35 3q-60 0 -91.5 -37.5t-54.5 -146.5l-18 -84h252v-217h-297l-162 -748q-58 -267 -160.5 -382t-277.5 -115q-49 0 -105.5 6.5t-118.5 19.5l60 283q31 -6 54 -9t36 -3q59 0 90.5 38
t54.5 148l164 762h-231v217h278z" />
    <glyph glyph-name="approxequal" unicode="&#x2248;" horiz-adv-x="1706" 
d="M1530 602v-254q-105 -71 -196 -104t-181 -33t-283 65.5t-309 65.5q-82 0 -172.5 -37t-210.5 -121v254q111 74 209 109t195 35q115 0 304.5 -65.5t272.5 -65.5t170 35t201 116zM1530 1036v-254q-107 -70 -197 -102.5t-178 -32.5q-91 0 -284 64.5t-310 64.5q-84 0 -172 -36
t-211 -122v256q112 74 209 108t195 34q115 0 304.5 -65.5t272.5 -65.5t170.5 35.5t200.5 115.5z" />
    <glyph glyph-name="Delta" unicode="&#x2206;" horiz-adv-x="1468" 
d="M733 1059l-262 -774h526zM537 1473h395l541 -1473h-1475z" />
    <glyph glyph-name="guillemotleft" unicode="&#xab;" horiz-adv-x="1290" 
d="M881 152l-240 399l240 397h297l-240 -397l240 -399h-297zM358 152l-239 399l239 397h297l-237 -397l237 -399h-297z" />
    <glyph glyph-name="guillemotright" unicode="&#xbb;" horiz-adv-x="1290" 
d="M410 948l239 -397l-239 -399h-297l237 399l-237 397h297zM932 948l237 -397l-237 -399h-299l239 399l-239 397h299z" />
    <glyph glyph-name="ellipsis" unicode="&#x2026;" horiz-adv-x="2048" 
d="M543 170q0 -83 -58.5 -142t-142.5 -59t-142 58.5t-58 142.5t59 143.5t141 59.5q81 0 141 -60.5t60 -142.5zM1225 170q0 -83 -58.5 -142t-142.5 -59t-142 58.5t-58 142.5t59 143.5t141 59.5q81 0 141 -60.5t60 -142.5zM1909 170q0 -83 -58.5 -142t-142.5 -59t-142 58.5
t-58 142.5t59 143.5t141 59.5q81 0 141 -60.5t60 -142.5z" />
    <glyph glyph-name="nonbreakingspace" unicode="&#xa0;" horiz-adv-x="1266" 
 />
    <glyph glyph-name="Agrave" unicode="&#xc0;" horiz-adv-x="1569" 
d="M6 0l537 1565h485l537 -1565h-416l-64 227h-602l-63 -227h-414zM573 522h422l-211 725zM479 2077h287l192 -371h-154z" />
    <glyph glyph-name="Atilde" unicode="&#xc3;" horiz-adv-x="1569" 
d="M6 0l537 1565h485l537 -1565h-416l-64 227h-602l-63 -227h-414zM573 522h422l-211 725zM1116 2032q-30 -132 -82.5 -193t-136.5 -61q-19 0 -37.5 3t-38.5 9l-92 27q-23 6 -40 9t-28 3q-33 0 -54.5 -18.5t-35.5 -59.5h-119q28 126 80.5 186t134.5 60q19 0 42 -3.5
t48 -10.5l95 -29q12 -4 26 -6t31 -2q33 0 55 22t33 64h119z" />
    <glyph glyph-name="Otilde" unicode="&#xd5;" horiz-adv-x="1835" 
d="M918 319q184 0 301.5 129.5t117.5 333.5t-117.5 333.5t-301.5 129.5q-185 0 -302.5 -129.5t-117.5 -333.5q0 -203 118 -333t302 -130zM918 1595q176 0 323 -58t262 -173q114 -112 173 -260t59 -322q0 -173 -59 -320t-173 -261t-262.5 -173t-322.5 -59t-323.5 59
t-262.5 173q-114 114 -173 261t-59 320t58.5 321t171.5 261q114 114 262.5 172.5t325.5 58.5zM1250 2032q-30 -132 -82.5 -193t-136.5 -61q-19 0 -37.5 3t-38.5 9l-92 27q-23 6 -40 9t-28 3q-33 0 -54.5 -18.5t-35.5 -59.5h-119q28 126 80.5 186t134.5 60q19 0 42 -3.5
t48 -10.5l95 -29q12 -4 26 -6t31 -2q33 0 55 22t33 64h119z" />
    <glyph glyph-name="OE" unicode="&#x152;" horiz-adv-x="2304" 
d="M1284 0v180q-79 -104 -182.5 -152t-245.5 -48q-145 0 -281 56.5t-243 162.5q-114 113 -173 261.5t-59 321.5t59.5 322.5t174.5 263.5q108 107 244.5 162t291.5 55q135 0 237.5 -49t176.5 -150v179h860v-303h-483v-320h483v-303h-483v-322h483v-317h-860zM1284 782
q0 206 -102.5 334.5t-263.5 128.5q-185 0 -302.5 -129.5t-117.5 -333.5q0 -203 118 -333t302 -130q161 0 263.5 129t102.5 334z" />
    <glyph glyph-name="oe" unicode="&#x153;" horiz-adv-x="2099" 
d="M1196 637h467q-14 106 -77 164.5t-163 58.5q-96 0 -157.5 -60t-69.5 -163zM1999 299q-70 -155 -218 -240.5t-347 -85.5q-139 0 -238.5 50t-167.5 153q-60 -100 -158.5 -151.5t-230.5 -51.5q-248 0 -405.5 161t-157.5 415q0 258 158.5 417.5t416.5 159.5q125 0 221 -50.5
t158 -149.5q74 103 175 151.5t239 48.5q268 0 424.5 -169.5t156.5 -460.5v-27l-827 -1q10 -102 74 -160t168 -58q74 0 130 30t85 87zM651 274q92 0 152.5 77t60.5 198t-60.5 198.5t-152.5 77.5q-90 0 -151.5 -78t-61.5 -198t61 -197.5t152 -77.5z" />
    <glyph glyph-name="endash" unicode="&#x2013;" 
d="M0 477v236h1024v-236h-1024z" />
    <glyph glyph-name="emdash" unicode="&#x2014;" horiz-adv-x="2048" 
d="M0 713h2048v-236h-2048v236z" />
    <glyph glyph-name="quotedblleft" unicode="&#x201c;" horiz-adv-x="1204" 
d="M121 1081l137 514l281 -41l-84 -520zM690 1081l137 514l281 -41l-84 -520z" />
    <glyph glyph-name="quotedblright" unicode="&#x201d;" horiz-adv-x="1204" 
d="M1108 1548l-137 -514l-281 41l84 520zM539 1548l-138 -514l-280 41l86 520z" />
    <glyph glyph-name="quoteleft" unicode="&#x2018;" horiz-adv-x="635" 
d="M121 1081l137 514l283 -41l-86 -520z" />
    <glyph glyph-name="quoteright" unicode="&#x2019;" horiz-adv-x="635" 
d="M539 1546l-138 -514l-280 43l86 520z" />
    <glyph glyph-name="divide" unicode="&#xf7;" horiz-adv-x="1706" 
d="M854 371q68 0 116 -48.5t48 -117.5q0 -68 -47.5 -116t-116.5 -48t-117.5 48t-48.5 116t49 117t117 49zM254 727h1198v-231h-1198v231zM854 1182q67 0 115.5 -49t48.5 -117t-48.5 -116t-117.5 -48t-116.5 48t-47.5 116t49 117t117 49z" />
    <glyph glyph-name="lozenge" unicode="&#x25ca;" horiz-adv-x="1012" 
d="M506 1409l-385 -817l385 -825l385 825zM506 1653l500 -1061l-500 -1069l-500 1069z" />
    <glyph glyph-name="ydieresis" unicode="&#xff;" horiz-adv-x="1186" 
d="M403 -20l-393 1120h391l140 -498q19 -69 32.5 -143t20.5 -151q14 101 27.5 178t23.5 116l139 498h379l-516 -1508h-375zM645 1397q0 57 42.5 99t101.5 42t101 -41.5t42 -99.5q0 -63 -41 -104.5t-102 -41.5t-102.5 42.5t-41.5 103.5zM254 1397q0 57 43.5 99t101.5 42
q60 0 101 -41t41 -100q0 -63 -40 -104.5t-102 -41.5q-60 0 -102.5 42.5t-42.5 103.5z" />
    <glyph glyph-name="Ydieresis" unicode="&#x178;" horiz-adv-x="1319" 
d="M461 0v705l-496 860h443l202 -428q13 -25 25.5 -55.5t23.5 -63.5q14 39 26 69.5t21 48.5l203 429h443l-496 -860v-705h-395zM710 1893q0 57 42.5 99t101.5 42t101 -41.5t42 -99.5q0 -63 -41 -104.5t-102 -41.5t-102.5 42.5t-41.5 103.5zM319 1893q0 57 43.5 99t101.5 42
q60 0 101 -41t41 -100q0 -63 -40 -104.5t-102 -41.5q-60 0 -102.5 42.5t-42.5 103.5z" />
    <glyph glyph-name="fraction" unicode="&#x2215;" horiz-adv-x="342" 
d="M455 1591h227l-797 -1618h-227z" />
    <glyph glyph-name="currency" unicode="&#xa4;" horiz-adv-x="1241" 
d="M623 1145q-107 0 -184 -77t-77 -183q0 -108 76 -184t185 -76q107 0 183.5 76t76.5 184q0 106 -76.5 183t-183.5 77zM178 1444l203 -201q54 37 113.5 55.5t126.5 18.5q69 0 130 -18.5t113 -55.5l201 201l119 -117l-201 -205q35 -53 52.5 -112t17.5 -125t-17.5 -125.5
t-52.5 -112.5l201 -203l-119 -118l-201 202q-52 -37 -111.5 -55t-129.5 -18t-128.5 17.5t-113.5 55.5l-203 -202l-117 118l201 203q-36 54 -54 113t-18 125q0 67 18.5 126.5t53.5 110.5l-201 205z" />
    <glyph glyph-name="guilsinglleft" unicode="&#x2039;" horiz-adv-x="770" 
d="M358 152l-239 399l239 397h295l-237 -397l237 -399h-295z" />
    <glyph glyph-name="guilsinglright" unicode="&#x203a;" horiz-adv-x="770" 
d="M412 948l239 -397l-239 -399h-297l239 399l-239 397h297z" />
    <glyph glyph-name="fi" unicode="&#xf001;" horiz-adv-x="1346" 
d="M817 1384q0 81 57 138t138 57t137.5 -56.5t56.5 -138.5q0 -80 -57 -137t-137 -57q-79 0 -137 58t-58 136zM831 0v1100h359v-1100h-359zM186 0v813h-125v287h125v123q0 173 111 264.5t321 91.5h80v-309h-24q-68 0 -98.5 -26.5t-30.5 -86.5v-57h153v-287h-153v-813h-359z
" />
    <glyph glyph-name="fl" unicode="&#xf002;" horiz-adv-x="1343" 
d="M831 0v1565h359v-1565h-359zM186 0v813h-125v287h125v123q0 173 111 264.5t321 91.5h80v-309h-24q-68 0 -98.5 -26.5t-30.5 -86.5v-57h153v-287h-153v-813h-359z" />
    <glyph glyph-name="daggerdbl" unicode="&#x2021;" 
d="M371 733q24 55 46.5 138t47.5 210l-350 -100l2 281l348 -95l-96 428h286l-96 -428l348 95l2 -281l-350 100q25 -127 47.5 -210t46.5 -138q-28 -66 -51.5 -154t-42.5 -198l350 100l-2 -280l-348 94l96 -428h-286l96 428l-348 -94l-2 280l350 -100q-19 110 -42.5 198
t-51.5 154z" />
    <glyph glyph-name="periodcentered" unicode="&#xb7;" horiz-adv-x="633" 
d="M518 782q0 -82 -58.5 -141t-142.5 -59t-142 58t-58 142t59 142.5t141 58.5t141.5 -59.5t59.5 -141.5z" />
    <glyph glyph-name="quotesinglbase" unicode="&#x201a;" horiz-adv-x="635" 
d="M539 233l-138 -514l-280 41l86 521z" />
    <glyph glyph-name="quotedblbase" unicode="&#x201e;" horiz-adv-x="1204" 
d="M1108 233l-137 -514l-281 41l84 521zM539 233l-138 -514l-280 41l86 521z" />
    <glyph glyph-name="perthousand" unicode="&#x2030;" horiz-adv-x="2867" 
d="M1274 1591h223l-756 -1618h-223zM2312 512v-190q0 -71 27.5 -109.5t77.5 -38.5q49 0 76.5 38.5t27.5 109.5v190q0 70 -27.5 108.5t-76.5 38.5t-77 -39t-28 -108zM2050 512q0 165 96 256.5t271 91.5q174 0 270 -91.5t96 -256.5v-190q0 -166 -96 -257.5t-270 -91.5
q-175 0 -271 91.5t-96 257.5v190zM1458 512v-190q0 -71 27.5 -109.5t77.5 -38.5t78 39t28 109v190q0 69 -28 108t-78 39q-49 0 -77 -39t-28 -108zM1196 512q0 165 96 256.5t271 91.5q174 0 271 -91.5t97 -256.5v-190q0 -165 -97 -257t-271 -92q-175 0 -271 91.5t-96 257.5
v190zM86 1243q0 165 96 256.5t271 91.5q174 0 270 -91.5t96 -256.5v-190q0 -165 -96 -256.5t-270 -91.5q-175 0 -271 91.5t-96 256.5v190zM348 1243v-190q0 -70 27.5 -109t77.5 -39q49 0 76.5 39t27.5 109v190q0 70 -27 108t-77 38q-49 0 -77 -38.5t-28 -107.5z" />
    <glyph glyph-name="Acircumflex" unicode="&#xc2;" horiz-adv-x="1569" 
d="M6 0l537 1565h485l537 -1565h-416l-64 227h-602l-63 -227h-414zM573 522h422l-211 725zM462 1706l193 371h256l192 -371h-153l-166 199l-168 -199h-154z" />
    <glyph glyph-name="Ecircumflex" unicode="&#xca;" horiz-adv-x="1214" 
d="M176 0v1565h877v-303h-484v-320h484v-303h-484v-322h484v-317h-877zM307 1706l193 371h256l192 -371h-153l-166 199l-168 -199h-154z" />
    <glyph glyph-name="Aacute" unicode="&#xc1;" horiz-adv-x="1569" 
d="M6 0l537 1565h485l537 -1565h-416l-64 227h-602l-63 -227h-414zM573 522h422l-211 725zM1089 2077l-325 -371h-154l192 371h287z" />
    <glyph glyph-name="Edieresis" unicode="&#xcb;" horiz-adv-x="1214" 
d="M176 0v1565h877v-303h-484v-320h484v-303h-484v-322h484v-317h-877zM680 1893q0 57 42.5 99t101.5 42t101 -41.5t42 -99.5q0 -63 -41 -104.5t-102 -41.5t-102.5 42.5t-41.5 103.5zM289 1893q0 57 43.5 99t101.5 42q60 0 101 -41t41 -100q0 -63 -40 -104.5t-102 -41.5
q-60 0 -102.5 42.5t-42.5 103.5z" />
    <glyph glyph-name="Egrave" unicode="&#xc8;" horiz-adv-x="1214" 
d="M176 0v1565h877v-303h-484v-320h484v-303h-484v-322h484v-317h-877zM324 2077h287l192 -371h-154z" />
    <glyph glyph-name="Iacute" unicode="&#xcd;" horiz-adv-x="750" 
d="M176 0v1565h397v-1565h-397zM680 2077l-325 -371h-154l192 371h287z" />
    <glyph glyph-name="Icircumflex" unicode="&#xce;" horiz-adv-x="750" 
d="M176 0v1565h397v-1565h-397zM53 1706l193 371h256l192 -371h-153l-166 199l-168 -199h-154z" />
    <glyph glyph-name="Idieresis" unicode="&#xcf;" horiz-adv-x="750" 
d="M176 0v1565h397v-1565h-397zM426 1893q0 57 42.5 99t101.5 42t101 -41.5t42 -99.5q0 -63 -41 -104.5t-102 -41.5t-102.5 42.5t-41.5 103.5zM35 1893q0 57 43.5 99t101.5 42q60 0 101 -41t41 -100q0 -63 -40 -104.5t-102 -41.5q-60 0 -102.5 42.5t-42.5 103.5z" />
    <glyph glyph-name="Igrave" unicode="&#xcc;" horiz-adv-x="750" 
d="M176 0v1565h397v-1565h-397zM70 2077h287l192 -371h-154z" />
    <glyph glyph-name="Oacute" unicode="&#xd3;" horiz-adv-x="1835" 
d="M918 319q184 0 301.5 129.5t117.5 333.5t-117.5 333.5t-301.5 129.5q-185 0 -302.5 -129.5t-117.5 -333.5q0 -203 118 -333t302 -130zM918 1595q176 0 323 -58t262 -173q114 -112 173 -260t59 -322q0 -173 -59 -320t-173 -261t-262.5 -173t-322.5 -59t-323.5 59
t-262.5 173q-114 114 -173 261t-59 320t58.5 321t171.5 261q114 114 262.5 172.5t325.5 58.5zM1223 2077l-325 -371h-154l192 371h287z" />
    <glyph glyph-name="Ocircumflex" unicode="&#xd4;" horiz-adv-x="1835" 
d="M918 319q184 0 301.5 129.5t117.5 333.5t-117.5 333.5t-301.5 129.5q-185 0 -302.5 -129.5t-117.5 -333.5q0 -203 118 -333t302 -130zM918 1595q176 0 323 -58t262 -173q114 -112 173 -260t59 -322q0 -173 -59 -320t-173 -261t-262.5 -173t-322.5 -59t-323.5 59
t-262.5 173q-114 114 -173 261t-59 320t58.5 321t171.5 261q114 114 262.5 172.5t325.5 58.5zM596 1706l193 371h256l192 -371h-153l-166 199l-168 -199h-154z" />
    <glyph glyph-name="apple" unicode="&#xf000;" horiz-adv-x="1618" 
d="M836 1216q-1 6 -1.5 14t-0.5 23q0 124 95 229.5t236 131.5q1 -10 1.5 -23t0.5 -39q0 -131 -103.5 -234.5t-203.5 -103.5h-8q-3 0 -7.5 1t-8.5 1zM1505 403q-114 -247 -205 -342.5t-204 -95.5q-50 0 -131.5 33t-122.5 33q-45 0 -131 -33t-127 -33q-64 0 -128.5 44
t-129.5 132q-102 140 -157.5 295.5t-55.5 300.5q0 219 125 356.5t323 137.5q68 0 155 -34t124 -34q34 0 121.5 35t152.5 35q110 0 198 -40t161 -124q-102 -65 -151.5 -145.5t-49.5 -182.5q0 -113 60 -200t173 -138z" />
    <glyph glyph-name="Ograve" unicode="&#xd2;" horiz-adv-x="1835" 
d="M918 319q184 0 301.5 129.5t117.5 333.5t-117.5 333.5t-301.5 129.5q-185 0 -302.5 -129.5t-117.5 -333.5q0 -203 118 -333t302 -130zM918 1595q176 0 323 -58t262 -173q114 -112 173 -260t59 -322q0 -173 -59 -320t-173 -261t-262.5 -173t-322.5 -59t-323.5 59
t-262.5 173q-114 114 -173 261t-59 320t58.5 321t171.5 261q114 114 262.5 172.5t325.5 58.5zM613 2077h287l192 -371h-154z" />
    <glyph glyph-name="Uacute" unicode="&#xda;" horiz-adv-x="1608" 
d="M561 1565v-867q0 -203 57 -293t185 -90q129 0 186.5 89.5t57.5 293.5v867h393v-1004q0 -278 -169 -435t-468 -157t-468 157.5t-169 434.5v1004h395zM1110 2077l-325 -371h-154l192 371h287z" />
    <glyph glyph-name="Ucircumflex" unicode="&#xdb;" horiz-adv-x="1608" 
d="M561 1565v-867q0 -203 57 -293t185 -90q129 0 186.5 89.5t57.5 293.5v867h393v-1004q0 -278 -169 -435t-468 -157t-468 157.5t-169 434.5v1004h395zM483 1706l193 371h256l192 -371h-153l-166 199l-168 -199h-154z" />
    <glyph glyph-name="Ugrave" unicode="&#xd9;" horiz-adv-x="1608" 
d="M561 1565v-867q0 -203 57 -293t185 -90q129 0 186.5 89.5t57.5 293.5v867h393v-1004q0 -278 -169 -435t-468 -157t-468 157.5t-169 434.5v1004h395zM500 2077h287l192 -371h-154z" />
    <glyph glyph-name="dotlessi" unicode="&#x131;" horiz-adv-x="664" 
d="M152 0v1100h358v-1100h-358z" />
    <glyph glyph-name="circumflex" unicode="&#x2c6;" 
d="M190 1210l193 371h256l192 -371h-153l-166 199l-168 -199h-154z" />
    <glyph glyph-name="tilde" unicode="&#x2dc;" 
d="M844 1536q-30 -132 -82.5 -193t-136.5 -61q-19 0 -37.5 3t-38.5 9l-92 27q-23 6 -40 9t-28 3q-33 0 -54.5 -18.5t-35.5 -59.5h-119q28 126 80.5 186t134.5 60q19 0 42 -3.5t48 -10.5l95 -29q12 -4 26 -6t31 -2q33 0 55 22t33 64h119z" />
    <glyph glyph-name="macron" unicode="&#xaf;" 
d="M205 1311v170h614v-170h-614z" />
    <glyph glyph-name="breve" unicode="&#x2d8;" 
d="M197 1575h131q6 -71 50.5 -105t133.5 -34t134 34t48 104l131 1q-12 -159 -87.5 -233t-225.5 -74t-227.5 75.5t-87.5 231.5z" />
    <glyph glyph-name="dotaccent" unicode="&#x2d9;" 
d="M365 1380q0 59 44.5 103.5t102.5 44.5q63 0 107.5 -43t44.5 -105q0 -64 -43.5 -106.5t-108.5 -42.5q-60 0 -103.5 44t-43.5 105z" />
    <glyph glyph-name="ring" unicode="&#x2da;" 
d="M397 1462q0 -48 33 -80t82 -32q48 0 81.5 32.5t33.5 79.5q0 48 -34 82.5t-81 34.5t-81 -34.5t-34 -82.5zM240 1464q0 114 79 193.5t193 79.5t193 -79.5t79 -193.5q0 -113 -79 -192.5t-193 -79.5t-192.5 79t-79.5 193z" />
    <glyph glyph-name="cedilla" unicode="&#xb8;" 
d="M272 -438v137q80 -22 149.5 -33.5t121.5 -11.5q43 0 64.5 17.5t21.5 54.5q0 32 -28.5 47.5t-90.5 15.5q-21 0 -33 -0.5t-22 -1.5v213h114v-84h19q111 0 170 -49.5t59 -142.5q0 -100 -66 -154.5t-188 -54.5q-58 0 -130 11.5t-161 35.5z" />
    <glyph glyph-name="hungarumlaut" unicode="&#x2dd;" 
d="M569 1210l156 371h254l-291 -371h-119zM397 1581h246l-252 -371h-110z" />
    <glyph glyph-name="ogonek" unicode="&#x2db;" 
d="M633 0q-63 -58 -91 -104.5t-28 -92.5q0 -41 18.5 -60t57.5 -19h102v-191h-74q-156 0 -221 45.5t-65 151.5q0 76 46.5 141t145.5 129h109z" />
    <glyph glyph-name="caron" unicode="&#x2c7;" 
d="M190 1581h154l168 -199l166 199h153l-192 -371h-256z" />
    <glyph glyph-name="Lslash" unicode="&#x141;" horiz-adv-x="1010" 
d="M176 0v494l-115 -97l-135 166l250 207v795h393v-541l195 164l137 -164l-332 -281v-426h396v-317h-789z" />
    <glyph glyph-name="lslash" unicode="&#x142;" horiz-adv-x="664" 
d="M152 0v588l-103 -90l-121 145l224 186v736h358v-494l92 80l121 -145l-213 -181v-825h-358z" />
    <glyph glyph-name="Scaron" unicode="&#x160;" horiz-adv-x="1323" 
d="M467 454q3 -77 55.5 -122t141.5 -45q88 0 139 38.5t51 104.5q0 58 -49.5 99t-206.5 98q-15 5 -47 16q-182 63 -272 131q-79 59 -120.5 147.5t-41.5 198.5q0 212 146 343.5t384 131.5q263 0 403.5 -124t143.5 -356l-356 -1q-2 87 -50 135.5t-133 48.5q-81 0 -129.5 -40
t-48.5 -107q0 -96 232 -180q47 -17 73 -27q14 -5 43 -16q212 -78 297 -170q53 -57 79 -128.5t26 -158.5q0 -228 -157.5 -366t-420.5 -138q-247 0 -392.5 130.5t-152.5 357.5zM340 2077h154l168 -199l166 199h153l-192 -371h-256z" />
    <glyph glyph-name="scaron" unicode="&#x161;" horiz-adv-x="1049" 
d="M410 330v-11q0 -52 29 -80t83 -28q46 0 75.5 23.5t29.5 60.5q0 62 -148 120q-11 4 -18 7q-10 4 -31 12q-117 45 -182 88q-57 37 -89 102t-32 144q0 166 104.5 262t286.5 96q183 0 291 -90.5t113 -246.5l-291 -1q-4 52 -30.5 79.5t-72.5 27.5q-49 0 -77.5 -21.5
t-28.5 -58.5q0 -61 149 -114q48 -17 76 -27q166 -64 230.5 -139t64.5 -197q0 -171 -110.5 -268t-307.5 -97q-199 0 -305.5 90t-114.5 267h306zM202 1581h154l168 -199l166 199h153l-192 -371h-256z" />
    <glyph glyph-name="Zcaron" unicode="&#x17d;" horiz-adv-x="1384" 
d="M47 0l660 1260h-592v305h1179l-657 -1248h600v-317h-1190zM370 2077h154l168 -199l166 199h153l-192 -371h-256z" />
    <glyph glyph-name="zcaron" unicode="&#x17e;" horiz-adv-x="1114" 
d="M1051 1100l-461 -813h411v-287h-960l455 813h-400v287h955zM235 1581h154l168 -199l166 199h153l-192 -371h-256z" />
    <glyph glyph-name="brokenbar" unicode="&#xa6;" 
d="M393 408h240v-758h-240v758zM393 1432h240v-758h-240v758z" />
    <glyph glyph-name="Eth" unicode="&#xd0;" horiz-adv-x="1593" 
d="M569 317h119q188 0 298 126t110 341q0 221 -110.5 344t-307.5 123h-109v-362h252v-209h-252v-363zM176 0v680h-176v209h176v680h481q165 0 280 -25t200 -78q175 -111 265.5 -284t90.5 -398q0 -217 -92 -389t-273 -291q-78 -51 -196.5 -77.5t-274.5 -26.5h-481z" />
    <glyph glyph-name="eth" unicode="&#xf0;" horiz-adv-x="1305" 
d="M782 1024q-30 44 -67.5 86t-83.5 84l-305 -123l-60 143l226 89q-33 23 -71.5 48t-92.5 58l100 174q61 -29 139.5 -74.5t167.5 -105.5l301 117l56 -144l-220 -84q176 -158 265.5 -346.5t89.5 -398.5q0 -267 -154 -420.5t-422 -153.5q-257 0 -416 150t-159 393
q0 237 153 387t396 150q40 0 79 -7t78 -22zM438 524q0 -112 58.5 -181t154.5 -69q97 0 155 68.5t58 181.5q0 114 -58 182t-155 68q-95 0 -154 -69t-59 -181z" />
    <glyph glyph-name="Yacute" unicode="&#xdd;" horiz-adv-x="1319" 
d="M461 0v705l-496 860h443l202 -428q13 -25 25.5 -55.5t23.5 -63.5q14 39 26 69.5t21 48.5l203 429h443l-496 -860v-705h-395zM964 2077l-325 -371h-154l192 371h287z" />
    <glyph glyph-name="yacute" unicode="&#xfd;" horiz-adv-x="1186" 
d="M403 -20l-393 1120h391l140 -498q19 -69 32.5 -143t20.5 -151q14 101 27.5 178t23.5 116l139 498h379l-516 -1508h-375zM899 1581l-325 -371h-154l192 371h287z" />
    <glyph glyph-name="Thorn" unicode="&#xde;" horiz-adv-x="1337" 
d="M569 0h-393v1565h393v-236h154q247 0 394 -142.5t147 -381.5q0 -260 -141.5 -395.5t-411.5 -135.5h-6h-136v-274zM569 1024v-432h60q114 0 175.5 57t61.5 162q0 108 -60 160.5t-185 52.5h-52z" />
    <glyph glyph-name="thorn" unicode="&#xfe;" horiz-adv-x="1399" 
d="M711 846q-107 0 -179.5 -84t-72.5 -211q0 -129 72.5 -214t179.5 -85t178.5 84.5t71.5 214.5q0 128 -71.5 211.5t-178.5 83.5zM152 1565h344v-631q38 92 114 138t189 46q106 0 203 -42t172 -122q73 -77 111 -180t38 -223q0 -129 -34 -228.5t-103 -175.5q-75 -81 -172 -124
t-203 -43q-114 0 -199 47t-116 127v-562h-344v1973z" />
    <glyph glyph-name="minus" unicode="&#x2212;" horiz-adv-x="1706" 
d="M254 729h1198v-235h-1198v235z" />
    <glyph glyph-name="multiply" unicode="&#xd7;" horiz-adv-x="1706" 
d="M430 1214l440 -440l441 440l162 -161l-441 -443l441 -440l-162 -162l-441 441l-440 -441l-162 162l441 440l-441 443z" />
    <glyph glyph-name="onesuperior" unicode="&#xb9;" horiz-adv-x="836" 
d="M360 627v653l-198 -84v203l413 182h21v-954h-236z" />
    <glyph glyph-name="twosuperior" unicode="&#xb2;" horiz-adv-x="836" 
d="M57 627v26l418 533q35 44 46 66.5t11 43.5q0 43 -30.5 70t-79.5 27q-55 0 -85 -32.5t-30 -92.5v-11l-237 1q2 154 94 238.5t258 84.5q156 0 253 -76.5t97 -199.5q0 -52 -19.5 -102.5t-58.5 -98.5l-223 -273h291v-204h-705z" />
    <glyph glyph-name="threesuperior" unicode="&#xb3;" horiz-adv-x="836" 
d="M301 907q3 -51 30.5 -78.5t76.5 -27.5q50 0 80 34t30 93q0 50 -31 81t-81 31q-25 0 -47 -9t-44 -27l-165 112l249 256h-297v193h656v-29l-274 -323q131 -10 202.5 -81t71.5 -194q0 -149 -95.5 -238.5t-252.5 -89.5q-159 0 -254 81t-97 216h242z" />
    <glyph glyph-name="onehalf" unicode="&#xbd;" horiz-adv-x="1937" 
d="M1192 0v25l399 497q35 41 45.5 62t10.5 41q0 39 -29.5 64.5t-75.5 25.5q-54 0 -82 -30t-28 -87v-8h-226q0 142 89 221.5t247 79.5q148 0 241 -72t93 -186q0 -50 -19 -97.5t-57 -91.5l-211 -251h277v-193h-674zM1251 1591h228l-797 -1618h-227zM344 688v610l-188 -77v188
l393 170h20v-891h-225z" />
    <glyph glyph-name="onequarter" unicode="&#xbc;" horiz-adv-x="1937" 
d="M1380 350h189v244q0 23 2.5 47t7.5 49zM1561 0v182h-365v168l301 527h285v-527h84v-168h-84v-182h-221zM1251 1591h228l-797 -1618h-227zM344 688v610l-188 -77v188l393 170h20v-891h-225z" />
    <glyph glyph-name="threequarters" unicode="&#xbe;" horiz-adv-x="1937" 
d="M1380 350h189v244q0 23 2.5 47t7.5 49zM1561 0v182h-365v168l301 527h285v-527h84v-168h-84v-182h-221zM1251 1591h228l-797 -1618h-227zM287 950q3 -48 29.5 -74t72.5 -26q48 0 76.5 32t28.5 87q0 48 -29 76t-78 28q-24 0 -45 -8t-41 -25l-158 105l238 237h-285v183h627
v-29l-260 -301q125 -10 192.5 -76t67.5 -180q0 -139 -91 -222t-241 -83t-241 75.5t-93 200.5h230z" />
    <glyph glyph-name="franc" unicode="&#x20a3;" horiz-adv-x="2066" 
d="M176 0v1565h877v-303h-484v-320h484v-303h-484v-639h-393zM1328 0v1100h348v-201q46 113 118.5 167t178.5 54q17 0 25 -0.5t16 -1.5v-379q-39 8 -64 11.5t-43 3.5q-120 0 -170.5 -72t-50.5 -250v-432h-358z" />
    <glyph glyph-name="Gbreve" unicode="&#x11e;" horiz-adv-x="1810" 
d="M1257 1067q-58 87 -144.5 132.5t-194.5 45.5q-185 0 -302.5 -129.5t-117.5 -333.5t117.5 -333.5t302.5 -129.5q143 0 249 70t156 199h-405v299h811q0 -12 3 -44.5t3 -49.5q0 -121 -30 -238t-77 -190q-129 -201 -303.5 -298.5t-406.5 -97.5q-173 0 -322 59t-264 173
q-114 112 -173 260t-59 321q0 174 59 322t173 262q113 113 261.5 171t324.5 58q191 0 348 -69t280 -207zM590 2071h131q6 -71 50.5 -105t133.5 -34t134 34t48 104l131 1q-12 -159 -87.5 -233t-225.5 -74t-227.5 75.5t-87.5 231.5z" />
    <glyph glyph-name="gbreve" unicode="&#x11f;" horiz-adv-x="1399" 
d="M670 254q98 0 165.5 84.5t67.5 212.5t-67.5 212.5t-165.5 84.5q-100 0 -166 -83.5t-66 -213.5q0 -129 66.5 -213t165.5 -84zM1247 115q0 -256 -159.5 -396.5t-450.5 -140.5q-165 0 -300 43.5t-255 134.5l164 219q74 -71 163 -109t181 -38q144 0 227.5 79t83.5 214
q0 6 -1 18.5t-1 18.5q-40 -88 -115 -132t-184 -44q-107 0 -204.5 42t-172.5 121q-72 77 -109.5 180.5t-37.5 225.5q0 127 33.5 225.5t103.5 175.5q75 82 172 125t205 43q109 0 188.5 -41.5t124.5 -122.5v144h344v-985zM385 1575h131q6 -71 50.5 -105t133.5 -34t134 34
t48 104l131 1q-12 -159 -87.5 -233t-225.5 -74t-227.5 75.5t-87.5 231.5z" />
    <glyph glyph-name="Idotaccent" unicode="&#x130;" horiz-adv-x="750" 
d="M176 0v1565h397v-1565h-397zM228 1876q0 59 44.5 103.5t102.5 44.5q63 0 107.5 -43t44.5 -105q0 -64 -43.5 -106.5t-108.5 -42.5q-60 0 -103.5 44t-43.5 105z" />
    <glyph glyph-name="Scedilla" unicode="&#x15e;" horiz-adv-x="1323" 
d="M467 454q3 -77 55.5 -122t141.5 -45q88 0 139 38.5t51 104.5q0 58 -49.5 99t-206.5 98q-15 5 -47 16q-182 63 -272 131q-79 59 -120.5 147.5t-41.5 198.5q0 212 146 343.5t384 131.5q263 0 403.5 -124t143.5 -356l-356 -1q-2 87 -50 135.5t-133 48.5q-81 0 -129.5 -40
t-48.5 -107q0 -96 232 -180q47 -17 73 -27q14 -5 43 -16q212 -78 297 -170q53 -57 79 -128.5t26 -158.5q0 -228 -157.5 -366t-420.5 -138q-247 0 -392.5 130.5t-152.5 357.5zM422 -438v137q80 -22 149.5 -33.5t121.5 -11.5q43 0 64.5 17.5t21.5 54.5q0 32 -28.5 47.5
t-90.5 15.5q-21 0 -33 -0.5t-22 -1.5v213h114v-84h19q111 0 170 -49.5t59 -142.5q0 -100 -66 -154.5t-188 -54.5q-58 0 -130 11.5t-161 35.5z" />
    <glyph glyph-name="scedilla" unicode="&#x15f;" horiz-adv-x="1049" 
d="M410 330v-11q0 -52 29 -80t83 -28q46 0 75.5 23.5t29.5 60.5q0 62 -148 120q-11 4 -18 7q-10 4 -31 12q-117 45 -182 88q-57 37 -89 102t-32 144q0 166 104.5 262t286.5 96q183 0 291 -90.5t113 -246.5l-291 -1q-4 52 -30.5 79.5t-72.5 27.5q-49 0 -77.5 -21.5
t-28.5 -58.5q0 -61 149 -114q48 -17 76 -27q166 -64 230.5 -139t64.5 -197q0 -171 -110.5 -268t-307.5 -97q-199 0 -305.5 90t-114.5 267h306zM284 -438v137q80 -22 149.5 -33.5t121.5 -11.5q43 0 64.5 17.5t21.5 54.5q0 32 -28.5 47.5t-90.5 15.5q-21 0 -33 -0.5t-22 -1.5
v213h114v-84h19q111 0 170 -49.5t59 -142.5q0 -100 -66 -154.5t-188 -54.5q-58 0 -130 11.5t-161 35.5z" />
    <glyph glyph-name="Cacute" unicode="&#x106;" horiz-adv-x="1583" 
d="M1249 1102q-65 72 -145.5 107.5t-175.5 35.5q-189 0 -309.5 -129.5t-120.5 -333.5t120.5 -333.5t309.5 -129.5q101 0 182.5 39t140.5 115l258 -262q-115 -120 -264.5 -181t-329.5 -61q-173 0 -321 58.5t-262 173.5q-114 112 -173 260t-59 321q0 174 59 323t173 261
q113 114 260.5 171.5t322.5 57.5q176 0 325 -59.5t263 -175.5zM1225 2077l-325 -371h-154l192 371h287z" />
    <glyph glyph-name="cacute" unicode="&#x107;" horiz-adv-x="1176" 
d="M1124 162q-95 -97 -206.5 -143t-249.5 -46q-265 0 -428.5 159t-163.5 417t163.5 417.5t428.5 159.5q131 0 238 -40t196 -121l-213 -236q-41 47 -92.5 71.5t-106.5 24.5q-108 0 -180 -78t-72 -198t71.5 -197.5t180.5 -77.5q66 0 122 33t93 92zM979 1581l-325 -371h-154
l192 371h287z" />
    <glyph glyph-name="Ccaron" unicode="&#x10c;" horiz-adv-x="1583" 
d="M1249 1102q-65 72 -145.5 107.5t-175.5 35.5q-189 0 -309.5 -129.5t-120.5 -333.5t120.5 -333.5t309.5 -129.5q101 0 182.5 39t140.5 115l258 -262q-115 -120 -264.5 -181t-329.5 -61q-173 0 -321 58.5t-262 173.5q-114 112 -173 260t-59 321q0 174 59 323t173 261
q113 114 260.5 171.5t322.5 57.5q176 0 325 -59.5t263 -175.5zM598 2077h154l168 -199l166 199h153l-192 -371h-256z" />
    <glyph glyph-name="ccaron" unicode="&#x10d;" horiz-adv-x="1176" 
d="M1124 162q-95 -97 -206.5 -143t-249.5 -46q-265 0 -428.5 159t-163.5 417t163.5 417.5t428.5 159.5q131 0 238 -40t196 -121l-213 -236q-41 47 -92.5 71.5t-106.5 24.5q-108 0 -180 -78t-72 -198t71.5 -197.5t180.5 -77.5q66 0 122 33t93 92zM352 1581h154l168 -199
l166 199h153l-192 -371h-256z" />
    <glyph glyph-name="dcroat" unicode="&#x111;" horiz-adv-x="1399" 
d="M670 254q98 0 165.5 84.5t67.5 212.5t-67.5 212.5t-165.5 84.5q-99 0 -165.5 -84t-66.5 -213q0 -128 67 -212.5t165 -84.5zM893 0v150q-29 -80 -105.5 -124t-187.5 -44q-223 0 -373.5 162t-150.5 407q0 252 145 410.5t369 158.5q107 0 187.5 -42t125.5 -122v281h-325v180
h325v148h344v-148h152v-180h-152v-1237h-354z" />
    <glyph glyph-name="periodcentered" unicode="&#x2219;" horiz-adv-x="633" 
d="M518 782q0 -82 -58.5 -141t-142.5 -59t-142 58t-58 142t59 142.5t141 58.5t141.5 -59.5t59.5 -141.5z" />
    <glyph glyph-name="sfthyphen" unicode="&#xad;" horiz-adv-x="645" 
d="M76 434v322h493v-322h-493z" />
    </font>
</defs>
</svg>
