<?xml version="1.0" standalone="no"?>
<!DOCTYPE svg PUBLIC "-//W3C//DTD SVG 1.1//EN" "https://www.w3.org/Graphics/SVG/1.1/DTD/svg11.dtd" >
<svg xmlns="https://www.w3.org/2000/svg" xmlns:xlink="https://www.w3.org/1999/xlink" version="1.1">
<metadata>
Created by FontForge 20190801 at Tue Dec  9 18:09:10 2003
 By Mark Brand
Copyright 1990-2003 Bitstream Inc. All rights reserved.
</metadata>
<defs>
<font id="Geometric415BT-BlackA" horiz-adv-x="1024" >
  <font-face 
    font-family="Geometr415 Blk BT"
    font-weight="400"
    font-stretch="normal"
    units-per-em="2048"
    panose-1="2 11 8 2 2 2 4 2 3 3"
    ascent="1556"
    descent="-492"
    x-height="901"
    cap-height="1450"
    bbox="-342 -483 2398 1972"
    underline-thickness="209"
    underline-position="-321"
    unicode-range="U+0020-F002"
  />
<missing-glyph horiz-adv-x="1229" 
d="M102 -362v1806h1024v-1806h-1024zM217 -248h795v1577h-795v-1577z" />
    <glyph glyph-name=".notdef" horiz-adv-x="1229" 
d="M102 -362v1806h1024v-1806h-1024zM217 -248h795v1577h-795v-1577z" />
    <glyph glyph-name=".null" horiz-adv-x="0" 
 />
    <glyph glyph-name="nonmarkingreturn" horiz-adv-x="592" 
 />
    <glyph glyph-name="space" unicode=" " horiz-adv-x="592" 
 />
    <glyph glyph-name="exclam" unicode="!" horiz-adv-x="653" 
d="M145 145q0 70 50.5 120t119.5 50q73 0 121.5 -48.5t48.5 -121.5q0 -70 -49.5 -120t-120.5 -50q-68 0 -119 51t-51 119zM256 455q-58 285 -89.5 529t-37.5 458l395 55q-2 -260 -162 -1028l-6 -29z" />
    <glyph glyph-name="quotedbl" unicode="&#x22;" horiz-adv-x="678" 
d="M406 1438h192v-559h-192v559zM80 1438h192v-559h-192v559z" />
    <glyph glyph-name="numbersign" unicode="#" horiz-adv-x="1575" 
d="M709 848l-88 -244h251l86 244h-249zM709 1464h221l-146 -415h242l148 415h221l-148 -415h283l-74 -201h-280l-84 -242h290l-71 -200h-291l-148 -416h-221l148 416h-244l-149 -416h-220l146 416h-287l76 200h282l86 242h-299l74 201h297z" />
    <glyph glyph-name="dollar" unicode="$" horiz-adv-x="1186" 
d="M537 967v270q-71 -12 -108.5 -43.5t-37.5 -77.5q0 -43 35.5 -79.5t110.5 -69.5zM649 553v-303q67 20 99 55t32 88q0 46 -33 86.5t-98 73.5zM127 399q119 -75 214 -110.5t183 -38.5v360l-129 76q-145 84 -212.5 183.5t-67.5 228.5q0 159 112.5 269t296.5 126v190h133
l1 -192q55 -5 123 -21t173 -49v-325q-102 61 -175 93t-122 38v-320l52 -26q193 -100 276.5 -206t83.5 -247q0 -183 -113 -310t-299 -153v-260h-133v252h-18q-64 0 -143 15.5t-207 54.5z" />
    <glyph glyph-name="percent" unicode="%" horiz-adv-x="1597" 
d="M1184 1497h153l-923 -1544h-156zM1032 319q0 -65 47 -113t111 -48t112 47.5t48 113.5q0 67 -47.5 115.5t-112.5 48.5q-64 0 -111 -48.5t-47 -115.5zM821 322q0 152 108.5 260t260.5 108q153 0 261 -107.5t108 -260.5t-108 -261t-261 -108q-152 0 -260.5 108t-108.5 261z
M248 1128q0 -65 47 -113t111 -48t110.5 47.5t46.5 113.5q0 68 -46.5 116t-110.5 48q-65 0 -111.5 -48.5t-46.5 -115.5zM39 1128q0 154 107 261.5t260 107.5t260.5 -107.5t107.5 -261.5q0 -152 -108 -259t-260 -107t-259.5 107t-107.5 259z" />
    <glyph glyph-name="ampersand" unicode="&#x26;" horiz-adv-x="1464" 
d="M623 969q75 41 115 90t40 100q0 52 -35.5 86.5t-89.5 34.5q-60 0 -97.5 -34.5t-37.5 -88.5q0 -41 27 -89t78 -99zM819 274l-278 340q-77 -36 -115.5 -88t-38.5 -118q0 -83 61.5 -135t159.5 -52q46 0 97 13t114 40zM1049 0l-58 61q-104 -57 -201.5 -84.5t-197.5 -27.5
q-229 0 -375.5 124t-146.5 310q0 134 71 240t224 198q-65 78 -97 158t-32 160q0 155 112 257.5t283 102.5q180 0 294.5 -99t114.5 -249q0 -112 -59 -203t-188 -178l264 -313q26 29 48.5 73.5t61.5 153.5l250 -70q-26 -112 -72.5 -203.5t-115.5 -166.5l205 -244h-385z" />
    <glyph glyph-name="quotesingle" unicode="'" horiz-adv-x="352" 
d="M80 1438h192v-559h-192v559z" />
    <glyph glyph-name="parenleft" unicode="(" horiz-adv-x="711" 
d="M672 1450q-150 -247 -217.5 -455.5t-67.5 -419.5t68 -421t217 -455h-271q-142 223 -213 441.5t-71 434.5q0 217 70.5 434.5t213.5 440.5h271z" />
    <glyph glyph-name="parenright" unicode=")" horiz-adv-x="711" 
d="M39 -301q150 248 218.5 457.5t68.5 418.5q0 210 -68 418t-219 457h272q143 -223 214 -440.5t71 -434.5q0 -216 -71 -434.5t-214 -441.5h-272z" />
    <glyph glyph-name="asterisk" unicode="*" 
d="M510 991l-156 -325l-182 131l260 252l-354 49l67 213l318 -170l-64 356h224l-64 -356l318 172l69 -215l-356 -49l262 -252l-184 -131z" />
    <glyph glyph-name="plus" unicode="+" horiz-adv-x="1706" 
d="M752 1221h202v-510h498v-199h-498v-512h-202v512h-498v199h498v510z" />
    <glyph glyph-name="comma" unicode="," horiz-adv-x="592" 
d="M-6 -309l192 561h283l-223 -561h-252z" />
    <glyph glyph-name="hyphen" unicode="-" horiz-adv-x="702" 
d="M86 311v279h530v-279h-530z" />
    <glyph glyph-name="period" unicode="." horiz-adv-x="592" 
d="M127 145q0 71 49 120.5t119 49.5q72 0 122 -49t50 -121q0 -70 -50.5 -120t-121.5 -50q-68 0 -118 51t-50 119z" />
    <glyph glyph-name="slash" unicode="/" horiz-adv-x="616" 
d="M670 1497l-541 -1687h-149l540 1687h150z" />
    <glyph glyph-name="zero" unicode="0" horiz-adv-x="1186" 
d="M403 725q0 -215 50.5 -337t138.5 -122q89 0 139.5 121t50.5 338q0 218 -50 339.5t-140 121.5q-87 0 -138 -122.5t-51 -338.5zM72 725q0 363 138.5 567.5t381.5 204.5t382.5 -205t139.5 -567t-139.5 -567t-382.5 -205t-381.5 204.5t-138.5 567.5z" />
    <glyph glyph-name="one" unicode="1" horiz-adv-x="1186" 
d="M469 0v1186h-254l47 264h529v-1450h-322z" />
    <glyph glyph-name="two" unicode="2" horiz-adv-x="1186" 
d="M43 0v117l524 628l4 5q146 173 146 268q0 77 -51.5 126.5t-133.5 49.5q-74 0 -128 -48.5t-72 -131.5l-277 137q63 165 192.5 255.5t303.5 90.5q209 0 351 -132t142 -329q0 -121 -64 -250.5t-198 -277.5l-190 -211h520l-49 -297h-1020z" />
    <glyph glyph-name="three" unicode="3" horiz-adv-x="1186" 
d="M203 418q93 -72 172.5 -107t148.5 -35q90 0 144.5 47t54.5 123q0 87 -75 131t-222 44h-39v249q166 7 247 54.5t81 138.5q0 63 -41.5 103t-106.5 40q-58 0 -125 -37t-147 -114l-184 194q102 126 218.5 188t250.5 62q195 0 323.5 -120.5t128.5 -301.5q0 -98 -44.5 -178
t-127.5 -131q97 -48 150 -140t53 -214q0 -206 -144.5 -334.5t-377.5 -128.5q-135 0 -269 50.5t-243 143.5z" />
    <glyph glyph-name="four" unicode="4" horiz-adv-x="1186" 
d="M670 545v553l-357 -553h357zM670 0v287h-613v272l576 891h344v-905h149v-258h-149v-287h-307z" />
    <glyph glyph-name="five" unicode="5" horiz-adv-x="1186" 
d="M170 389q93 -62 173 -92.5t153 -30.5q109 0 178 61.5t69 157.5q0 109 -85.5 174.5t-229.5 65.5q-67 0 -127 -9.5t-115 -29.5v764h844l-84 -293h-491v-192q5 0 17 1q63 7 89 7q224 0 367 -141.5t143 -362.5q0 -226 -157.5 -372t-405.5 -146q-136 0 -258 43.5t-236 132.5z
" />
    <glyph glyph-name="six" unicode="6" horiz-adv-x="1186" 
d="M381 471q0 -92 60.5 -156.5t146.5 -64.5t146.5 64.5t60.5 156.5q0 93 -60 157t-147 64t-147 -64t-60 -157zM584 971q6 0 18 1t19 1q218 0 355.5 -142t137.5 -366q0 -217 -152 -363.5t-380 -146.5q-220 0 -368 155t-148 390q0 202 137.5 435.5t423.5 514.5h387
q-160 -168 -255.5 -275t-174.5 -204z" />
    <glyph glyph-name="seven" unicode="7" horiz-adv-x="1186" 
d="M184 0l504 1163h-604v287h1053l-613 -1450h-340z" />
    <glyph glyph-name="eight" unicode="8" horiz-adv-x="1186" 
d="M592 891q91 29 136.5 75t45.5 109q0 69 -52 115.5t-130 46.5q-77 0 -128.5 -46.5t-51.5 -115.5q0 -62 44.5 -107.5t135.5 -76.5zM592 629q-95 -26 -142 -77.5t-47 -129.5q0 -76 54.5 -128t134.5 -52q81 0 135.5 52t54.5 128q0 79 -45.5 129t-144.5 78zM301 784
q-94 57 -140 133t-46 173q0 178 133 292.5t344 114.5t345 -114.5t134 -292.5q0 -97 -46.5 -173t-139.5 -133q107 -59 165 -156.5t58 -217.5q0 -198 -146 -327.5t-370 -129.5t-369 129t-145 328q0 120 58 217.5t165 156.5z" />
    <glyph glyph-name="nine" unicode="9" horiz-adv-x="1186" 
d="M795 979q0 93 -60 157t-145 64q-87 0 -148 -64.5t-61 -156.5q0 -93 61 -157t148 -64q86 0 145.5 63.5t59.5 157.5zM592 479q-6 0 -18.5 -1t-18.5 -1q-218 0 -356 143t-138 369q0 218 153 364t382 146q219 0 366.5 -154.5t147.5 -390.5q0 -205 -138 -440.5t-421 -513.5
h-387q142 150 242 262.5t186 216.5z" />
    <glyph glyph-name="colon" unicode=":" horiz-adv-x="639" 
d="M150 758q0 70 50 120t119 50q73 0 121.5 -49t48.5 -121q0 -71 -49 -120.5t-121 -49.5q-68 0 -118.5 51t-50.5 119zM150 145q0 70 50 120t119 50q73 0 121.5 -48.5t48.5 -121.5q0 -70 -49 -120t-121 -50q-68 0 -118.5 51t-50.5 119z" />
    <glyph glyph-name="semicolon" unicode=";" horiz-adv-x="639" 
d="M0 -309l190 561h283l-223 -561h-250zM158 758q0 70 49 120t119 50q72 0 122 -49t50 -121q0 -70 -50.5 -120t-121.5 -50q-69 0 -118.5 50.5t-49.5 119.5z" />
    <glyph glyph-name="less" unicode="&#x3c;" horiz-adv-x="1706" 
d="M1442 1194v-219l-893 -365l893 -364v-219l-1178 485v199z" />
    <glyph glyph-name="equal" unicode="=" horiz-adv-x="1706" 
d="M254 496h1198v-199h-1198v199zM254 926h1198v-199h-1198v199z" />
    <glyph glyph-name="greater" unicode="&#x3e;" horiz-adv-x="1706" 
d="M264 1194l1178 -483v-199l-1178 -485v219l895 364l-895 365v219z" />
    <glyph glyph-name="question" unicode="?" horiz-adv-x="1014" 
d="M227 442v369q171 42 256.5 105t85.5 147q0 69 -51 108t-141 39q-41 0 -93.5 -7t-113.5 -21l20 295q53 10 105.5 15t103.5 5q221 0 352.5 -110t131.5 -293q0 -158 -102 -277t-287 -178l-7 -154zM188 145q0 70 50.5 120t119.5 50q73 0 121.5 -48.5t48.5 -121.5
q0 -70 -49.5 -120t-120.5 -50q-68 0 -119 51t-51 119z" />
    <glyph glyph-name="at" unicode="@" horiz-adv-x="2048" 
d="M1167 272q-55 -84 -127 -123.5t-170 -39.5q-158 0 -240.5 86t-82.5 254q0 239 139.5 401t343.5 162q80 0 139 -33t97 -98l53 98h178l-147 -598q-3 -11 -5 -22.5t-2 -18.5q0 -35 24 -52.5t71 -17.5q39 0 81.5 20t79.5 56q86 80 130.5 187t44.5 235q0 240 -185.5 394.5
t-478.5 154.5q-141 0 -262.5 -34t-220.5 -101q-170 -114 -261.5 -285t-91.5 -375q0 -307 207 -490.5t553 -183.5q162 0 316.5 49t287.5 142l82 -117q-153 -115 -324.5 -173t-357.5 -58q-192 0 -353 48.5t-286 143.5q-155 121 -232 279t-77 358q0 167 52.5 318.5t154.5 275.5
q148 181 356 274t463 93q169 0 317.5 -45.5t258.5 -128.5q135 -105 201.5 -239.5t66.5 -303.5q0 -165 -65.5 -304.5t-188.5 -238.5q-70 -56 -152.5 -85.5t-171.5 -29.5q-106 0 -159.5 42t-55.5 124zM1217 700q-13 81 -57.5 123.5t-117.5 42.5q-114 0 -198 -124t-84 -298
q0 -92 40.5 -140t117.5 -48q83 0 151.5 63t93.5 164z" />
    <glyph glyph-name="A" unicode="A" horiz-adv-x="1366" 
d="M481 461h381l-188 454zM-61 0l739 1495h22l723 -1495h-362l-92 211h-588l-94 -211h-348z" />
    <glyph glyph-name="B" unicode="B" horiz-adv-x="1255" 
d="M481 262h144q104 0 163.5 51t59.5 140q0 87 -58 134.5t-165 47.5h-144v-373zM481 877h115q102 0 159.5 44.5t57.5 125.5t-54.5 119t-170.5 38h-107v-327zM166 0v1450h448q253 0 382.5 -92.5t129.5 -274.5q0 -111 -59 -188.5t-178 -120.5q132 -30 207 -123.5t75 -228.5
q0 -209 -154.5 -315.5t-457.5 -106.5h-393z" />
    <glyph glyph-name="C" unicode="C" horiz-adv-x="1341" 
d="M1237 991q-94 97 -190.5 144t-202.5 47q-184 0 -301 -127t-117 -326t116 -322.5t302 -123.5q110 0 219.5 46t218.5 138l-22 -385q-93 -63 -203.5 -96t-229.5 -33q-128 0 -245.5 40t-216.5 118q-140 110 -214.5 268.5t-74.5 345.5q0 161 55 302t160 249q106 108 245 165.5
t293 57.5q122 0 233 -34t212 -103z" />
    <glyph glyph-name="D" unicode="D" horiz-adv-x="1493" 
d="M508 311h76q227 0 355 110t128 304t-128 305t-355 111h-76v-830zM166 0v1450h385q406 0 636 -194t230 -531q0 -202 -91 -358.5t-267 -257.5q-100 -58 -217.5 -83.5t-290.5 -25.5h-385z" />
    <glyph glyph-name="E" unicode="E" horiz-adv-x="1165" 
d="M166 0v1450h893v-299h-557v-262h477v-297h-477v-287h565v-305h-901z" />
    <glyph glyph-name="F" unicode="F" horiz-adv-x="1128" 
d="M166 0v1450h901v-295h-557v-289h498v-293h-498v-573h-344z" />
    <glyph glyph-name="G" unicode="G" horiz-adv-x="1518" 
d="M1397 805v-705q-146 -73 -284.5 -110t-268.5 -37q-331 0 -549.5 218.5t-218.5 551.5q0 336 221.5 556t560.5 220q128 0 244 -35t223 -106l-37 -363q-101 102 -201 149.5t-210 47.5q-195 0 -323 -130.5t-128 -326.5q0 -206 123.5 -336.5t318.5 -130.5q45 0 91 8t96 23v211
h-275v295h617z" />
    <glyph glyph-name="H" unicode="H" horiz-adv-x="1575" 
d="M166 0v1450h342v-532h559v532h340v-1450h-340v608h-559v-608h-342z" />
    <glyph glyph-name="I" unicode="I" horiz-adv-x="688" 
d="M170 0v1450h346v-1450h-346z" />
    <glyph glyph-name="J" unicode="J" horiz-adv-x="862" 
d="M2 303q55 -24 101 -36.5t81 -12.5q103 0 147 67.5t44 229.5v899h348v-981q0 -251 -129 -383.5t-373 -132.5q-46 0 -91.5 6t-94.5 18z" />
    <glyph glyph-name="K" unicode="K" horiz-adv-x="1395" 
d="M166 0v1450h342v-631l479 631h412l-547 -690l590 -760h-418l-516 668v-668h-342z" />
    <glyph glyph-name="L" unicode="L" horiz-adv-x="1081" 
d="M166 0v1450h346v-1139h565v-311h-911z" />
    <glyph glyph-name="M" unicode="M" horiz-adv-x="1810" 
d="M47 0l301 1497h25l547 -944l516 944h26l303 -1497h-329l-123 662l-389 -715h-23l-418 725l-127 -672h-309z" />
    <glyph glyph-name="N" unicode="N" horiz-adv-x="1587" 
d="M166 0v1497h33l903 -846v799h319v-1505h-30l-906 846v-791h-319z" />
    <glyph glyph-name="O" unicode="O" horiz-adv-x="1630" 
d="M432 725q0 -189 110.5 -316.5t272.5 -127.5q163 0 273 127t110 317q0 191 -110 318.5t-273 127.5q-162 0 -272.5 -127.5t-110.5 -318.5zM76 725q0 161 55.5 301.5t163.5 251.5q102 106 237 162.5t283 56.5t283.5 -57t240.5 -164q106 -107 160.5 -247.5t54.5 -303.5
q0 -136 -38 -256t-113 -219q-106 -141 -260.5 -219t-327.5 -78q-147 0 -281.5 57t-238.5 164q-108 111 -163.5 250.5t-55.5 300.5z" />
    <glyph glyph-name="P" unicode="P" horiz-adv-x="1210" 
d="M559 1184h-47v-387h63q131 0 200 50.5t69 145.5q0 99 -68 145t-217 46zM166 0v1450h373q172 0 273 -25t179 -84q81 -59 125.5 -147.5t44.5 -187.5q0 -220 -156.5 -349t-424.5 -129q-28 0 -42 0.5t-26 1.5v-530h-346z" />
    <glyph glyph-name="Q" unicode="Q" horiz-adv-x="1630" 
d="M238 -115q13 71 35 142t55 145q-125 112 -188.5 254.5t-63.5 308.5q0 128 39 248t114 219q106 141 259 218t327 77q124 0 238.5 -39.5t212.5 -116.5q139 -109 213.5 -268t74.5 -348q0 -150 -58 -289t-163 -241q-94 -94 -213.5 -145.5t-238.5 -51.5q-51 0 -174 26l-2 1
l-3 -21q68 -15 302 -94t401 -88l-84 -260q-185 14 -515 155q-43 18 -65 27l-12 5q-283 120 -491 136zM432 725q0 -189 110.5 -316.5t272.5 -127.5q163 0 273 127t110 317q0 191 -110 318.5t-273 127.5q-162 0 -272.5 -127.5t-110.5 -318.5z" />
    <glyph glyph-name="R" unicode="R" horiz-adv-x="1305" 
d="M559 1186h-57v-402h73q131 0 200 53t69 152q0 104 -67 150.5t-218 46.5zM166 0v1450h373q179 0 277.5 -23.5t174.5 -78.5q81 -58 125.5 -143.5t44.5 -180.5q0 -137 -69.5 -240t-200.5 -161l442 -623h-395l-387 569h-49v-569h-336z" />
    <glyph glyph-name="S" unicode="S" horiz-adv-x="1128" 
d="M100 410q134 -82 227.5 -115t182.5 -33q90 0 144.5 39.5t54.5 101.5q0 89 -194 200q-31 18 -48 28l-98 55q-143 81 -212 183t-69 231q0 175 132 287t341 112q77 0 167 -18t200 -56v-340q-105 66 -199 102t-160 36q-73 0 -115 -31.5t-42 -85.5q0 -38 25 -71t75 -60
l170 -94q213 -118 286.5 -218t73.5 -237q0 -212 -144.5 -342.5t-383.5 -130.5q-81 0 -176 17t-209 53z" />
    <glyph glyph-name="T" unicode="T" horiz-adv-x="1266" 
d="M461 0v1147h-461v303h1266v-303h-459v-1147h-346z" />
    <glyph glyph-name="U" unicode="U" horiz-adv-x="1522" 
d="M494 1450v-797q0 -192 70.5 -287.5t213.5 -95.5q138 0 210.5 89t72.5 259v832h309v-832q0 -314 -161 -489.5t-447 -175.5q-289 0 -449.5 174t-160.5 489v834h342z" />
    <glyph glyph-name="V" unicode="V" horiz-adv-x="1294" 
d="M659 -55h-24l-684 1505h366l342 -793l345 793h339z" />
    <glyph glyph-name="W" unicode="W" horiz-adv-x="1831" 
d="M586 -47l-606 1497h350l282 -782l303 829h27l305 -829l279 782h323l-602 -1497h-22l-310 829l-303 -829h-26z" />
    <glyph glyph-name="X" unicode="X" horiz-adv-x="1475" 
d="M16 0l521 750l-514 700h423l299 -414l281 414h377l-467 -670l571 -780h-426l-352 492l-334 -492h-379z" />
    <glyph glyph-name="Y" unicode="Y" horiz-adv-x="1270" 
d="M446 0v688l-518 762h418l303 -459l334 459h367l-559 -748v-702h-345z" />
    <glyph glyph-name="Z" unicode="Z" horiz-adv-x="1370" 
d="M35 0l721 1147h-647l55 303h1151l-719 -1143h719l-55 -307h-1225z" />
    <glyph glyph-name="bracketleft" unicode="[" horiz-adv-x="711" 
d="M707 -301h-537v1751h537v-111h-285v-1529h285v-111z" />
    <glyph glyph-name="backslash" unicode="\" horiz-adv-x="616" 
d="M520 -190l-540 1687h149l539 -1687h-148z" />
    <glyph glyph-name="bracketright" unicode="]" horiz-adv-x="711" 
d="M4 1450h537v-1751h-537v111h285v1529h-285v111z" />
    <glyph glyph-name="asciicircum" unicode="^" horiz-adv-x="2048" 
d="M897 1460h252l481 -561h-235l-371 371l-373 -371h-235z" />
    <glyph glyph-name="underscore" unicode="_" 
d="M0 -279h1024v-204h-1024v204z" />
    <glyph glyph-name="grave" unicode="`" 
d="M659 1055h-131l-295 346h222z" />
    <glyph glyph-name="a" unicode="a" horiz-adv-x="1133" 
d="M702 672q-28 16 -53.5 23t-50.5 7q-89 0 -150 -74.5t-61 -187.5q0 -106 53.5 -176.5t130.5 -70.5q31 0 63.5 16.5t67.5 50.5v412zM1016 901v-563q0 -106 4 -178t12 -123l-291 -80l-28 86q-59 -44 -115.5 -65t-118.5 -21q-174 0 -292.5 139t-118.5 346q0 218 133 360
t336 142q47 0 98 -13t113 -40z" />
    <glyph glyph-name="b" unicode="b" horiz-adv-x="1133" 
d="M432 207q34 -9 57.5 -13t42.5 -4q92 0 154 75t62 190q0 104 -51.5 167.5t-133.5 63.5q-23 0 -55.5 -11.5t-75.5 -35.5v-432zM119 -43v1470l313 43v-608q60 31 115.5 46.5t107.5 15.5q184 0 298 -130.5t114 -340.5q0 -222 -135.5 -358t-356.5 -136q-28 0 -63 3.5t-79 10.5
l-114 27z" />
    <glyph glyph-name="c" unicode="c" horiz-adv-x="999" 
d="M909 51q-83 -47 -163.5 -69.5t-165.5 -22.5q-225 0 -369.5 135t-144.5 342q0 215 155.5 360.5t390.5 145.5q86 0 168 -19.5t158 -58.5l-35 -280q-74 45 -142.5 68.5t-127.5 23.5q-106 0 -176 -64.5t-70 -160.5q0 -102 65 -164t171 -62q66 0 141 28.5t174 92.5z" />
    <glyph glyph-name="d" unicode="d" horiz-adv-x="1133" 
d="M702 672q-28 16 -53.5 23t-50.5 7q-89 0 -150 -74.5t-61 -187.5q0 -106 53.5 -176.5t130.5 -70.5q30 0 62.5 12.5t68.5 38.5v428zM1016 1470v-1470l-275 -43l-12 70q-66 -36 -130 -53t-130 -17q-189 0 -295 125t-106 346q0 232 124.5 372t329.5 140q48 0 92 -9.5
t88 -29.5v526z" />
    <glyph glyph-name="e" unicode="e" horiz-adv-x="1063" 
d="M365 535l391 12v14q0 71 -50 116.5t-126 45.5q-85 0 -142 -49.5t-73 -138.5zM963 322l-35 -277q-92 -44 -181 -65t-180 -21q-225 0 -363 129.5t-138 337.5q0 217 151 366.5t367 149.5q185 0 303.5 -109.5t118.5 -283.5q0 -27 -4 -86l-1 -6l-28 -41l-615 -17
q7 -91 76 -147.5t174 -56.5q74 0 164.5 32t190.5 95z" />
    <glyph glyph-name="f" unicode="f" horiz-adv-x="721" 
d="M709 901v-237h-215v-664h-320v664h-131v237h131v80q0 168 52 288t141 158l356 43v-98q-116 -29 -172.5 -110.5t-56.5 -221.5v-139h215z" />
    <glyph glyph-name="g" unicode="g" horiz-adv-x="1133" 
d="M702 672q-28 16 -53.5 23t-50.5 7q-89 0 -150 -74.5t-61 -187.5q0 -106 53.5 -176.5t130.5 -70.5q30 0 63.5 17t67.5 50v412zM1016 901v-817q0 -124 -12 -186.5t-39 -114.5q-56 -108 -163 -163.5t-259 -55.5q-91 0 -184.5 20t-198.5 62l-4 250q100 -54 182 -79.5
t154 -25.5q105 0 163 50t58 141v61q-54 -34 -107 -50t-112 -16q-191 0 -308.5 128t-117.5 337q0 217 133 359.5t336 142.5q47 0 98 -13t113 -40z" />
    <glyph glyph-name="h" unicode="h" horiz-adv-x="1139" 
d="M436 0h-313v1427l313 43v-696q66 77 141.5 114.5t163.5 37.5q143 0 217 -82t74 -240v-604h-311v516q0 71 -29 107t-86 36q-82 0 -126 -55t-44 -160v-444z" />
    <glyph glyph-name="i" unicode="i" horiz-adv-x="545" 
d="M100 1237q0 72 50 122t122 50q73 0 122.5 -49.5t49.5 -122.5q0 -72 -50 -123t-122 -51q-70 0 -121 51.5t-51 122.5zM432 0h-317v901l317 43v-944z" />
    <glyph glyph-name="j" unicode="j" horiz-adv-x="545" 
d="M106 1237q0 72 50 122t123 50q72 0 122 -49.5t50 -122.5q0 -72 -50.5 -123t-121.5 -51t-122 51.5t-51 122.5zM438 -4q0 -124 -16.5 -209t-52.5 -156l-420 -65q91 89 131.5 196t40.5 269v870l317 43v-948z" />
    <glyph glyph-name="k" unicode="k" horiz-adv-x="1053" 
d="M426 0h-303v1427l303 43v-940l276 371h328l-313 -385l387 -516h-346l-332 479v-479z" />
    <glyph glyph-name="l" unicode="l" horiz-adv-x="545" 
d="M432 0h-317v1427l317 43v-1470z" />
    <glyph glyph-name="m" unicode="m" horiz-adv-x="1726" 
d="M1028 0h-313v516q0 69 -29.5 106t-83.5 37q-77 0 -120.5 -56t-43.5 -159v-444h-313v901h291v-151q78 92 154.5 134t166.5 42q99 0 163.5 -41t109.5 -131q66 86 144.5 129t170.5 43q150 0 221.5 -84.5t71.5 -261.5v-580h-313v516q0 69 -29.5 106t-83.5 37q-78 0 -121 -56
t-43 -159v-444z" />
    <glyph glyph-name="n" unicode="n" horiz-adv-x="1139" 
d="M436 0h-313v901h289v-151q72 89 153 132.5t176 43.5q143 0 217 -82t74 -240v-604h-311v516q0 71 -29 107t-86 36q-82 0 -126 -55t-44 -160v-444z" />
    <glyph glyph-name="o" unicode="o" horiz-adv-x="1118" 
d="M383 451q0 -115 49.5 -185.5t126.5 -70.5t126.5 71t49.5 185q0 113 -49.5 184.5t-126.5 71.5t-126.5 -71t-49.5 -185zM63 451q0 215 140.5 354t355.5 139q216 0 357 -139t141 -354t-141 -354.5t-357 -139.5q-214 0 -355 139.5t-141 354.5z" />
    <glyph glyph-name="p" unicode="p" horiz-adv-x="1133" 
d="M123 -434v1335h313q47 18 93 26.5t94 8.5q195 0 321.5 -135t126.5 -348q0 -221 -136.5 -357.5t-356.5 -136.5q-29 0 -62 3.5t-82 10.5v-354zM436 207q33 -9 57 -13t44 -4q91 0 152 75t61 190q0 107 -55.5 177t-137.5 70q-25 0 -53 -5.5t-68 -18.5v-471z" />
    <glyph glyph-name="q" unicode="q" horiz-adv-x="1133" 
d="M702 686q-28 8 -55.5 12t-48.5 4q-90 0 -150.5 -74t-60.5 -188q0 -106 53.5 -176.5t130.5 -70.5q25 0 54 8.5t77 31.5v453zM1016 901v-1294l-314 -43v452q-60 -29 -116.5 -44t-106.5 -15q-188 0 -300.5 125.5t-112.5 335.5q0 235 126.5 375.5t337.5 140.5q46 0 99 -8
t119 -25h268z" />
    <glyph glyph-name="r" unicode="r" horiz-adv-x="797" 
d="M438 0h-315v901h293l6 -158q54 95 126.5 138t180.5 43h25v-336h-33h-35q-147 0 -197.5 -33.5t-50.5 -161.5v-393z" />
    <glyph glyph-name="s" unicode="s" horiz-adv-x="868" 
d="M119 41v248q119 -76 185 -102.5t122 -26.5q49 0 79 21.5t30 56.5q0 30 -21 50t-72 38l-116 41q-114 39 -173 109.5t-59 166.5q0 136 95 218.5t253 82.5q73 0 154.5 -20.5t181.5 -63.5l-39 -219q-60 51 -131 80t-133 29q-46 0 -75 -21.5t-29 -54.5q0 -28 16.5 -44.5
t73.5 -35.5l108 -39q127 -45 181.5 -109t54.5 -167q0 -149 -98 -235.5t-267 -86.5q-82 0 -161.5 20.5t-159.5 63.5z" />
    <glyph glyph-name="t" unicode="t" horiz-adv-x="725" 
d="M174 303v361h-131v237h131v270l320 43v-313h213v-237h-213v-383q0 -122 33 -176.5t124 -100.5l-356 -24q-67 32 -94 95.5t-27 227.5z" />
    <glyph glyph-name="u" unicode="u" horiz-adv-x="1130" 
d="M707 901h311v-901l-289 -43v176q-73 -90 -153 -133t-175 -43q-143 0 -217.5 82t-74.5 240v622h313v-534q0 -71 29 -107.5t86 -36.5q82 0 126 55.5t44 159.5v463z" />
    <glyph glyph-name="v" unicode="v" horiz-adv-x="909" 
d="M438 -57l-452 958h346l149 -344l156 344h289l-459 -958h-29z" />
    <glyph glyph-name="w" unicode="w" horiz-adv-x="1436" 
d="M475 -57h-26l-461 958h338l186 -407l217 460h37l205 -460l194 407h287l-475 -958h-27l-231 508z" />
    <glyph glyph-name="x" unicode="x" horiz-adv-x="938" 
d="M-41 0l344 444l-323 457h366l150 -211l163 211h308l-324 -422l340 -479h-369l-163 233l-181 -233h-311z" />
    <glyph glyph-name="y" unicode="y" horiz-adv-x="920" 
d="M324 0l-324 901h338l145 -465l179 465h278l-565 -1337h-338q76 72 140.5 162.5t111.5 193.5z" />
    <glyph glyph-name="z" unicode="z" horiz-adv-x="928" 
d="M-4 0l403 664h-348l55 237h791l-403 -663h391l-37 -238h-852z" />
    <glyph glyph-name="braceleft" unicode="{" 
d="M883 1477v-209q-9 0 -25 1t-22 1q-101 0 -136.5 -38.5t-35.5 -162.5v-240q0 -148 -45 -210t-162 -89q117 -27 162 -88t45 -209v-241q0 -123 35 -161t137 -38q6 0 22 1t25 1v-209q-14 0 -39 -1t-37 -1q-100 0 -167 12t-114 37q-57 34 -80.5 91.5t-23.5 199.5v252
q0 137 -51 194.5t-172 57.5q-6 0 -20 -1t-21 -1v209q7 0 21 -1t20 -1q120 0 171.5 58t51.5 196v250q0 143 23.5 201t80.5 92q47 25 114 37t167 12q12 0 37 -1t39 -1z" />
    <glyph glyph-name="bar" unicode="|" 
d="M410 1565h206v-2048h-206v2048z" />
    <glyph glyph-name="braceright" unicode="}" 
d="M143 1477h68q110 0 177 -12t112 -38q57 -32 80.5 -91.5t23.5 -198.5v-252q0 -137 51 -194.5t172 -57.5q6 0 20 1t21 1v-209h-37q-125 0 -176 -56t-51 -194v-252q0 -143 -23.5 -201t-80.5 -90q-47 -25 -114 -37t-167 -12q-12 0 -37 1t-39 1v209q9 0 25 -1t22 -1
q101 0 136.5 38.5t35.5 160.5v239q0 150 45 211.5t162 87.5q-117 27 -162 89t-45 210v242q0 122 -35.5 160.5t-136.5 38.5q-6 0 -22 -1t-25 -1v209z" />
    <glyph glyph-name="asciitilde" unicode="~" horiz-adv-x="1706" 
d="M1530 803v-221q-104 -71 -196.5 -104.5t-182.5 -33.5q-46 0 -92 8t-92 23q-24 8 -71 25q-219 75 -333 75q-85 0 -177.5 -37.5t-207.5 -119.5v221q107 72 204 107.5t183 35.5q117 0 291 -58l4 -1q18 -6 55 -19q155 -55 240 -55t175 37t200 117z" />
    <glyph glyph-name="Adieresis" unicode="&#xc4;" horiz-adv-x="1366" 
d="M481 461h381l-188 454zM-61 0l739 1495h22l723 -1495h-362l-92 211h-588l-94 -211h-348zM745 1774q0 47 37 83.5t86 36.5t84 -35.5t35 -84.5q0 -54 -33 -87.5t-86 -33.5q-51 0 -87 35t-36 86zM381 1774q0 48 36 84t85 36t85 -35.5t36 -84.5q0 -54 -34 -87.5t-87 -33.5
q-51 0 -86 35t-35 86z" />
    <glyph glyph-name="Aring" unicode="&#xc5;" horiz-adv-x="1366" 
d="M561 1722q0 -52 35.5 -87.5t87.5 -35.5q53 0 89 35.5t36 87.5t-36 87.5t-89 35.5q-52 0 -87.5 -35t-35.5 -88zM481 461h381l-188 454zM-61 0l726 1474q-102 10 -166.5 79t-64.5 169q0 104 73 177t177 73t177 -73t73 -177q0 -97 -63 -166t-162 -81l714 -1475h-362l-92 211
h-588l-94 -211h-348z" />
    <glyph glyph-name="Ccedilla" unicode="&#xc7;" horiz-adv-x="1341" 
d="M1237 991q-94 97 -190.5 144t-202.5 47q-184 0 -301 -127t-117 -326t116 -322.5t302 -123.5q110 0 219.5 46t218.5 138l-22 -385q-93 -63 -203.5 -96t-229.5 -33q-128 0 -245.5 40t-216.5 118q-140 110 -214.5 268.5t-74.5 345.5q0 161 55 302t160 249q106 108 245 165.5
t293 57.5q122 0 233 -34t212 -103zM555 -434v119q82 -22 146.5 -32.5t109.5 -10.5q53 0 80.5 19t27.5 56q0 42 -34 61t-109 19q-6 0 -20 -1t-21 -1v205h90v-94h16q120 0 178 -47.5t58 -145.5q0 -91 -65 -140.5t-185 -49.5q-54 0 -124 11t-148 32z" />
    <glyph glyph-name="Eacute" unicode="&#xc9;" horiz-adv-x="1165" 
d="M166 0v1450h893v-299h-557v-262h477v-297h-477v-287h565v-305h-901zM467 1612l204 346h222l-295 -346h-131z" />
    <glyph glyph-name="Ntilde" unicode="&#xd1;" horiz-adv-x="1587" 
d="M166 0v1497h33l903 -846v799h319v-1505h-30l-906 846v-791h-319zM1096 1894q-23 -117 -71 -171t-128 -54q-15 0 -32.5 2.5t-36.5 7.5l-84 25q-20 5 -35 7.5t-29 2.5q-33 0 -54 -16.5t-32 -50.5h-100q20 110 67.5 164.5t124.5 54.5q19 0 40.5 -4t44.5 -11l87 -24
q13 -3 25.5 -4.5t26.5 -1.5q32 0 54.5 19t31.5 54h100z" />
    <glyph glyph-name="Odieresis" unicode="&#xd6;" horiz-adv-x="1630" 
d="M432 725q0 -189 110.5 -316.5t272.5 -127.5q163 0 273 127t110 317q0 191 -110 318.5t-273 127.5q-162 0 -272.5 -127.5t-110.5 -318.5zM76 725q0 161 55.5 301.5t163.5 251.5q102 106 237 162.5t283 56.5t283.5 -57t240.5 -164q106 -107 160.5 -247.5t54.5 -303.5
q0 -136 -38 -256t-113 -219q-106 -141 -260.5 -219t-327.5 -78q-147 0 -281.5 57t-238.5 164q-108 111 -163.5 250.5t-55.5 300.5zM876 1774q0 47 37 83.5t86 36.5t84 -35.5t35 -84.5q0 -54 -33 -87.5t-86 -33.5q-51 0 -87 35t-36 86zM512 1774q0 48 36 84t85 36t85 -35.5
t36 -84.5q0 -54 -34 -87.5t-87 -33.5q-51 0 -86 35t-35 86z" />
    <glyph glyph-name="Udieresis" unicode="&#xdc;" horiz-adv-x="1522" 
d="M494 1450v-797q0 -192 70.5 -287.5t213.5 -95.5q138 0 210.5 89t72.5 259v832h309v-832q0 -314 -161 -489.5t-447 -175.5q-289 0 -449.5 174t-160.5 489v834h342zM823 1774q0 47 37 83.5t86 36.5t84 -35.5t35 -84.5q0 -54 -33 -87.5t-86 -33.5q-51 0 -87 35t-36 86z
M459 1774q0 48 36 84t85 36t85 -35.5t36 -84.5q0 -54 -34 -87.5t-87 -33.5q-51 0 -86 35t-35 86z" />
    <glyph glyph-name="aacute" unicode="&#xe1;" horiz-adv-x="1133" 
d="M702 672q-28 16 -53.5 23t-50.5 7q-89 0 -150 -74.5t-61 -187.5q0 -106 53.5 -176.5t130.5 -70.5q31 0 63.5 16.5t67.5 50.5v412zM1016 901v-563q0 -106 4 -178t12 -123l-291 -80l-28 86q-59 -44 -115.5 -65t-118.5 -21q-174 0 -292.5 139t-118.5 346q0 218 133 360
t336 142q47 0 98 -13t113 -40zM441 1055l204 346h222l-295 -346h-131z" />
    <glyph glyph-name="agrave" unicode="&#xe0;" horiz-adv-x="1133" 
d="M702 672q-28 16 -53.5 23t-50.5 7q-89 0 -150 -74.5t-61 -187.5q0 -106 53.5 -176.5t130.5 -70.5q31 0 63.5 16.5t67.5 50.5v412zM1016 901v-563q0 -106 4 -178t12 -123l-291 -80l-28 86q-59 -44 -115.5 -65t-118.5 -21q-174 0 -292.5 139t-118.5 346q0 218 133 360
t336 142q47 0 98 -13t113 -40zM735 1055h-131l-295 346h222z" />
    <glyph glyph-name="acircumflex" unicode="&#xe2;" horiz-adv-x="1133" 
d="M702 672q-28 16 -53.5 23t-50.5 7q-89 0 -150 -74.5t-61 -187.5q0 -106 53.5 -176.5t130.5 -70.5q31 0 63.5 16.5t67.5 50.5v412zM1016 901v-563q0 -106 4 -178t12 -123l-291 -80l-28 86q-59 -44 -115.5 -65t-118.5 -21q-174 0 -292.5 139t-118.5 346q0 218 133 360
t336 142q47 0 98 -13t113 -40zM291 1053l188 348h218l188 -348h-131l-166 211l-168 -211h-129z" />
    <glyph glyph-name="adieresis" unicode="&#xe4;" horiz-adv-x="1133" 
d="M702 672q-28 16 -53.5 23t-50.5 7q-89 0 -150 -74.5t-61 -187.5q0 -106 53.5 -176.5t130.5 -70.5q31 0 63.5 16.5t67.5 50.5v412zM1016 901v-563q0 -106 4 -178t12 -123l-291 -80l-28 86q-59 -44 -115.5 -65t-118.5 -21q-174 0 -292.5 139t-118.5 346q0 218 133 360
t336 142q47 0 98 -13t113 -40zM649 1217q0 47 37 83.5t86 36.5t84 -35.5t35 -84.5q0 -54 -33 -87.5t-86 -33.5q-51 0 -87 35t-36 86zM285 1217q0 48 36 84t85 36t85 -35.5t36 -84.5q0 -54 -34 -87.5t-87 -33.5q-51 0 -86 35t-35 86z" />
    <glyph glyph-name="atilde" unicode="&#xe3;" horiz-adv-x="1133" 
d="M702 672q-28 16 -53.5 23t-50.5 7q-89 0 -150 -74.5t-61 -187.5q0 -106 53.5 -176.5t130.5 -70.5q31 0 63.5 16.5t67.5 50.5v412zM1016 901v-563q0 -106 4 -178t12 -123l-291 -80l-28 86q-59 -44 -115.5 -65t-118.5 -21q-174 0 -292.5 139t-118.5 346q0 218 133 360
t336 142q47 0 98 -13t113 -40zM889 1337q-23 -117 -71 -171t-128 -54q-15 0 -32.5 2.5t-36.5 7.5l-84 25q-20 5 -35 7.5t-29 2.5q-33 0 -54 -16.5t-32 -50.5h-100q20 110 67.5 164.5t124.5 54.5q19 0 40.5 -4t44.5 -11l87 -24q13 -3 25.5 -4.5t26.5 -1.5q32 0 54.5 19
t31.5 54h100z" />
    <glyph glyph-name="aring" unicode="&#xe5;" horiz-adv-x="1133" 
d="M487 1268q0 -54 37 -91.5t90 -37.5t90 37.5t37 91.5q0 53 -36.5 90t-90.5 37q-53 0 -90 -37t-37 -90zM356 1268q0 107 75.5 182.5t182.5 75.5q108 0 183 -75.5t75 -182.5q0 -109 -74.5 -183.5t-183.5 -74.5q-108 0 -183 74.5t-75 183.5zM702 672q-28 16 -53.5 23t-50.5 7
q-89 0 -150 -74.5t-61 -187.5q0 -106 53.5 -176.5t130.5 -70.5q31 0 63.5 16.5t67.5 50.5v412zM1016 901v-563q0 -106 4 -178t12 -123l-291 -80l-28 86q-59 -44 -115.5 -65t-118.5 -21q-174 0 -292.5 139t-118.5 346q0 218 133 360t336 142q47 0 98 -13t113 -40z" />
    <glyph glyph-name="ccedilla" unicode="&#xe7;" horiz-adv-x="999" 
d="M909 51q-83 -47 -163.5 -69.5t-165.5 -22.5q-225 0 -369.5 135t-144.5 342q0 215 155.5 360.5t390.5 145.5q86 0 168 -19.5t158 -58.5l-35 -280q-74 45 -142.5 68.5t-127.5 23.5q-106 0 -176 -64.5t-70 -160.5q0 -102 65 -164t171 -62q66 0 141 28.5t174 92.5zM322 -434
v119q82 -22 146.5 -32.5t109.5 -10.5q53 0 80.5 19t27.5 56q0 42 -34 61t-109 19q-6 0 -20 -1t-21 -1v205h90v-94h16q120 0 178 -47.5t58 -145.5q0 -91 -65 -140.5t-185 -49.5q-54 0 -124 11t-148 32z" />
    <glyph glyph-name="eacute" unicode="&#xe9;" horiz-adv-x="1063" 
d="M365 535l391 12v14q0 71 -50 116.5t-126 45.5q-85 0 -142 -49.5t-73 -138.5zM963 322l-35 -277q-92 -44 -181 -65t-180 -21q-225 0 -363 129.5t-138 337.5q0 217 151 366.5t367 149.5q185 0 303.5 -109.5t118.5 -283.5q0 -27 -4 -86l-1 -6l-28 -41l-615 -17
q7 -91 76 -147.5t174 -56.5q74 0 164.5 32t190.5 95zM406 1055l204 346h222l-295 -346h-131z" />
    <glyph glyph-name="egrave" unicode="&#xe8;" horiz-adv-x="1063" 
d="M365 535l391 12v14q0 71 -50 116.5t-126 45.5q-85 0 -142 -49.5t-73 -138.5zM963 322l-35 -277q-92 -44 -181 -65t-180 -21q-225 0 -363 129.5t-138 337.5q0 217 151 366.5t367 149.5q185 0 303.5 -109.5t118.5 -283.5q0 -27 -4 -86l-1 -6l-28 -41l-615 -17
q7 -91 76 -147.5t174 -56.5q74 0 164.5 32t190.5 95zM700 1055h-131l-295 346h222z" />
    <glyph glyph-name="ecircumflex" unicode="&#xea;" horiz-adv-x="1063" 
d="M365 535l391 12v14q0 71 -50 116.5t-126 45.5q-85 0 -142 -49.5t-73 -138.5zM963 322l-35 -277q-92 -44 -181 -65t-180 -21q-225 0 -363 129.5t-138 337.5q0 217 151 366.5t367 149.5q185 0 303.5 -109.5t118.5 -283.5q0 -27 -4 -86l-1 -6l-28 -41l-615 -17
q7 -91 76 -147.5t174 -56.5q74 0 164.5 32t190.5 95zM256 1053l188 348h218l188 -348h-131l-166 211l-168 -211h-129z" />
    <glyph glyph-name="edieresis" unicode="&#xeb;" horiz-adv-x="1063" 
d="M365 535l391 12v14q0 71 -50 116.5t-126 45.5q-85 0 -142 -49.5t-73 -138.5zM963 322l-35 -277q-92 -44 -181 -65t-180 -21q-225 0 -363 129.5t-138 337.5q0 217 151 366.5t367 149.5q185 0 303.5 -109.5t118.5 -283.5q0 -27 -4 -86l-1 -6l-28 -41l-615 -17
q7 -91 76 -147.5t174 -56.5q74 0 164.5 32t190.5 95zM614 1217q0 47 37 83.5t86 36.5t84 -35.5t35 -84.5q0 -54 -33 -87.5t-86 -33.5q-51 0 -87 35t-36 86zM250 1217q0 48 36 84t85 36t85 -35.5t36 -84.5q0 -54 -34 -87.5t-87 -33.5q-51 0 -86 35t-35 86z" />
    <glyph glyph-name="iacute" unicode="&#xed;" horiz-adv-x="545" 
d="M432 0h-317v901l317 43v-944zM136 1055l204 346h222l-295 -346h-131z" />
    <glyph glyph-name="igrave" unicode="&#xec;" horiz-adv-x="545" 
d="M432 0h-317v901l317 43v-944zM430 1055h-131l-295 346h222z" />
    <glyph glyph-name="icircumflex" unicode="&#xee;" horiz-adv-x="545" 
d="M432 0h-317v901l317 43v-944zM-14 1053l188 348h218l188 -348h-131l-166 211l-168 -211h-129z" />
    <glyph glyph-name="idieresis" unicode="&#xef;" horiz-adv-x="545" 
d="M432 0h-317v901l317 43v-944zM344 1217q0 47 37 83.5t86 36.5t84 -35.5t35 -84.5q0 -54 -33 -87.5t-86 -33.5q-51 0 -87 35t-36 86zM-20 1217q0 48 36 84t85 36t85 -35.5t36 -84.5q0 -54 -34 -87.5t-87 -33.5q-51 0 -86 35t-35 86z" />
    <glyph glyph-name="ntilde" unicode="&#xf1;" horiz-adv-x="1139" 
d="M436 0h-313v901h289v-151q72 89 153 132.5t176 43.5q143 0 217 -82t74 -240v-604h-311v516q0 71 -29 107t-86 36q-82 0 -126 -55t-44 -160v-444zM881 1337q-23 -117 -71 -171t-128 -54q-15 0 -32.5 2.5t-36.5 7.5l-84 25q-20 5 -35 7.5t-29 2.5q-33 0 -54 -16.5
t-32 -50.5h-100q20 110 67.5 164.5t124.5 54.5q19 0 40.5 -4t44.5 -11l87 -24q13 -3 25.5 -4.5t26.5 -1.5q32 0 54.5 19t31.5 54h100z" />
    <glyph glyph-name="oacute" unicode="&#xf3;" horiz-adv-x="1118" 
d="M383 451q0 -115 49.5 -185.5t126.5 -70.5t126.5 71t49.5 185q0 113 -49.5 184.5t-126.5 71.5t-126.5 -71t-49.5 -185zM63 451q0 215 140.5 354t355.5 139q216 0 357 -139t141 -354t-141 -354.5t-357 -139.5q-214 0 -355 139.5t-141 354.5zM412 1055l204 346h222
l-295 -346h-131z" />
    <glyph glyph-name="ograve" unicode="&#xf2;" horiz-adv-x="1118" 
d="M383 451q0 -115 49.5 -185.5t126.5 -70.5t126.5 71t49.5 185q0 113 -49.5 184.5t-126.5 71.5t-126.5 -71t-49.5 -185zM63 451q0 215 140.5 354t355.5 139q216 0 357 -139t141 -354t-141 -354.5t-357 -139.5q-214 0 -355 139.5t-141 354.5zM706 1055h-131l-295 346h222z
" />
    <glyph glyph-name="ocircumflex" unicode="&#xf4;" horiz-adv-x="1118" 
d="M383 451q0 -115 49.5 -185.5t126.5 -70.5t126.5 71t49.5 185q0 113 -49.5 184.5t-126.5 71.5t-126.5 -71t-49.5 -185zM63 451q0 215 140.5 354t355.5 139q216 0 357 -139t141 -354t-141 -354.5t-357 -139.5q-214 0 -355 139.5t-141 354.5zM262 1053l188 348h218l188 -348
h-131l-166 211l-168 -211h-129z" />
    <glyph glyph-name="odieresis" unicode="&#xf6;" horiz-adv-x="1118" 
d="M383 451q0 -115 49.5 -185.5t126.5 -70.5t126.5 71t49.5 185q0 113 -49.5 184.5t-126.5 71.5t-126.5 -71t-49.5 -185zM63 451q0 215 140.5 354t355.5 139q216 0 357 -139t141 -354t-141 -354.5t-357 -139.5q-214 0 -355 139.5t-141 354.5zM620 1217q0 47 37 83.5t86 36.5
t84 -35.5t35 -84.5q0 -54 -33 -87.5t-86 -33.5q-51 0 -87 35t-36 86zM256 1217q0 48 36 84t85 36t85 -35.5t36 -84.5q0 -54 -34 -87.5t-87 -33.5q-51 0 -86 35t-35 86z" />
    <glyph glyph-name="otilde" unicode="&#xf5;" horiz-adv-x="1118" 
d="M383 451q0 -115 49.5 -185.5t126.5 -70.5t126.5 71t49.5 185q0 113 -49.5 184.5t-126.5 71.5t-126.5 -71t-49.5 -185zM63 451q0 215 140.5 354t355.5 139q216 0 357 -139t141 -354t-141 -354.5t-357 -139.5q-214 0 -355 139.5t-141 354.5zM860 1337q-23 -117 -71 -171
t-128 -54q-15 0 -32.5 2.5t-36.5 7.5l-84 25q-20 5 -35 7.5t-29 2.5q-33 0 -54 -16.5t-32 -50.5h-100q20 110 67.5 164.5t124.5 54.5q19 0 40.5 -4t44.5 -11l87 -24q13 -3 25.5 -4.5t26.5 -1.5q32 0 54.5 19t31.5 54h100z" />
    <glyph glyph-name="uacute" unicode="&#xfa;" horiz-adv-x="1130" 
d="M707 901h311v-901l-289 -43v176q-73 -90 -153 -133t-175 -43q-143 0 -217.5 82t-74.5 240v622h313v-534q0 -71 29 -107.5t86 -36.5q82 0 126 55.5t44 159.5v463zM418 1055l204 346h222l-295 -346h-131z" />
    <glyph glyph-name="ugrave" unicode="&#xf9;" horiz-adv-x="1130" 
d="M707 901h311v-901l-289 -43v176q-73 -90 -153 -133t-175 -43q-143 0 -217.5 82t-74.5 240v622h313v-534q0 -71 29 -107.5t86 -36.5q82 0 126 55.5t44 159.5v463zM712 1055h-131l-295 346h222z" />
    <glyph glyph-name="ucircumflex" unicode="&#xfb;" horiz-adv-x="1130" 
d="M707 901h311v-901l-289 -43v176q-73 -90 -153 -133t-175 -43q-143 0 -217.5 82t-74.5 240v622h313v-534q0 -71 29 -107.5t86 -36.5q82 0 126 55.5t44 159.5v463zM268 1053l188 348h218l188 -348h-131l-166 211l-168 -211h-129z" />
    <glyph glyph-name="udieresis" unicode="&#xfc;" horiz-adv-x="1130" 
d="M707 901h311v-901l-289 -43v176q-73 -90 -153 -133t-175 -43q-143 0 -217.5 82t-74.5 240v622h313v-534q0 -71 29 -107.5t86 -36.5q82 0 126 55.5t44 159.5v463zM626 1217q0 47 37 83.5t86 36.5t84 -35.5t35 -84.5q0 -54 -33 -87.5t-86 -33.5q-51 0 -87 35t-36 86z
M262 1217q0 48 36 84t85 36t85 -35.5t36 -84.5q0 -54 -34 -87.5t-87 -33.5q-51 0 -86 35t-35 86z" />
    <glyph glyph-name="dagger" unicode="&#x2020;" 
d="M633 1450l-80 -426l340 78v-240l-342 86q13 -85 34 -173.5t52 -182.5q-31 -129 -52.5 -352t-29.5 -508h-86q-7 278 -28.5 502.5t-53.5 357.5q31 94 52 182.5t34 173.5l-342 -86v240l340 -78l-80 426h242z" />
    <glyph glyph-name="degree" unicode="&#xb0;" horiz-adv-x="674" 
d="M338 1335q-73 0 -124.5 -51t-51.5 -123q0 -74 51 -125t125 -51q72 0 123 52t51 124t-51 123t-123 51zM338 1464q126 0 214.5 -89.5t88.5 -215.5q0 -125 -89 -214t-216 -89q-126 0 -213.5 88t-87.5 215t88.5 216t214.5 89z" />
    <glyph glyph-name="cent" unicode="&#xa2;" horiz-adv-x="1186" 
d="M553 301l141 415q-105 -1 -174 -66.5t-69 -160.5q0 -61 24.5 -106.5t77.5 -81.5zM977 90q-84 -45 -164.5 -67.5t-163.5 -22.5h-33h-16l-92 -272h-150l101 299q-149 47 -237.5 169t-88.5 279q0 217 155 362.5t390 145.5q26 0 52 -2t52 -6l86 252h150l-96 -286
q17 -7 38.5 -16.5t44.5 -21.5l-36 -280q-37 24 -71 41t-64 26l-144 -424h12q58 0 129.5 28.5t174.5 92.5z" />
    <glyph glyph-name="sterling" unicode="&#xa3;" horiz-adv-x="1186" 
d="M88 -43v330q99 52 148 138t49 208v29h-197v190h168q-16 87 -23.5 148.5t-7.5 101.5q0 182 116 289.5t312 107.5q132 0 233.5 -55t186.5 -172l-237 -172q-28 71 -67 106t-91 35q-59 0 -92 -39.5t-33 -109.5q0 -29 13.5 -111.5t19.5 -128.5h309v-190h-289v-15
q0 -88 -18.5 -165t-57.5 -150q77 -49 136.5 -72.5t105.5 -23.5q53 0 86.5 24.5t56.5 81.5l232 -102q-38 -138 -124 -212.5t-208 -74.5q-78 0 -173.5 38.5t-242.5 131.5q-78 -71 -154.5 -111.5t-156.5 -54.5z" />
    <glyph glyph-name="section" unicode="&#xa7;" 
d="M305 803q0 -36 31.5 -82t122.5 -137l15 -16q110 -113 169 -113q33 0 54.5 24t21.5 62q0 24 -28 64.5t-107 127.5q-77 82 -122 115t-79 33q-31 0 -54.5 -24t-23.5 -54zM158 -14l159 114q43 -59 87.5 -91t84.5 -32q44 0 73.5 29.5t29.5 71.5q0 36 -24 75t-97 111l-203 205
q-98 100 -136 169.5t-38 141.5q0 93 55 159.5t152 90.5q-43 73 -59.5 120.5t-16.5 94.5q0 115 82.5 183.5t222.5 68.5q96 0 172.5 -41.5t143.5 -130.5l-158 -115q-51 57 -89 80t-77 23q-35 0 -57.5 -22t-22.5 -56q0 -60 120 -179l7 -7l181 -181q101 -102 139.5 -170.5
t38.5 -140.5q0 -103 -52 -165.5t-159 -90.5q45 -56 67.5 -113.5t22.5 -117.5q0 -130 -83 -204.5t-226 -74.5q-100 0 -181 46.5t-159 148.5z" />
    <glyph glyph-name="bullet" unicode="&#x2022;" horiz-adv-x="1208" 
d="M307 762q0 123 87 209t210 86q122 0 208.5 -86.5t86.5 -208.5t-87.5 -209.5t-209.5 -87.5q-123 0 -209 87t-86 210z" />
    <glyph glyph-name="paragraph" unicode="&#xb6;" 
d="M983 1479v-111h-113v-1368h-151v1368h-158v-1368h-153v784q-167 6 -267 101t-100 245q0 158 107 253.5t284 95.5h551z" />
    <glyph glyph-name="germandbls" unicode="&#xdf;" horiz-adv-x="1157" 
d="M541 692v193q88 0 129 45.5t41 142.5q0 86 -35.5 133t-100.5 47q-79 0 -111 -56.5t-32 -235.5v-961h-313v811q0 164 12.5 265.5t40.5 158.5q57 117 160.5 176t251.5 59q187 0 299 -100.5t112 -267.5q0 -94 -42.5 -164t-141.5 -137q136 -49 200 -147t64 -259
q0 -207 -94.5 -323.5t-261.5 -116.5q-44 0 -92 11t-107 34v252q34 -22 63 -32.5t54 -10.5q63 0 96 54t33 159q0 128 -57 199t-160 71h-8z" />
    <glyph glyph-name="registered" unicode="&#xae;" horiz-adv-x="1706" 
d="M745 1034v-239h99q88 0 129 28t41 88q0 63 -44 93t-136 30h-89zM545 1161h323q176 0 264.5 -59.5t88.5 -177.5q0 -82 -48 -140t-133 -79l185 -369h-224l-157 338h-99v-338h-200v825zM854 1356q-127 0 -236 -44.5t-196 -131.5q-91 -91 -140 -206.5t-49 -238.5
q0 -124 46 -235.5t133 -198.5q89 -91 203 -139.5t237 -48.5q120 0 233.5 47t206.5 135q87 84 135 196t48 232q0 133 -44.5 245t-132.5 201q-90 93 -202.5 140t-241.5 47zM852 1479q154 0 290.5 -57.5t243.5 -166.5q103 -104 157 -238t54 -284q0 -152 -56 -287.5t-163 -238.5
q-107 -105 -243.5 -161t-282.5 -56q-149 0 -285 58t-243 167q-104 105 -158.5 238.5t-54.5 279.5q0 102 27 198.5t81 188.5q101 170 267 264.5t366 94.5z" />
    <glyph glyph-name="copyright" unicode="&#xa9;" horiz-adv-x="1706" 
d="M1212 897h-188q-8 70 -53 108.5t-119 38.5q-91 0 -143 -81.5t-52 -227.5q0 -147 52 -224t151 -77q73 0 117 42t53 119l193 1q-8 -139 -109 -223t-260 -84q-186 0 -293.5 118t-107.5 322q0 206 109.5 328.5t293.5 122.5q152 0 250.5 -78t105.5 -205zM854 1356
q-128 0 -239.5 -46t-198.5 -134q-89 -90 -136 -203.5t-47 -237.5q0 -125 47 -237t136 -201q88 -88 201 -135t237 -47t237.5 47t204.5 137q88 86 133.5 197t45.5 239q0 126 -46.5 238.5t-134.5 200.5q-89 89 -201 135.5t-239 46.5zM852 1479q152 0 287.5 -56t242.5 -163
q105 -105 160 -240.5t55 -286.5q0 -152 -54.5 -284t-160.5 -236q-111 -108 -248 -165.5t-282 -57.5q-147 0 -280.5 56.5t-241.5 164.5q-107 106 -163 240.5t-56 281.5q0 149 56 284.5t163 244.5q105 106 238 161.5t284 55.5z" />
    <glyph glyph-name="trademark" unicode="&#x2122;" horiz-adv-x="1706" 
d="M803 1462h196l127 -332l123 332h197v-547h-135v410l-154 -410h-61l-158 410v-410h-135v547zM207 1462h485v-112h-168v-435h-149v435h-168v112z" />
    <glyph glyph-name="acute" unicode="&#xb4;" 
d="M365 1055l204 346h222l-295 -346h-131z" />
    <glyph glyph-name="dieresis" unicode="&#xa8;" 
d="M573 1217q0 47 37 83.5t86 36.5t84 -35.5t35 -84.5q0 -54 -33 -87.5t-86 -33.5q-51 0 -87 35t-36 86zM209 1217q0 48 36 84t85 36t85 -35.5t36 -84.5q0 -54 -34 -87.5t-87 -33.5q-51 0 -86 35t-35 86z" />
    <glyph glyph-name="notequal" unicode="&#x2260;" horiz-adv-x="1706" 
d="M1198 1233l148 -119l-154 -192h260v-191h-389l-191 -239h580v-193h-707l-245 -309l-148 119l154 190h-252v193h377l190 239h-567v191h696z" />
    <glyph glyph-name="AE" unicode="&#xc6;" horiz-adv-x="1872" 
d="M535 530h348v621h-58zM883 0v285h-461l-135 -285h-348l700 1450h1122v-299h-557v-262h475v-297h-475v-287h565v-305h-886z" />
    <glyph glyph-name="Oslash" unicode="&#xd8;" horiz-adv-x="1630" 
d="M483 494l537 616q-54 34 -102 50t-99 16q-164 0 -277.5 -127t-113.5 -312q0 -73 13.5 -132t41.5 -111zM240 -57h-238l246 284q-88 102 -132 225t-44 265q0 140 44 269t128 235q106 132 255.5 205t313.5 73q117 0 222 -33.5t204 -103.5l104 117h240l-209 -242
q89 -103 135.5 -235.5t46.5 -282.5q0 -149 -52.5 -285.5t-151.5 -245.5q-105 -113 -242 -174t-289 -61q-124 0 -233.5 36t-208.5 109zM1143 975l-547 -625q56 -39 108.5 -57.5t108.5 -18.5q163 0 277 128.5t114 312.5q0 69 -15 133t-46 127z" />
    <glyph glyph-name="infinity" unicode="&#x221e;" horiz-adv-x="1706" 
d="M942 561q45 -75 106.5 -113t139.5 -38q94 0 152.5 55.5t58.5 144.5q0 87 -54 143t-135 56q-75 0 -138 -57.5t-130 -190.5zM766 659q-44 75 -105.5 112.5t-140.5 37.5q-94 0 -152.5 -56t-58.5 -145q0 -85 54 -141.5t135 -56.5q75 0 138 58t130 191zM858 457
q-68 -132 -146.5 -195t-174.5 -63q-140 0 -236 117.5t-96 293.5q0 184 85.5 297t223.5 113q92 0 170 -60t164 -198q68 132 148 196t175 64q139 0 235.5 -118.5t96.5 -293.5q0 -183 -86 -296t-223 -113q-93 0 -170.5 58.5t-165.5 197.5z" />
    <glyph glyph-name="plusminus" unicode="&#xb1;" horiz-adv-x="1706" 
d="M254 197h1198v-199h-1198v199zM752 1223h202v-326h498v-199h-498v-325h-202v325h-498v199h498v326z" />
    <glyph glyph-name="lessequal" unicode="&#x2264;" horiz-adv-x="1706" 
d="M258 195h1192v-197h-1192v197zM1448 1241v-209l-834 -264l834 -262v-209l-1190 385v174z" />
    <glyph glyph-name="greaterequal" unicode="&#x2265;" horiz-adv-x="1706" 
d="M258 195h1192v-197h-1192v197zM260 1241l1188 -385v-174l-1188 -385v209l832 262l-832 264v209z" />
    <glyph glyph-name="yen" unicode="&#xa5;" horiz-adv-x="1270" 
d="M473 0v555h-416v133h418l-117 184h-301v134h219l-274 444h381l274 -487l306 487h333l-305 -444h213v-134h-301l-115 -184h416v-133h-418v-555h-313z" />
    <glyph glyph-name="mu" unicode="&#xb5;" horiz-adv-x="1249" 
d="M205 1092h289l-76 -435q-15 -80 -23 -151.5t-8 -116.5q0 -93 42 -138.5t128 -45.5q100 0 155.5 82t92.5 291l90 514h289l-193 -1092h-268l18 117q-42 -78 -93.5 -114t-121.5 -36q-67 0 -119 29.5t-94 91.5l-90 -526h-286z" />
    <glyph glyph-name="partialdiff" unicode="&#x2202;" horiz-adv-x="1094" 
d="M762 662q19 99 29 188.5t10 155.5q0 100 -26 157.5t-70 57.5t-146 -73t-160 -73q-42 0 -71 30t-29 73q0 64 86.5 118t210.5 54q192 0 309 -161.5t117 -432.5q0 -339 -156.5 -560t-396.5 -221q-171 0 -282 114.5t-111 291.5q0 198 116 329.5t287 131.5q102 0 170 -43.5
t113 -136.5zM700 518q0 116 -38.5 178t-110.5 62q-101 0 -167.5 -134t-66.5 -341q0 -117 38.5 -177.5t111.5 -60.5q101 0 167 133.5t66 339.5z" />
    <glyph glyph-name="summation" unicode="&#x2211;" horiz-adv-x="1470" 
d="M66 1473h1308v-265h-878l620 -645l-622 -690h933v-266h-1386v172l698 772l-673 690v232z" />
    <glyph glyph-name="product" unicode="&#x220f;" horiz-adv-x="1612" 
d="M150 1473h1308v-1866h-344v1577h-620v-1577h-344v1866z" />
    <glyph glyph-name="pi" unicode="&#x3c0;" horiz-adv-x="1319" 
d="M1354 1092l-39 -224h-176l-154 -868h-287l152 868h-238l-151 -868h-287l152 868h-25q-55 0 -84 -31t-39 -99l-213 -1q29 199 123 277t311 78h955z" />
    <glyph glyph-name="integral" unicode="&#x222b;" horiz-adv-x="1186" 
d="M342 -252q102 0 121 639q3 136 6 211q16 508 123 732t328 224q98 0 157.5 -49t59.5 -129q0 -60 -38 -96.5t-100 -36.5q-46 0 -77 24t-41 68q-5 20 -7 54q-3 46 -30 47q-99 0 -119 -633q-4 -116 -6 -178q-11 -296 -31 -444.5t-59 -250.5q-56 -148 -148.5 -225.5
t-214.5 -77.5q-96 0 -156.5 49t-60.5 127q0 62 39 99t105 37q50 0 85 -31.5t35 -71.5q0 -58 6 -73t23 -15z" />
    <glyph glyph-name="ordfeminine" unicode="&#xaa;" horiz-adv-x="850" 
d="M526 1292q-19 11 -38 16t-39 5q-66 0 -112 -52t-46 -131q0 -75 39.5 -124.5t97.5 -49.5q23 0 47.5 12t50.5 36v288zM762 1452v-393q0 -68 3 -120t9 -91l-217 -57l-22 61q-45 -31 -87.5 -46t-87.5 -15q-130 0 -219.5 97t-89.5 242q0 153 100 253t252 100q32 0 68.5 -8.5
t89.5 -28.5z" />
    <glyph glyph-name="ordmasculine" unicode="&#xba;" horiz-adv-x="840" 
d="M287 1137q0 -80 37.5 -129.5t95.5 -49.5t94.5 49.5t36.5 129.5t-37 130t-94 50q-58 0 -95.5 -50.5t-37.5 -129.5zM47 1137q0 150 105.5 248t267.5 98q161 0 267 -98t106 -248q0 -151 -106 -248.5t-267 -97.5q-162 0 -267.5 97.5t-105.5 248.5z" />
    <glyph glyph-name="Omega" unicode="&#x3a9;" horiz-adv-x="1575" 
d="M1227 256h291v-256h-609v291q126 86 192 217.5t66 296.5q0 203 -101.5 319.5t-279.5 116.5q-177 0 -278.5 -116.5t-101.5 -319.5q0 -164 66 -296.5t192 -217.5v-291h-609v256h291q-126 121 -187 260t-61 303q0 313 188 501.5t500 188.5q313 0 501 -188.5t188 -501.5
q0 -164 -61 -303t-187 -260z" />
    <glyph glyph-name="ae" unicode="&#xe6;" horiz-adv-x="1616" 
d="M918 535l393 12v14q0 70 -51 116t-127 46q-85 0 -142 -49.5t-73 -138.5zM633 215v170l-57 -2q-120 -5 -177 -35.5t-57 -89.5q0 -48 33 -76t88 -28q34 0 75 14.5t95 46.5zM768 78q-91 -61 -190 -91t-207 -30q-151 0 -238.5 68t-87.5 184q0 148 128 226.5t380 84.5l80 2v51
q0 72 -44 105t-138 33q-76 0 -243 -54q-20 -7 -30 -9l2 222q90 38 173.5 56t166.5 18q97 0 170.5 -25.5t134.5 -80.5q76 53 153.5 79.5t160.5 26.5q184 0 302 -110t118 -285q-1 -28 -4 -86l-1 -6l-26 -41l-615 -17q7 -91 75 -147.5t173 -56.5q74 0 165.5 32t191.5 95
l-35 -277q-92 -43 -181.5 -64.5t-181.5 -21.5q-105 0 -191.5 29t-160.5 90z" />
    <glyph glyph-name="oslash" unicode="&#xf8;" horiz-adv-x="1118" 
d="M745 582l-313 -349q34 -27 65.5 -40t63.5 -13q88 0 146.5 73.5t58.5 182.5q0 31 -5 66t-16 80zM373 330l307 346q-27 23 -56.5 34t-62.5 11q-91 0 -148 -73.5t-57 -190.5q0 -26 4 -57.5t13 -69.5zM285 33l-97 -111h-190l178 205q-58 68 -85.5 146.5t-27.5 177.5
q0 214 140.5 352.5t355.5 138.5q78 0 143 -17.5t125 -54.5l88 99h191l-166 -191q60 -71 88.5 -150t28.5 -177q0 -215 -141 -353.5t-357 -138.5q-78 0 -144.5 18t-129.5 56z" />
    <glyph glyph-name="questiondown" unicode="&#xbf;" horiz-adv-x="1014" 
d="M819 1329q0 -70 -49 -120t-119 -50q-72 0 -122 49t-50 121q0 70 50.5 119t121.5 49q69 0 118.5 -50t49.5 -118zM780 1032v-370q-170 -42 -256 -105t-86 -147q0 -69 52 -108.5t143 -39.5q40 0 91.5 7.5t113.5 21.5l-21 -293q-58 -11 -110 -17t-99 -6q-221 0 -352 110
t-131 294q0 158 101.5 277t287.5 178l6 155z" />
    <glyph glyph-name="exclamdown" unicode="&#xa1;" horiz-adv-x="653" 
d="M397 995q59 -285 90 -529t37 -458l-395 -55q2 260 162 1028l6 29zM508 1329q0 -70 -49.5 -120t-118.5 -50q-73 0 -122.5 49t-49.5 121q0 70 50 119t122 49q68 0 118 -50t50 -118z" />
    <glyph glyph-name="logicalnot" unicode="&#xac;" horiz-adv-x="1706" 
d="M254 864h1198v-502h-199v306h-999v196z" />
    <glyph glyph-name="radical" unicode="&#x221a;" horiz-adv-x="1346" 
d="M1141 1694h207v-129h-103l-592 -1606h-100l-311 858l-140 -51l-30 113l331 116l236 -661z" />
    <glyph glyph-name="florin" unicode="&#x192;" horiz-adv-x="1186" 
d="M723 678l-64 -531q-32 -266 -152 -402t-323 -136q-35 0 -76 5t-90 15l52 285q19 -4 41 -6t49 -2q83 0 132 70t64 210l56 492h-283v227h309q39 297 156 444.5t313 147.5q58 0 109 -9t98 -28l-45 -248q-36 9 -63 13t-50 4q-93 0 -143.5 -78.5t-62.5 -245.5h274v-227h-301z
" />
    <glyph glyph-name="approxequal" unicode="&#x2248;" horiz-adv-x="1706" 
d="M1530 596v-219q-106 -72 -198 -105.5t-181 -33.5q-95 0 -286.5 66.5t-301.5 66.5q-84 0 -174.5 -37t-210.5 -121v219q111 73 206.5 108t180.5 35q124 0 315.5 -65.5t274.5 -65.5q86 0 174 35.5t201 116.5zM1530 1008v-220q-106 -71 -196.5 -104t-180.5 -33
q-94 0 -286 65.5t-304 65.5q-82 0 -170 -35t-215 -122v219q107 71 204 107t183 36q125 0 316.5 -65.5t273.5 -65.5q84 0 171 35t204 117z" />
    <glyph glyph-name="Delta" unicode="&#x2206;" horiz-adv-x="1427" 
d="M713 1110l-326 -854h653zM563 1473h301l563 -1473h-1427z" />
    <glyph glyph-name="guillemotleft" unicode="&#xab;" 
d="M956 764l-243 -313l243 -314h-239l-254 314l254 313h239zM561 764l-244 -313l244 -314h-242l-253 314l253 313h242z" />
    <glyph glyph-name="guillemotright" unicode="&#xbb;" 
d="M66 137l243 314l-243 313h241l254 -313l-254 -314h-241zM463 137l244 314l-244 313h239l254 -313l-254 -314h-239z" />
    <glyph glyph-name="ellipsis" unicode="&#x2026;" horiz-adv-x="2048" 
d="M172 145q0 71 49 120.5t119 49.5q72 0 122 -49t50 -121q0 -70 -50.5 -120t-121.5 -50q-68 0 -118 51t-50 119zM854 145q0 71 49 120.5t119 49.5q72 0 122 -49t50 -121q0 -70 -50.5 -120t-121.5 -50q-68 0 -118 51t-50 119zM1538 145q0 71 49 120.5t119 49.5q72 0 122 -49
t50 -121q0 -70 -50.5 -120t-121.5 -50q-68 0 -118 51t-50 119z" />
    <glyph glyph-name="nonbreakingspace" unicode="&#xa0;" horiz-adv-x="1186" 
 />
    <glyph glyph-name="Agrave" unicode="&#xc0;" horiz-adv-x="1366" 
d="M481 461h381l-188 454zM-61 0l739 1495h22l723 -1495h-362l-92 211h-588l-94 -211h-348zM831 1612h-131l-295 346h222z" />
    <glyph glyph-name="Atilde" unicode="&#xc3;" horiz-adv-x="1366" 
d="M481 461h381l-188 454zM-61 0l739 1495h22l723 -1495h-362l-92 211h-588l-94 -211h-348zM985 1894q-23 -117 -71 -171t-128 -54q-15 0 -32.5 2.5t-36.5 7.5l-84 25q-20 5 -35 7.5t-29 2.5q-33 0 -54 -16.5t-32 -50.5h-100q20 110 67.5 164.5t124.5 54.5q19 0 40.5 -4
t44.5 -11l87 -24q13 -3 25.5 -4.5t26.5 -1.5q32 0 54.5 19t31.5 54h100z" />
    <glyph glyph-name="Otilde" unicode="&#xd5;" horiz-adv-x="1630" 
d="M432 725q0 -189 110.5 -316.5t272.5 -127.5q163 0 273 127t110 317q0 191 -110 318.5t-273 127.5q-162 0 -272.5 -127.5t-110.5 -318.5zM76 725q0 161 55.5 301.5t163.5 251.5q102 106 237 162.5t283 56.5t283.5 -57t240.5 -164q106 -107 160.5 -247.5t54.5 -303.5
q0 -136 -38 -256t-113 -219q-106 -141 -260.5 -219t-327.5 -78q-147 0 -281.5 57t-238.5 164q-108 111 -163.5 250.5t-55.5 300.5zM1116 1894q-23 -117 -71 -171t-128 -54q-15 0 -32.5 2.5t-36.5 7.5l-84 25q-20 5 -35 7.5t-29 2.5q-33 0 -54 -16.5t-32 -50.5h-100
q20 110 67.5 164.5t124.5 54.5q19 0 40.5 -4t44.5 -11l87 -24q13 -3 25.5 -4.5t26.5 -1.5q32 0 54.5 19t31.5 54h100z" />
    <glyph glyph-name="OE" unicode="&#x152;" horiz-adv-x="1896" 
d="M922 0q-165 0 -278.5 20.5t-201.5 65.5q-173 87 -269.5 255.5t-96.5 383.5q0 196 80 354t229 256q93 61 213 88t324 27h868v-299h-557v-262h475v-297h-475v-287h565v-305h-876zM913 305v840q-10 0 -30 3t-29 3q-198 0 -311 -113.5t-113 -310.5q0 -195 114 -308.5
t312 -113.5h39h18z" />
    <glyph glyph-name="oe" unicode="&#x153;" horiz-adv-x="1720" 
d="M903 815q76 64 160.5 95.5t179.5 31.5q185 0 302.5 -109.5t117.5 -283.5q0 -27 -4 -87v-5l-27 -41l-614 -17q6 -91 74.5 -147.5t173.5 -56.5q74 0 165 32t191 95l-35 -277q-91 -43 -181 -64.5t-181 -21.5q-108 0 -190 27t-150 86q-75 -58 -154.5 -85.5t-171.5 -27.5
q-214 0 -355 138.5t-141 353.5q0 214 141 352.5t355 138.5q104 0 187.5 -31t156.5 -96zM383 451q0 -115 49.5 -185.5t126.5 -70.5t126.5 71t49.5 185q0 113 -49.5 184.5t-126.5 71.5t-126.5 -71t-49.5 -185zM1022 535l393 12v14q0 70 -51 116t-127 46q-85 0 -141.5 -49.5
t-73.5 -138.5z" />
    <glyph glyph-name="endash" unicode="&#x2013;" 
d="M0 346v209h1024v-209h-1024z" />
    <glyph glyph-name="emdash" unicode="&#x2014;" horiz-adv-x="2048" 
d="M0 555h2048v-209h-2048v209z" />
    <glyph glyph-name="quotedblleft" unicode="&#x201c;" horiz-adv-x="995" 
d="M930 1450l-193 -559h-282l223 559h252zM526 1450l-190 -559h-285l223 559h252z" />
    <glyph glyph-name="quotedblright" unicode="&#x201d;" horiz-adv-x="995" 
d="M930 1450l-193 -559h-282l223 559h252zM526 1450l-190 -559h-285l223 559h252z" />
    <glyph glyph-name="quoteleft" unicode="&#x2018;" horiz-adv-x="592" 
d="M535 1450l-193 -559h-285l226 559h252z" />
    <glyph glyph-name="quoteright" unicode="&#x2019;" horiz-adv-x="592" 
d="M535 1450l-193 -559h-285l226 559h252z" />
    <glyph glyph-name="divide" unicode="&#xf7;" horiz-adv-x="1706" 
d="M854 369q62 0 107 -45t45 -107q0 -61 -45 -105t-107 -44q-63 0 -107.5 43t-44.5 106t44.5 107.5t107.5 44.5zM254 711h1198v-199h-1198v199zM854 1155q62 0 107 -44.5t45 -106.5q0 -63 -44.5 -107.5t-107.5 -44.5t-107.5 44.5t-44.5 107.5t44.5 107t107.5 44z" />
    <glyph glyph-name="lozenge" unicode="&#x25ca;" horiz-adv-x="1012" 
d="M506 1409l-385 -817l385 -825l385 825zM506 1653l500 -1061l-500 -1069l-500 1069z" />
    <glyph glyph-name="ydieresis" unicode="&#xff;" horiz-adv-x="920" 
d="M324 0l-324 901h338l145 -465l179 465h278l-565 -1337h-338q76 72 140.5 162.5t111.5 193.5zM522 1217q0 47 37 83.5t86 36.5t84 -35.5t35 -84.5q0 -54 -33 -87.5t-86 -33.5q-51 0 -87 35t-36 86zM158 1217q0 48 36 84t85 36t85 -35.5t36 -84.5q0 -54 -34 -87.5
t-87 -33.5q-51 0 -86 35t-35 86z" />
    <glyph glyph-name="Ydieresis" unicode="&#x178;" horiz-adv-x="1270" 
d="M446 0v688l-518 762h418l303 -459l334 459h367l-559 -748v-702h-345zM696 1774q0 47 37 83.5t86 36.5t84 -35.5t35 -84.5q0 -54 -33 -87.5t-86 -33.5q-51 0 -87 35t-36 86zM332 1774q0 48 36 84t85 36t85 -35.5t36 -84.5q0 -54 -34 -87.5t-87 -33.5q-51 0 -86 35t-35 86z
" />
    <glyph glyph-name="fraction" unicode="&#x2215;" horiz-adv-x="342" 
d="M-342 -47l870 1544h154l-870 -1544h-154z" />
    <glyph glyph-name="currency" unicode="&#xa4;" horiz-adv-x="1186" 
d="M1133 451l-21 -369q-88 -69 -167.5 -99t-172.5 -30q-238 0 -402 148t-216 407h-154l31 133h104q-1 15 -1.5 32t-0.5 52q0 18 1 39t3 61h-137l31 133h127q56 250 220.5 394.5t395.5 144.5q96 0 176.5 -30.5t175.5 -106.5l-32 -365q-93 110 -159.5 150.5t-148.5 40.5
q-101 0 -175 -59t-111 -169h448l-30 -133h-447q-3 -23 -4.5 -47t-1.5 -49q0 -17 0.5 -34.5t3.5 -53.5h403l-30 -133h-346q35 -117 110 -179.5t180 -62.5q86 0 164 40.5t183 144.5z" />
    <glyph glyph-name="guilsinglleft" unicode="&#x2039;" horiz-adv-x="627" 
d="M559 764l-244 -313l244 -314h-240l-253 314l253 313h240z" />
    <glyph glyph-name="guilsinglright" unicode="&#x203a;" horiz-adv-x="627" 
d="M66 137l243 314l-243 313h239l254 -313l-254 -314h-239z" />
    <glyph glyph-name="fi" unicode="&#xf001;" horiz-adv-x="1180" 
d="M745 1237q0 72 50 122t123 50q72 0 122 -49.5t50 -122.5q0 -72 -50.5 -123t-121.5 -51t-122 51.5t-51 122.5zM1075 0h-317v901l317 43v-944zM494 0h-320v664h-131v237h131v80q0 168 52 288t141 158l356 43v-98q-116 -29 -172.5 -110.5t-56.5 -221.5v-139h213v-237h-213
v-664z" />
    <glyph glyph-name="fi" unicode="&#xfb01;" horiz-adv-x="1180" 
d="M745 1237q0 72 50 122t123 50q72 0 122 -49.5t50 -122.5q0 -72 -50.5 -123t-121.5 -51t-122 51.5t-51 122.5zM1075 0h-317v901l317 43v-944zM494 0h-320v664h-131v237h131v80q0 168 52 288t141 158l356 43v-98q-116 -29 -172.5 -110.5t-56.5 -221.5v-139h213v-237h-213
v-664z" />
    <glyph glyph-name="fl" unicode="&#xf002;" horiz-adv-x="1180" 
d="M1075 0h-317v1427l317 43v-1470zM494 0h-320v664h-131v237h131v80q0 168 52 288t141 158l356 43v-98q-116 -29 -172.5 -110.5t-56.5 -221.5v-139h213v-237h-213v-664z" />
    <glyph glyph-name="fl" unicode="&#xfb02;" horiz-adv-x="1180" 
d="M1075 0h-317v1427l317 43v-1470zM494 0h-320v664h-131v237h131v80q0 168 52 288t141 158l356 43v-98q-116 -29 -172.5 -110.5t-56.5 -221.5v-139h213v-237h-213v-664z" />
    <glyph glyph-name="daggerdbl" unicode="&#x2021;" 
d="M387 598q28 74 49.5 161.5t36.5 188.5l-342 -86v240l340 -78l-80 426h242l-80 -426l340 78v-240l-342 86q16 -100 37.5 -188t48.5 -164q-28 -74 -49.5 -161.5t-36.5 -188.5l342 88v-240l-340 78l80 -428h-242l80 428l-340 -78v240l342 -88q-16 100 -37.5 188t-48.5 164z
" />
    <glyph glyph-name="periodcentered" unicode="&#xb7;" horiz-adv-x="592" 
d="M127 725q0 70 49 120t119 50q72 0 122 -49t50 -121q0 -70 -50.5 -120t-121.5 -50q-68 0 -118 51t-50 119z" />
    <glyph glyph-name="quotesinglbase" unicode="&#x201a;" horiz-adv-x="592" 
d="M473 252l-192 -561h-285l225 561h252z" />
    <glyph glyph-name="quotedblbase" unicode="&#x201e;" horiz-adv-x="995" 
d="M879 252l-193 -561h-283l224 561h252zM475 252l-190 -561h-285l223 561h252z" />
    <glyph glyph-name="perthousand" unicode="&#x2030;" horiz-adv-x="2437" 
d="M1872 319q0 -65 47 -113t111 -48t111.5 47.5t47.5 113.5q0 67 -47 115.5t-112 48.5t-111.5 -48.5t-46.5 -115.5zM1661 322q0 152 108.5 260t260.5 108q153 0 260.5 -107.5t107.5 -260.5t-108 -261t-260 -108t-260.5 108t-108.5 261zM1184 1497h153l-923 -1544h-156z
M1032 319q0 -65 47 -113t111 -48t112 47.5t48 113.5q0 67 -47.5 115.5t-112.5 48.5q-64 0 -111 -48.5t-47 -115.5zM821 322q0 152 108.5 260t260.5 108q153 0 261 -107.5t108 -260.5t-108 -261t-261 -108q-152 0 -260.5 108t-108.5 261zM248 1128q0 -65 47 -113t111 -48
t110.5 47.5t46.5 113.5q0 68 -46.5 116t-110.5 48q-65 0 -111.5 -48.5t-46.5 -115.5zM39 1128q0 154 107 261.5t260 107.5t260.5 -107.5t107.5 -261.5q0 -152 -108 -259t-260 -107t-259.5 107t-107.5 259z" />
    <glyph glyph-name="Acircumflex" unicode="&#xc2;" horiz-adv-x="1366" 
d="M481 461h381l-188 454zM-61 0l739 1495h22l723 -1495h-362l-92 211h-588l-94 -211h-348zM387 1610l188 348h218l188 -348h-131l-166 211l-168 -211h-129z" />
    <glyph glyph-name="Ecircumflex" unicode="&#xca;" horiz-adv-x="1165" 
d="M166 0v1450h893v-299h-557v-262h477v-297h-477v-287h565v-305h-901zM317 1610l188 348h218l188 -348h-131l-166 211l-168 -211h-129z" />
    <glyph glyph-name="Aacute" unicode="&#xc1;" horiz-adv-x="1366" 
d="M481 461h381l-188 454zM-61 0l739 1495h22l723 -1495h-362l-92 211h-588l-94 -211h-348zM537 1612l204 346h222l-295 -346h-131z" />
    <glyph glyph-name="Edieresis" unicode="&#xcb;" horiz-adv-x="1165" 
d="M166 0v1450h893v-299h-557v-262h477v-297h-477v-287h565v-305h-901zM675 1774q0 47 37 83.5t86 36.5t84 -35.5t35 -84.5q0 -54 -33 -87.5t-86 -33.5q-51 0 -87 35t-36 86zM311 1774q0 48 36 84t85 36t85 -35.5t36 -84.5q0 -54 -34 -87.5t-87 -33.5q-51 0 -86 35t-35 86z
" />
    <glyph glyph-name="Egrave" unicode="&#xc8;" horiz-adv-x="1165" 
d="M166 0v1450h893v-299h-557v-262h477v-297h-477v-287h565v-305h-901zM761 1612h-131l-295 346h222z" />
    <glyph glyph-name="Iacute" unicode="&#xcd;" horiz-adv-x="688" 
d="M170 0v1450h346v-1450h-346zM197 1612l204 346h222l-295 -346h-131z" />
    <glyph glyph-name="Icircumflex" unicode="&#xce;" horiz-adv-x="688" 
d="M170 0v1450h346v-1450h-346zM47 1610l188 348h218l188 -348h-131l-166 211l-168 -211h-129z" />
    <glyph glyph-name="Idieresis" unicode="&#xcf;" horiz-adv-x="688" 
d="M170 0v1450h346v-1450h-346zM405 1774q0 47 37 83.5t86 36.5t84 -35.5t35 -84.5q0 -54 -33 -87.5t-86 -33.5q-51 0 -87 35t-36 86zM41 1774q0 48 36 84t85 36t85 -35.5t36 -84.5q0 -54 -34 -87.5t-87 -33.5q-51 0 -86 35t-35 86z" />
    <glyph glyph-name="Igrave" unicode="&#xcc;" horiz-adv-x="688" 
d="M170 0v1450h346v-1450h-346zM491 1612h-131l-295 346h222z" />
    <glyph glyph-name="Oacute" unicode="&#xd3;" horiz-adv-x="1630" 
d="M432 725q0 -189 110.5 -316.5t272.5 -127.5q163 0 273 127t110 317q0 191 -110 318.5t-273 127.5q-162 0 -272.5 -127.5t-110.5 -318.5zM76 725q0 161 55.5 301.5t163.5 251.5q102 106 237 162.5t283 56.5t283.5 -57t240.5 -164q106 -107 160.5 -247.5t54.5 -303.5
q0 -136 -38 -256t-113 -219q-106 -141 -260.5 -219t-327.5 -78q-147 0 -281.5 57t-238.5 164q-108 111 -163.5 250.5t-55.5 300.5zM668 1612l204 346h222l-295 -346h-131z" />
    <glyph glyph-name="Ocircumflex" unicode="&#xd4;" horiz-adv-x="1630" 
d="M432 725q0 -189 110.5 -316.5t272.5 -127.5q163 0 273 127t110 317q0 191 -110 318.5t-273 127.5q-162 0 -272.5 -127.5t-110.5 -318.5zM76 725q0 161 55.5 301.5t163.5 251.5q102 106 237 162.5t283 56.5t283.5 -57t240.5 -164q106 -107 160.5 -247.5t54.5 -303.5
q0 -136 -38 -256t-113 -219q-106 -141 -260.5 -219t-327.5 -78q-147 0 -281.5 57t-238.5 164q-108 111 -163.5 250.5t-55.5 300.5zM518 1610l188 348h218l188 -348h-131l-166 211l-168 -211h-129z" />
    <glyph glyph-name="apple" unicode="&#xf000;" horiz-adv-x="1618" 
d="M836 1216q-1 6 -1.5 14t-0.5 23q0 124 95 229.5t236 131.5q1 -10 1.5 -23t0.5 -39q0 -131 -103.5 -234.5t-203.5 -103.5h-8q-3 0 -7.5 1t-8.5 1zM1505 403q-114 -247 -205 -342.5t-204 -95.5q-50 0 -131.5 33t-122.5 33q-45 0 -131 -33t-127 -33q-64 0 -128.5 44
t-129.5 132q-102 140 -157.5 295.5t-55.5 300.5q0 219 125 356.5t323 137.5q68 0 155 -34t124 -34q34 0 121.5 35t152.5 35q110 0 198 -40t161 -124q-102 -65 -151.5 -145.5t-49.5 -182.5q0 -113 60 -200t173 -138z" />
    <glyph glyph-name="Ograve" unicode="&#xd2;" horiz-adv-x="1630" 
d="M432 725q0 -189 110.5 -316.5t272.5 -127.5q163 0 273 127t110 317q0 191 -110 318.5t-273 127.5q-162 0 -272.5 -127.5t-110.5 -318.5zM76 725q0 161 55.5 301.5t163.5 251.5q102 106 237 162.5t283 56.5t283.5 -57t240.5 -164q106 -107 160.5 -247.5t54.5 -303.5
q0 -136 -38 -256t-113 -219q-106 -141 -260.5 -219t-327.5 -78q-147 0 -281.5 57t-238.5 164q-108 111 -163.5 250.5t-55.5 300.5zM962 1612h-131l-295 346h222z" />
    <glyph glyph-name="Uacute" unicode="&#xda;" horiz-adv-x="1522" 
d="M494 1450v-797q0 -192 70.5 -287.5t213.5 -95.5q138 0 210.5 89t72.5 259v832h309v-832q0 -314 -161 -489.5t-447 -175.5q-289 0 -449.5 174t-160.5 489v834h342zM615 1612l204 346h222l-295 -346h-131z" />
    <glyph glyph-name="Ucircumflex" unicode="&#xdb;" horiz-adv-x="1522" 
d="M494 1450v-797q0 -192 70.5 -287.5t213.5 -95.5q138 0 210.5 89t72.5 259v832h309v-832q0 -314 -161 -489.5t-447 -175.5q-289 0 -449.5 174t-160.5 489v834h342zM465 1610l188 348h218l188 -348h-131l-166 211l-168 -211h-129z" />
    <glyph glyph-name="Ugrave" unicode="&#xd9;" horiz-adv-x="1522" 
d="M494 1450v-797q0 -192 70.5 -287.5t213.5 -95.5q138 0 210.5 89t72.5 259v832h309v-832q0 -314 -161 -489.5t-447 -175.5q-289 0 -449.5 174t-160.5 489v834h342zM909 1612h-131l-295 346h222z" />
    <glyph glyph-name="dotlessi" unicode="&#x131;" horiz-adv-x="545" 
d="M432 0h-317v901l317 43v-944z" />
    <glyph glyph-name="circumflex" unicode="&#x2c6;" 
d="M215 1053l188 348h218l188 -348h-131l-166 211l-168 -211h-129z" />
    <glyph glyph-name="tilde" unicode="&#x2dc;" 
d="M813 1337q-23 -117 -71 -171t-128 -54q-15 0 -32.5 2.5t-36.5 7.5l-84 25q-20 5 -35 7.5t-29 2.5q-33 0 -54 -16.5t-32 -50.5h-100q20 110 67.5 164.5t124.5 54.5q19 0 40.5 -4t44.5 -11l87 -24q13 -3 25.5 -4.5t26.5 -1.5q32 0 54.5 19t31.5 54h100z" />
    <glyph glyph-name="macron" unicode="&#xaf;" 
d="M236 1143v147h552v-147h-552z" />
    <glyph glyph-name="breve" unicode="&#x2d8;" 
d="M213 1370h121q6 -73 49 -107t129 -34t128 33.5t48 107.5h119q-11 -149 -82.5 -219t-212.5 -70t-214.5 71t-84.5 218z" />
    <glyph glyph-name="dotaccent" unicode="&#x2d9;" 
d="M391 1217q0 50 35 85t86 35t86 -35t35 -85t-35.5 -85.5t-85.5 -35.5q-51 0 -86 35t-35 86z" />
    <glyph glyph-name="ring" unicode="&#x2da;" 
d="M385 1292q0 -53 37.5 -91t91.5 -38q53 0 90 38t37 91q0 54 -36.5 90.5t-90.5 36.5t-91.5 -36.5t-37.5 -90.5zM256 1292q0 108 74.5 183t181.5 75q108 0 183 -75t75 -183t-75 -183t-183 -75t-182 74.5t-74 183.5z" />
    <glyph glyph-name="cedilla" unicode="&#xb8;" 
d="M287 -434v119q82 -22 146.5 -32.5t109.5 -10.5q53 0 80.5 19t27.5 56q0 42 -34 61t-109 19q-6 0 -20 -1t-21 -1v205h90v-94h16q120 0 178 -47.5t58 -145.5q0 -91 -65 -140.5t-185 -49.5q-54 0 -124 11t-148 32z" />
    <glyph glyph-name="hungarumlaut" unicode="&#x2dd;" 
d="M565 1055l162 346h197l-254 -346h-105zM408 1055h-105l133 346h189z" />
    <glyph glyph-name="ogonek" unicode="&#x2db;" 
d="M625 0q-70 -60 -100.5 -110t-30.5 -103q0 -44 19.5 -62t68.5 -18h94v-156h-96q-119 0 -175.5 44t-56.5 137q0 65 45.5 130t143.5 138h88z" />
    <glyph glyph-name="caron" unicode="&#x2c7;" 
d="M215 1401h129l168 -209l166 209h131l-188 -348h-218z" />
    <glyph glyph-name="Lslash" unicode="&#x141;" horiz-adv-x="1096" 
d="M180 0v500l-180 -125v225l180 125v725h346v-530l305 215v-228l-305 -217v-379h566v-311h-912z" />
    <glyph glyph-name="lslash" unicode="&#x142;" horiz-adv-x="569" 
d="M440 0h-315v537l-125 -91v172l125 87v722l315 43v-598l129 91v-170l-129 -91v-702z" />
    <glyph glyph-name="Scaron" unicode="&#x160;" horiz-adv-x="1128" 
d="M100 410q134 -82 227.5 -115t182.5 -33q90 0 144.5 39.5t54.5 101.5q0 89 -194 200q-31 18 -48 28l-98 55q-143 81 -212 183t-69 231q0 175 132 287t341 112q77 0 167 -18t200 -56v-340q-105 66 -199 102t-160 36q-73 0 -115 -31.5t-42 -85.5q0 -38 25 -71t75 -60
l170 -94q213 -118 286.5 -218t73.5 -237q0 -212 -144.5 -342.5t-383.5 -130.5q-81 0 -176 17t-209 53zM268 1958h129l168 -209l166 209h131l-188 -348h-218z" />
    <glyph glyph-name="scaron" unicode="&#x161;" horiz-adv-x="868" 
d="M119 41v248q119 -76 185 -102.5t122 -26.5q49 0 79 21.5t30 56.5q0 30 -21 50t-72 38l-116 41q-114 39 -173 109.5t-59 166.5q0 136 95 218.5t253 82.5q73 0 154.5 -20.5t181.5 -63.5l-39 -219q-60 51 -131 80t-133 29q-46 0 -75 -21.5t-29 -54.5q0 -28 16.5 -44.5
t73.5 -35.5l108 -39q127 -45 181.5 -109t54.5 -167q0 -149 -98 -235.5t-267 -86.5q-82 0 -161.5 20.5t-159.5 63.5zM137 1401h129l168 -209l166 209h131l-188 -348h-218z" />
    <glyph glyph-name="Zcaron" unicode="&#x17d;" horiz-adv-x="1370" 
d="M35 0l721 1147h-647l55 303h1151l-719 -1143h719l-55 -307h-1225zM389 1958h129l168 -209l166 209h131l-188 -348h-218z" />
    <glyph glyph-name="zcaron" unicode="&#x17e;" horiz-adv-x="928" 
d="M-4 0l403 664h-348l55 237h791l-403 -663h391l-37 -238h-852zM168 1401h129l168 -209l166 209h131l-188 -348h-218z" />
    <glyph glyph-name="brokenbar" unicode="&#xa6;" 
d="M410 408h206v-758h-206v758zM410 1432h206v-758h-206v758z" />
    <glyph glyph-name="Eth" unicode="&#xd0;" horiz-adv-x="1507" 
d="M516 311h82q228 0 355.5 110t127.5 304t-128 305t-355 111h-82v-277h299v-198h-299v-355zM180 0v666h-180v198h180v586h385q406 0 636.5 -194t230.5 -531q0 -202 -91.5 -358.5t-267.5 -257.5q-100 -58 -217 -83.5t-291 -25.5h-385z" />
    <glyph glyph-name="eth" unicode="&#xf0;" horiz-adv-x="1118" 
d="M602 928q-27 41 -57.5 82t-67.5 86l-293 -146l-59 119l264 129q-37 42 -66.5 75t-60.5 66l160 140q54 -41 101.5 -81.5t90.5 -82.5l252 133l62 -121l-213 -110q175 -185 259.5 -366t84.5 -372q0 -238 -137 -380t-363 -142q-214 0 -355 138.5t-141 350.5q0 210 137 347
t345 137q24 0 35.5 -0.5t21.5 -1.5zM559 707q-76 0 -126 -70.5t-50 -181.5q0 -118 49 -189t127 -71q77 0 126.5 71t49.5 185q0 113 -49.5 184.5t-126.5 71.5z" />
    <glyph glyph-name="Yacute" unicode="&#xdd;" horiz-adv-x="1270" 
d="M446 0v688l-518 762h418l303 -459l334 459h367l-559 -748v-702h-345zM488 1612l204 346h222l-295 -346h-131z" />
    <glyph glyph-name="yacute" unicode="&#xfd;" horiz-adv-x="920" 
d="M324 0l-324 901h338l145 -465l179 465h278l-565 -1337h-338q76 72 140.5 162.5t111.5 193.5zM314 1055l204 346h222l-295 -346h-131z" />
    <glyph glyph-name="Thorn" unicode="&#xde;" horiz-adv-x="1223" 
d="M512 920v-388h63q131 0 200 51t69 146q0 99 -68 145t-217 46h-47zM166 1450h346v-264h63q277 0 431.5 -120.5t154.5 -334.5q0 -211 -158 -339t-421 -128q-28 0 -42.5 0.5t-27.5 1.5v-266h-346v1450z" />
    <glyph glyph-name="thorn" unicode="&#xfe;" horiz-adv-x="1133" 
d="M123 1427l313 43v-569q47 18 93 26.5t94 8.5q195 0 321.5 -135t126.5 -348q0 -222 -136.5 -358t-356.5 -136q-32 0 -67 3.5t-75 10.5v-354l-313 -53v1861zM436 678v-471q33 -9 57 -13t44 -4q91 0 152 75t61 190q0 107 -56 177t-137 70q-25 0 -53 -5.5t-68 -18.5z" />
    <glyph glyph-name="minus" unicode="&#x2212;" horiz-adv-x="1706" 
d="M254 713h1198v-203h-1198v203z" />
    <glyph glyph-name="multiply" unicode="&#xd7;" horiz-adv-x="1706" 
d="M416 1202l450 -450l451 450l141 -139l-450 -453l450 -450l-141 -140l-451 451l-450 -451l-140 140l451 450l-451 453z" />
    <glyph glyph-name="onesuperior" unicode="&#xb9;" horiz-adv-x="782" 
d="M309 580v710h-166l31 160h348v-870h-213z" />
    <glyph glyph-name="twosuperior" unicode="&#xb2;" horiz-adv-x="782" 
d="M29 580v69l346 377l7 8q91 101 91 156q0 46 -34 76t-87 30q-49 0 -85 -29t-48 -79l-182 82q41 100 126.5 154.5t201.5 54.5q137 0 231 -80t94 -197q0 -73 -42.5 -150.5t-131.5 -166.5l-125 -127h342l-31 -178h-673z" />
    <glyph glyph-name="threesuperior" unicode="&#xb3;" horiz-adv-x="782" 
d="M133 829q63 -42 115.5 -63t97.5 -21q59 0 95 28.5t36 74.5q0 51 -50 77.5t-146 26.5h-25v149q108 4 161.5 32.5t53.5 83.5q0 38 -26.5 62t-69.5 24q-39 0 -82.5 -22t-97.5 -69l-121 117q66 75 143 112.5t166 37.5q129 0 214 -72.5t85 -179.5q0 -60 -29.5 -108t-85.5 -79
q65 -29 100 -84t35 -129q0 -123 -95.5 -199.5t-250.5 -76.5q-89 0 -177 30.5t-161 86.5z" />
    <glyph glyph-name="onequarter" unicode="&#xbc;" horiz-adv-x="1835" 
d="M1511 305v309l-225 -309h225zM1511 0v160h-385v153l363 498h217v-506h94v-145h-94v-160h-195zM406 -47l870 1544h154l-871 -1544h-153zM295 639v664h-160l31 147h332v-811h-203z" />
    <glyph glyph-name="onehalf" unicode="&#xbd;" horiz-adv-x="1835" 
d="M1116 0v66l332 352q61 63 77.5 92.5t16.5 58.5q0 44 -32.5 71.5t-84.5 27.5q-47 0 -81 -26.5t-46 -74.5l-174 78q40 92 121.5 142.5t190.5 50.5q133 0 222 -73.5t89 -184.5q0 -68 -40 -139.5t-124 -155.5l-121 -119h328l-31 -166h-643zM406 -47l870 1544h154l-871 -1544
h-153zM295 639v664h-160l31 147h332v-811h-203z" />
    <glyph glyph-name="threequarters" unicode="&#xbe;" horiz-adv-x="1837" 
d="M1511 305v309l-225 -309h225zM1511 0v160h-385v153l363 498h217v-506h94v-145h-94v-160h-195zM406 -47l870 1544h154l-871 -1544h-153zM127 872q58 -39 108 -58t95 -19q57 0 91 25.5t34 68.5q0 48 -47.5 73t-139.5 25h-24v139q104 4 155.5 30.5t51.5 78.5q0 35 -26 57.5
t-67 22.5q-37 0 -79 -21t-93 -65l-116 110q65 71 138 105.5t157 34.5q124 0 205 -67.5t81 -168.5q0 -56 -28 -101.5t-80 -72.5q60 -26 93.5 -78t33.5 -121q0 -114 -91.5 -186t-238.5 -72q-84 0 -169 28.5t-153 80.5z" />
    <glyph glyph-name="franc" unicode="&#x20a3;" horiz-adv-x="1925" 
d="M166 0v1450h901v-295h-557v-289h498v-293h-498v-573h-344zM1566 0h-315v901h293l6 -158q54 95 126.5 138t180.5 43h25v-336h-33h-35q-147 0 -197.5 -33.5t-50.5 -161.5v-393z" />
    <glyph glyph-name="Gbreve" unicode="&#x11e;" horiz-adv-x="1518" 
d="M1397 805v-705q-146 -73 -284.5 -110t-268.5 -37q-331 0 -549.5 218.5t-218.5 551.5q0 336 221.5 556t560.5 220q128 0 244 -35t223 -106l-37 -363q-101 102 -201 149.5t-210 47.5q-195 0 -323 -130.5t-128 -326.5q0 -206 123.5 -336.5t318.5 -130.5q45 0 91 8t96 23v211
h-275v295h617zM461 1927h121q6 -73 49 -107t129 -34t128 33.5t48 107.5h119q-11 -149 -82.5 -219t-212.5 -70t-214.5 71t-84.5 218z" />
    <glyph glyph-name="gbreve" unicode="&#x11f;" horiz-adv-x="1133" 
d="M702 672q-28 16 -53.5 23t-50.5 7q-89 0 -150 -74.5t-61 -187.5q0 -106 53.5 -176.5t130.5 -70.5q30 0 63.5 17t67.5 50v412zM1016 901v-817q0 -124 -12 -186.5t-39 -114.5q-56 -108 -163 -163.5t-259 -55.5q-91 0 -184.5 20t-198.5 62l-4 250q100 -54 182 -79.5
t154 -25.5q105 0 163 50t58 141v61q-54 -34 -107 -50t-112 -16q-191 0 -308.5 128t-117.5 337q0 217 133 359.5t336 142.5q47 0 98 -13t113 -40zM268 1370h121q6 -73 49 -107t129 -34t128 33.5t48 107.5h119q-11 -149 -82.5 -219t-212.5 -70t-214.5 71t-84.5 218z" />
    <glyph glyph-name="Idotaccent" unicode="&#x130;" horiz-adv-x="688" 
d="M170 0v1450h346v-1450h-346zM223 1774q0 50 35 85t86 35t86 -35t35 -85t-35.5 -85.5t-85.5 -35.5q-51 0 -86 35t-35 86z" />
    <glyph glyph-name="Scedilla" unicode="&#x15e;" horiz-adv-x="1128" 
d="M100 410q134 -82 227.5 -115t182.5 -33q90 0 144.5 39.5t54.5 101.5q0 89 -194 200q-31 18 -48 28l-98 55q-143 81 -212 183t-69 231q0 175 132 287t341 112q77 0 167 -18t200 -56v-340q-105 66 -199 102t-160 36q-73 0 -115 -31.5t-42 -85.5q0 -38 25 -71t75 -60
l170 -94q213 -118 286.5 -218t73.5 -237q0 -212 -144.5 -342.5t-383.5 -130.5q-81 0 -176 17t-209 53zM340 -434v119q82 -22 146.5 -32.5t109.5 -10.5q53 0 80.5 19t27.5 56q0 42 -34 61t-109 19q-6 0 -20 -1t-21 -1v205h90v-94h16q120 0 178 -47.5t58 -145.5
q0 -91 -65 -140.5t-185 -49.5q-54 0 -124 11t-148 32z" />
    <glyph glyph-name="scedilla" unicode="&#x15f;" horiz-adv-x="868" 
d="M119 41v248q119 -76 185 -102.5t122 -26.5q49 0 79 21.5t30 56.5q0 30 -21 50t-72 38l-116 41q-114 39 -173 109.5t-59 166.5q0 136 95 218.5t253 82.5q73 0 154.5 -20.5t181.5 -63.5l-39 -219q-60 51 -131 80t-133 29q-46 0 -75 -21.5t-29 -54.5q0 -28 16.5 -44.5
t73.5 -35.5l108 -39q127 -45 181.5 -109t54.5 -167q0 -149 -98 -235.5t-267 -86.5q-82 0 -161.5 20.5t-159.5 63.5zM209 -434v119q82 -22 146.5 -32.5t109.5 -10.5q53 0 80.5 19t27.5 56q0 42 -34 61t-109 19q-6 0 -20 -1t-21 -1v205h90v-94h16q120 0 178 -47.5t58 -145.5
q0 -91 -65 -140.5t-185 -49.5q-54 0 -124 11t-148 32z" />
    <glyph glyph-name="Cacute" unicode="&#x106;" horiz-adv-x="1341" 
d="M1237 991q-94 97 -190.5 144t-202.5 47q-184 0 -301 -127t-117 -326t116 -322.5t302 -123.5q110 0 219.5 46t218.5 138l-22 -385q-93 -63 -203.5 -96t-229.5 -33q-128 0 -245.5 40t-216.5 118q-140 110 -214.5 268.5t-74.5 345.5q0 161 55 302t160 249q106 108 245 165.5
t293 57.5q122 0 233 -34t212 -103zM676 1612l204 346h222l-295 -346h-131z" />
    <glyph glyph-name="cacute" unicode="&#x107;" horiz-adv-x="999" 
d="M909 51q-83 -47 -163.5 -69.5t-165.5 -22.5q-225 0 -369.5 135t-144.5 342q0 215 155.5 360.5t390.5 145.5q86 0 168 -19.5t158 -58.5l-35 -280q-74 45 -142.5 68.5t-127.5 23.5q-106 0 -176 -64.5t-70 -160.5q0 -102 65 -164t171 -62q66 0 141 28.5t174 92.5zM445 1055
l204 346h222l-295 -346h-131z" />
    <glyph glyph-name="Ccaron" unicode="&#x10c;" horiz-adv-x="1341" 
d="M1237 991q-94 97 -190.5 144t-202.5 47q-184 0 -301 -127t-117 -326t116 -322.5t302 -123.5q110 0 219.5 46t218.5 138l-22 -385q-93 -63 -203.5 -96t-229.5 -33q-128 0 -245.5 40t-216.5 118q-140 110 -214.5 268.5t-74.5 345.5q0 161 55 302t160 249q106 108 245 165.5
t293 57.5q122 0 233 -34t212 -103zM526 1958h129l168 -209l166 209h131l-188 -348h-218z" />
    <glyph glyph-name="ccaron" unicode="&#x10d;" horiz-adv-x="999" 
d="M909 51q-83 -47 -163.5 -69.5t-165.5 -22.5q-225 0 -369.5 135t-144.5 342q0 215 155.5 360.5t390.5 145.5q86 0 168 -19.5t158 -58.5l-35 -280q-74 45 -142.5 68.5t-127.5 23.5q-106 0 -176 -64.5t-70 -160.5q0 -102 65 -164t171 -62q66 0 141 28.5t174 92.5zM295 1401
h129l168 -209l166 209h131l-188 -348h-218z" />
    <glyph glyph-name="dcroat" unicode="&#x111;" horiz-adv-x="1147" 
d="M702 672q-28 16 -53.5 23t-50.5 7q-89 0 -150 -74.5t-61 -187.5q0 -106 53.5 -176.5t130.5 -70.5q30 0 62.5 12.5t68.5 38.5v428zM1016 1470v-233h131v-152h-131v-1085l-275 -43l-12 70q-66 -36 -130 -53t-130 -17q-189 0 -295 125t-106 346q0 232 124.5 372t329.5 140
q49 0 94 -9.5t89 -29.5v184h-326v152h326v190z" />
    <glyph glyph-name="sfthyphen" unicode="&#xad;" horiz-adv-x="702" 
d="M86 311v279h530v-279h-530z" />
    <glyph glyph-name="periodcentered" unicode="&#x2219;" horiz-adv-x="592" 
d="M127 725q0 70 49 120t119 50q72 0 122 -49t50 -121q0 -70 -50.5 -120t-121.5 -50q-68 0 -118 51t-50 119z" />
    <glyph glyph-name="Euro" horiz-adv-x="1186" 
d="M1133 451l-21 -369q-88 -69 -167.5 -99t-172.5 -30q-238 0 -402 148t-216 407h-154l31 133h104q-1 15 -1.5 32t-0.5 52q0 18 1 39t3 61h-137l31 133h127q56 250 220.5 394.5t395.5 144.5q96 0 176.5 -30.5t175.5 -106.5l-32 -365q-93 110 -159.5 150.5t-148.5 40.5
q-101 0 -175 -59t-111 -169h448l-30 -133h-447q-3 -23 -4.5 -47t-1.5 -49q0 -17 0.5 -34.5t3.5 -53.5h403l-30 -133h-346q35 -117 110 -179.5t180 -62.5q86 0 164 40.5t183 144.5z" />
    <glyph glyph-name="Euro" unicode="&#x20ac;" horiz-adv-x="1186" 
d="M1133 451l-21 -369q-88 -69 -167.5 -99t-172.5 -30q-238 0 -402 148t-216 407h-154l31 133h104q-1 15 -1.5 32t-0.5 52q0 18 1 39t3 61h-137l31 133h127q56 250 220.5 394.5t395.5 144.5q96 0 176.5 -30.5t175.5 -106.5l-32 -365q-93 110 -159.5 150.5t-148.5 40.5
q-101 0 -175 -59t-111 -169h448l-30 -133h-447q-3 -23 -4.5 -47t-1.5 -49q0 -17 0.5 -34.5t3.5 -53.5h403l-30 -133h-346q35 -117 110 -179.5t180 -62.5q86 0 164 40.5t183 144.5z" />
    </font>
</defs>
</svg>
